<?xml version="1.0" standalone="no"?>
<!DOCTYPE svg PUBLIC "-//W3C//DTD SVG 1.1//EN" "http://www.w3.org/Graphics/SVG/1.1/DTD/svg11.dtd" >
<svg xmlns="http://www.w3.org/2000/svg" xmlns:xlink="http://www.w3.org/1999/xlink" version="1.1">
<metadata>
Created by FontForge 20200511 at Thu Feb  6 16:39:26 2020
 By convertio
Copyright (c) 2019 by Dmitry Rastvortsev. Ordered by Projector, Dmytro Bulanov Creative Bu:ro and Banda Agency for Kyiv city identification. Long live Free Ukraine!
</metadata>
<defs>
<font id="Kyiv*TypeSans" horiz-adv-x="700" >
  <font-face 
    font-family="Kyiv*Type Sans"
    font-weight="400"
    font-stretch="normal"
    units-per-em="1000"
    panose-1="0 0 5 0 0 0 0 0 0 0"
    ascent="800"
    descent="-200"
    x-height="500"
    cap-height="700"
    bbox="-485 -245 1168 1025"
    underline-thickness="50"
    underline-position="-100"
    unicode-range="U+000D-2605"
  />
<missing-glyph horiz-adv-x="1064" 
d="M508 210l-194 -173l-171 51l48 172h297l-368 113v173l160 41l220 -263l-126 353l158 133l158 -133l-126 -353l220 263l160 -41v-173l-368 -113h297l48 -172l-171 -51l-194 173l22 -250h-92z" />
    <glyph glyph-name=".notdef" horiz-adv-x="1064" 
d="M508 210l-194 -173l-171 51l48 172h297l-368 113v173l160 41l220 -263l-126 353l158 133l158 -133l-126 -353l220 263l160 -41v-173l-368 -113h297l48 -172l-171 -51l-194 173l22 -250h-92z" />
    <glyph glyph-name=".null" horiz-adv-x="600" 
 />
    <glyph glyph-name="nonmarkingreturn" unicode="&#xd;" horiz-adv-x="250" 
 />
    <glyph glyph-name="space" unicode=" " horiz-adv-x="250" 
 />
    <glyph glyph-name="A" unicode="A" horiz-adv-x="664" 
d="M319 700h26l304 -700h-22l-100 230h-391l-100 -230h-21zM519 249l-187 432v0l-188 -432h375z" />
    <glyph glyph-name="Aacute" unicode="&#xc1;" horiz-adv-x="664" 
d="M319 700h26l304 -700h-22l-100 230h-391l-100 -230h-21zM519 249l-187 432v0l-188 -432h375zM398 945h22l-67 -160h-21z" />
    <glyph glyph-name="Abreve" unicode="&#x102;" horiz-adv-x="664" 
d="M319 700h26l304 -700h-22l-100 230h-391l-100 -230h-21zM519 249l-187 432v0l-188 -432h375zM332 785q-51 0 -89.5 19t-59.5 53t-21 80v8h20v-8q0 -61 40 -96.5t110 -35.5t110 35.5t40 96.5v8h20v-8q0 -46 -21 -80t-59.5 -53t-89.5 -19z" />
    <glyph glyph-name="Acircumflex" unicode="&#xc2;" horiz-adv-x="664" 
d="M319 700h26l304 -700h-22l-100 230h-391l-100 -230h-21zM519 249l-187 432v0l-188 -432h375zM475 785l-143 140l-144 -140h-28l164 160h16l164 -160h-29z" />
    <glyph glyph-name="Adieresis" unicode="&#xc4;" horiz-adv-x="664" 
d="M319 700h26l304 -700h-22l-100 230h-391l-100 -230h-21zM519 249l-187 432v0l-188 -432h375zM257 945h27l-9 -160h-9zM381 945h27l-9 -160h-9z" />
    <glyph glyph-name="Agrave" unicode="&#xc0;" horiz-adv-x="664" 
d="M319 700h26l304 -700h-22l-100 230h-391l-100 -230h-21zM519 249l-187 432v0l-188 -432h375zM311 785l-67 160h22l66 -160h-21z" />
    <glyph glyph-name="Amacron" unicode="&#x100;" horiz-adv-x="664" 
d="M319 700h26l304 -700h-22l-100 230h-391l-100 -230h-21zM519 249l-187 432v0l-188 -432h375zM492 880v-20h-320v20h320z" />
    <glyph glyph-name="Aogonek" unicode="&#x104;" horiz-adv-x="664" 
d="M319 700h26l304 -700h-22l-100 230h-391l-100 -230h-21zM519 249l-187 432v0l-188 -432h375zM584 -245h-22l67 160h21z" />
    <glyph glyph-name="Aring" unicode="&#xc5;" horiz-adv-x="664" 
d="M319 700h26l304 -700h-22l-100 230h-391l-100 -230h-21zM519 249l-187 432v0l-188 -432h375zM332 785q-33 0 -60.5 16t-43.5 43.5t-16 60.5t16 60.5t43.5 43.5t60.5 16q32 0 60 -16t44 -44t16 -60t-16 -60t-44 -44t-60 -16zM332 805q27 0 50 13.5t36.5 36.5t13.5 50
t-13.5 50t-36.5 36.5t-50 13.5q-28 0 -50.5 -13.5t-36 -36t-13.5 -50.5t13.5 -50.5t36 -36t50.5 -13.5z" />
    <glyph glyph-name="Atilde" unicode="&#xc3;" horiz-adv-x="664" 
d="M319 700h26l304 -700h-22l-100 230h-391l-100 -230h-21zM519 249l-187 432v0l-188 -432h375zM147 834q0 29 25.5 50.5t59.5 21.5q26 0 48.5 -7t54.5 -20q34 -13 54 -19t43 -6q26 0 45.5 16t19.5 36h20q0 -29 -25.5 -50.5t-59.5 -21.5q-26 0 -48.5 7t-54.5 20
q-34 13 -54 19t-43 6q-26 0 -45.5 -16t-19.5 -36h-20z" />
    <glyph glyph-name="AE" unicode="&#xc6;" horiz-adv-x="1014" 
d="M319 700h26l304 -700h-22l-100 230h-391l-100 -230h-21zM519 249l-187 432v0l-188 -432h375zM984 20v-20h-350v20h350zM848 360v-20h-362v20h362zM934 700v-20h-595v20h595z" />
    <glyph glyph-name="B" unicode="B" horiz-adv-x="697" 
d="M140 700h236q106 0 166.5 -48t60.5 -132q0 -63 -35 -105.5t-102 -59.5v-4q81 -13 123.5 -57.5t42.5 -113.5q0 -56 -27.5 -96.5t-78.5 -62t-121 -21.5h-265v700zM405 20q98 0 152.5 42.5t54.5 117.5t-55.5 117.5t-151.5 42.5h-245v-320h245zM376 360q98 0 152.5 42.5
t54.5 117.5t-54.5 117.5t-152.5 42.5h-216v-320h216z" />
    <glyph glyph-name="C" unicode="C" horiz-adv-x="828" 
d="M428 -15q-103 0 -184.5 46.5t-127.5 129.5t-46 189t46 189t127.5 129.5t184.5 46.5q89 0 160 -34.5t116.5 -97.5t58.5 -148h-20q-13 79 -55.5 137.5t-109 90.5t-150.5 32q-98 0 -175 -43.5t-120 -122t-43 -179.5q0 -100 43 -178.5t120 -122.5t175 -44q84 0 150.5 32
t109 90.5t55.5 137.5h20q-13 -85 -58.5 -148t-116.5 -97.5t-160 -34.5z" />
    <glyph glyph-name="Cacute" unicode="&#x106;" horiz-adv-x="828" 
d="M428 -15q-103 0 -184.5 46.5t-127.5 129.5t-46 189t46 189t127.5 129.5t184.5 46.5q89 0 160 -34.5t116.5 -97.5t58.5 -148h-20q-13 79 -55.5 137.5t-109 90.5t-150.5 32q-98 0 -175 -43.5t-120 -122t-43 -179.5q0 -100 43 -178.5t120 -122.5t175 -44q84 0 150.5 32
t109 90.5t55.5 137.5h20q-13 -85 -58.5 -148t-116.5 -97.5t-160 -34.5zM494 945h22l-67 -160h-21z" />
    <glyph glyph-name="Ccaron" unicode="&#x10c;" horiz-adv-x="828" 
d="M428 -15q-103 0 -184.5 46.5t-127.5 129.5t-46 189t46 189t127.5 129.5t184.5 46.5q89 0 160 -34.5t116.5 -97.5t58.5 -148h-20q-13 79 -55.5 137.5t-109 90.5t-150.5 32q-98 0 -175 -43.5t-120 -122t-43 -179.5q0 -100 43 -178.5t120 -122.5t175 -44q84 0 150.5 32
t109 90.5t55.5 137.5h20q-13 -85 -58.5 -148t-116.5 -97.5t-160 -34.5zM285 945l143 -140l144 140h28l-164 -160h-16l-164 160h29z" />
    <glyph glyph-name="Ccedilla" unicode="&#xc7;" horiz-adv-x="828" 
d="M428 -15q-103 0 -184.5 46.5t-127.5 129.5t-46 189t46 189t127.5 129.5t184.5 46.5q89 0 160 -34.5t116.5 -97.5t58.5 -148h-20q-13 79 -55.5 137.5t-109 90.5t-150.5 32q-98 0 -175 -43.5t-120 -122t-43 -179.5q0 -100 43 -178.5t120 -122.5t175 -44q84 0 150.5 32
t109 90.5t55.5 137.5h20q-13 -85 -58.5 -148t-116.5 -97.5t-160 -34.5zM372 -245h-22l67 160h21z" />
    <glyph glyph-name="Cdotaccent" unicode="&#x10a;" horiz-adv-x="828" 
d="M428 -15q-103 0 -184.5 46.5t-127.5 129.5t-46 189t46 189t127.5 129.5t184.5 46.5q89 0 160 -34.5t116.5 -97.5t58.5 -148h-20q-13 79 -55.5 137.5t-109 90.5t-150.5 32q-98 0 -175 -43.5t-120 -122t-43 -179.5q0 -100 43 -178.5t120 -122.5t175 -44q84 0 150.5 32
t109 90.5t55.5 137.5h20q-13 -85 -58.5 -148t-116.5 -97.5t-160 -34.5zM413 945h30l-10 -160h-10z" />
    <glyph glyph-name="D" unicode="D" horiz-adv-x="770" 
d="M140 700h195q107 0 190 -44.5t129 -124t46 -181.5t-46 -181.5t-129 -124t-190 -44.5h-195v700zM335 20q101 0 179.5 41.5t122 116.5t43.5 172t-43.5 172t-122 116.5t-179.5 41.5h-175v-660h175z" />
    <glyph glyph-name="Eth" unicode="&#xd0;" horiz-adv-x="770" 
d="M335 700q107 0 190 -44.5t129 -124t46 -181.5t-46 -181.5t-129 -124t-190 -44.5h-195v340h-85v20h85v340h195zM335 20q101 0 179.5 41.5t122 116.5t43.5 172t-43.5 172t-122 116.5t-179.5 41.5h-175v-320h180v-20h-180v-320h175z" />
    <glyph glyph-name="Dcaron" unicode="&#x10e;" horiz-adv-x="770" 
d="M140 700h195q107 0 190 -44.5t129 -124t46 -181.5t-46 -181.5t-129 -124t-190 -44.5h-195v700zM335 20q101 0 179.5 41.5t122 116.5t43.5 172t-43.5 172t-122 116.5t-179.5 41.5h-175v-660h175zM190 945l143 -140l144 140h28l-164 -160h-16l-164 160h29z" />
    <glyph glyph-name="Dcroat" unicode="&#x110;" horiz-adv-x="770" 
d="M335 700q107 0 190 -44.5t129 -124t46 -181.5t-46 -181.5t-129 -124t-190 -44.5h-195v340h-85v20h85v340h195zM335 20q101 0 179.5 41.5t122 116.5t43.5 172t-43.5 172t-122 116.5t-179.5 41.5h-175v-320h180v-20h-180v-320h175z" />
    <glyph glyph-name="E" unicode="E" horiz-adv-x="590" 
d="M140 700h370v-20h-350v-320h264v-20h-264v-320h400v-20h-420v700z" />
    <glyph glyph-name="Eacute" unicode="&#xc9;" horiz-adv-x="590" 
d="M140 700h370v-20h-350v-320h264v-20h-264v-320h400v-20h-420v700zM392 945h22l-67 -160h-21z" />
    <glyph glyph-name="Ecaron" unicode="&#x11a;" horiz-adv-x="590" 
d="M140 700h370v-20h-350v-320h264v-20h-264v-320h400v-20h-420v700zM183 945l143 -140l144 140h28l-164 -160h-16l-164 160h29z" />
    <glyph glyph-name="Ecircumflex" unicode="&#xca;" horiz-adv-x="590" 
d="M140 700h370v-20h-350v-320h264v-20h-264v-320h400v-20h-420v700zM469 785l-143 140l-144 -140h-28l164 160h16l164 -160h-29z" />
    <glyph glyph-name="Edieresis" unicode="&#xcb;" horiz-adv-x="590" 
d="M140 700h370v-20h-350v-320h264v-20h-264v-320h400v-20h-420v700zM251 945h27l-9 -160h-9zM375 945h27l-9 -160h-9z" />
    <glyph glyph-name="Edotaccent" unicode="&#x116;" horiz-adv-x="590" 
d="M140 700h370v-20h-350v-320h264v-20h-264v-320h400v-20h-420v700zM311 945h30l-10 -160h-10z" />
    <glyph glyph-name="Egrave" unicode="&#xc8;" horiz-adv-x="590" 
d="M140 700h370v-20h-350v-320h264v-20h-264v-320h400v-20h-420v700zM305 785l-67 160h22l66 -160h-21z" />
    <glyph glyph-name="Emacron" unicode="&#x112;" horiz-adv-x="590" 
d="M140 700h370v-20h-350v-320h264v-20h-264v-320h400v-20h-420v700zM486 880v-20h-320v20h320z" />
    <glyph glyph-name="Eogonek" unicode="&#x118;" horiz-adv-x="590" 
d="M140 700h370v-20h-350v-320h264v-20h-264v-320h400v-20h-420v700zM495 -245h-22l67 160h21z" />
    <glyph glyph-name="F" unicode="F" horiz-adv-x="535" 
d="M140 700h390v-20h-370v-320h284v-20h-284v-340h-20v700z" />
    <glyph glyph-name="G" unicode="G" horiz-adv-x="850" 
d="M428 -15q-103 0 -184.5 46.5t-127.5 129.5t-46 189t46 189t127.5 129.5t184.5 46.5q87 0 157 -33t116 -94t61 -143h-21q-22 115 -106 182.5t-207 67.5q-98 0 -175 -43.5t-120 -122t-43 -179.5q0 -100 43 -178.5t120 -122.5t175 -44q91 0 164 40.5t114 112t41 162.5v20
h-301v20h321v-360h-20v209q-32 -104 -117.5 -164t-201.5 -60z" />
    <glyph glyph-name="Gbreve" unicode="&#x11e;" horiz-adv-x="850" 
d="M428 -15q-103 0 -184.5 46.5t-127.5 129.5t-46 189t46 189t127.5 129.5t184.5 46.5q87 0 157 -33t116 -94t61 -143h-21q-22 115 -106 182.5t-207 67.5q-98 0 -175 -43.5t-120 -122t-43 -179.5q0 -100 43 -178.5t120 -122.5t175 -44q91 0 164 40.5t114 112t41 162.5v20
h-301v20h321v-360h-20v209q-32 -104 -117.5 -164t-201.5 -60zM428 785q-51 0 -89.5 19t-59.5 53t-21 80v8h20v-8q0 -61 40 -96.5t110 -35.5t110 35.5t40 96.5v8h20v-8q0 -46 -21 -80t-59.5 -53t-89.5 -19z" />
    <glyph glyph-name="uni0122" unicode="&#x122;" horiz-adv-x="850" 
d="M428 -15q-103 0 -184.5 46.5t-127.5 129.5t-46 189t46 189t127.5 129.5t184.5 46.5q87 0 157 -33t116 -94t61 -143h-21q-22 115 -106 182.5t-207 67.5q-98 0 -175 -43.5t-120 -122t-43 -179.5q0 -100 43 -178.5t120 -122.5t175 -44q91 0 164 40.5t114 112t41 162.5v20
h-301v20h321v-360h-20v209q-32 -104 -117.5 -164t-201.5 -60zM416 -245v0q20 29 32.5 57.5t13.5 54.5h-2.5h-2.5q-11 0 -17.5 6.5t-6.5 17.5q0 10 7 17.5t18 7.5t18 -8t7 -21q0 -30 -15 -70.5t-32 -61.5h-20z" />
    <glyph glyph-name="Gdotaccent" unicode="&#x120;" horiz-adv-x="850" 
d="M428 -15q-103 0 -184.5 46.5t-127.5 129.5t-46 189t46 189t127.5 129.5t184.5 46.5q87 0 157 -33t116 -94t61 -143h-21q-22 115 -106 182.5t-207 67.5q-98 0 -175 -43.5t-120 -122t-43 -179.5q0 -100 43 -178.5t120 -122.5t175 -44q91 0 164 40.5t114 112t41 162.5v20
h-301v20h321v-360h-20v209q-32 -104 -117.5 -164t-201.5 -60zM413 945h30l-10 -160h-10z" />
    <glyph glyph-name="H" unicode="H" horiz-adv-x="820" 
d="M140 700h20v-340h500v340h20v-700h-20v340h-500v-340h-20v700z" />
    <glyph glyph-name="Hbar" unicode="&#x126;" horiz-adv-x="820" 
d="M760 540h-80v-540h-20v340h-500v-340h-20v540h-80v20h80v140h20v-140h500v140h20v-140h80v-20zM660 540h-500v-180h500v180z" />
    <glyph glyph-name="I" unicode="I" horiz-adv-x="300" 
d="M140 700h20v-700h-20v700z" />
    <glyph glyph-name="Iacute" unicode="&#xcd;" horiz-adv-x="300" 
d="M140 700h20v-700h-20v700zM216 945h22l-67 -160h-21z" />
    <glyph glyph-name="Icircumflex" unicode="&#xce;" horiz-adv-x="300" 
d="M140 700h20v-700h-20v700zM293 785l-143 140l-144 -140h-28l164 160h16l164 -160h-29z" />
    <glyph glyph-name="Idieresis" unicode="&#xcf;" horiz-adv-x="300" 
d="M140 700h20v-700h-20v700zM75 945h27l-9 -160h-9zM199 945h27l-9 -160h-9z" />
    <glyph glyph-name="Idotaccent" unicode="&#x130;" horiz-adv-x="300" 
d="M140 700h20v-700h-20v700zM135 945h30l-10 -160h-10z" />
    <glyph glyph-name="Igrave" unicode="&#xcc;" horiz-adv-x="300" 
d="M140 700h20v-700h-20v700zM129 785l-67 160h22l66 -160h-21z" />
    <glyph glyph-name="Imacron" unicode="&#x12a;" horiz-adv-x="300" 
d="M140 700h20v-700h-20v700zM310 880v-20h-320v20h320z" />
    <glyph glyph-name="Iogonek" unicode="&#x12e;" horiz-adv-x="300" 
d="M140 700h20v-700h-20v700zM95 -245h-22l67 160h21z" />
    <glyph glyph-name="J" unicode="J" horiz-adv-x="618" 
d="M274 -15q-69 0 -122 31t-82.5 88t-29.5 132v34h20v-34q0 -70 27 -122t75.5 -80.5t111.5 -28.5q94 0 149 62.5t55 168.5v464h20v-464q0 -75 -27.5 -132t-78.5 -88t-118 -31z" />
    <glyph glyph-name="K" unicode="K" horiz-adv-x="664" 
d="M140 700h20v-340h142l296 340h26l-305 -350l305 -350h-27l-296 340h-141v-340h-20v700z" />
    <glyph glyph-name="uni0136" unicode="&#x136;" horiz-adv-x="664" 
d="M140 700h20v-340h142l296 340h26l-305 -350l305 -350h-27l-296 340h-141v-340h-20v700zM306 -245v0q20 29 32.5 57.5t13.5 54.5h-2.5h-2.5q-11 0 -17.5 6.5t-6.5 17.5q0 10 7 17.5t18 7.5t18 -8t7 -21q0 -30 -15 -70.5t-32 -61.5h-20z" />
    <glyph glyph-name="L" unicode="L" horiz-adv-x="590" 
d="M140 700h20v-680h390v-20h-410v700z" />
    <glyph glyph-name="Lacute" unicode="&#x139;" horiz-adv-x="590" 
d="M140 700h20v-680h390v-20h-410v700zM216 945h22l-67 -160h-21z" />
    <glyph glyph-name="Lcaron" unicode="&#x13d;" horiz-adv-x="590" 
d="M140 700h20v-680h390v-20h-410v700zM230 700h20l-2 -160h-18v160z" />
    <glyph glyph-name="uni013B" unicode="&#x13b;" horiz-adv-x="590" 
d="M140 700h20v-680h390v-20h-410v700zM306 -245v0q20 29 32.5 57.5t13.5 54.5h-2.5h-2.5q-11 0 -17.5 6.5t-6.5 17.5q0 10 7 17.5t18 7.5t18 -8t7 -21q0 -30 -15 -70.5t-32 -61.5h-20z" />
    <glyph glyph-name="Lslash" unicode="&#x141;" horiz-adv-x="590" 
d="M550 20v-20h-410v320l-85 -50v23l85 50v357h20v-345l180 106v-23l-180 -106v-312h390z" />
    <glyph glyph-name="M" unicode="M" horiz-adv-x="974" 
d="M140 700h32l316 -682l315 682h31v-700h-20v678l-314 -678h-26l-314 678v-678h-20v700z" />
    <glyph glyph-name="N" unicode="N" horiz-adv-x="840" 
d="M140 700h24l516 -672v672h20v-700h-23l-517 672v-672h-20v700z" />
    <glyph glyph-name="Nacute" unicode="&#x143;" horiz-adv-x="840" 
d="M140 700h24l516 -672v672h20v-700h-23l-517 672v-672h-20v700zM486 945h22l-67 -160h-21z" />
    <glyph glyph-name="Ncaron" unicode="&#x147;" horiz-adv-x="840" 
d="M140 700h24l516 -672v672h20v-700h-23l-517 672v-672h-20v700zM277 945l143 -140l144 140h28l-164 -160h-16l-164 160h29z" />
    <glyph glyph-name="uni0145" unicode="&#x145;" horiz-adv-x="840" 
d="M140 700h24l516 -672v672h20v-700h-23l-517 672v-672h-20v700zM378 -245v0q20 29 32.5 57.5t13.5 54.5h-2.5h-2.5q-11 0 -17.5 6.5t-6.5 17.5q0 10 7 17.5t18 7.5t18 -8t7 -21q0 -30 -15 -70.5t-32 -61.5h-20z" />
    <glyph glyph-name="Eng" unicode="&#x14a;" horiz-adv-x="840" 
d="M540 -210q-42 0 -76.5 14.5t-54 40.5t-19.5 58h20v-1q0 -26 17 -47t47 -33t66 -12q63 0 101.5 36.5t38.5 106.5q0 28 -5.5 43t-19.5 33l-495 643v-672h-20v700h24l516 -672v672h20v-748q0 -73 -43 -117.5t-117 -44.5z" />
    <glyph glyph-name="Ntilde" unicode="&#xd1;" horiz-adv-x="840" 
d="M140 700h24l516 -672v672h20v-700h-23l-517 672v-672h-20v700zM235 834q0 29 25.5 50.5t59.5 21.5q26 0 48.5 -7t54.5 -20q34 -13 54 -19t43 -6q26 0 45.5 16t19.5 36h20q0 -29 -25.5 -50.5t-59.5 -21.5q-26 0 -48.5 7t-54.5 20q-34 13 -54 19t-43 6q-26 0 -45.5 -16
t-19.5 -36h-20z" />
    <glyph glyph-name="O" unicode="O" horiz-adv-x="860" 
d="M430 -15q-102 0 -184 47.5t-129 131t-47 186.5t47 186.5t129 131t184 47.5t184 -47.5t129 -131t47 -186.5t-47 -186.5t-129 -131t-184 -47.5zM430 5q96 0 173.5 45t122 123.5t44.5 176.5t-44.5 176.5t-122 123.5t-173.5 45t-173.5 -45t-122 -123.5t-44.5 -176.5
t44.5 -176.5t122 -123.5t173.5 -45z" />
    <glyph glyph-name="Oacute" unicode="&#xd3;" horiz-adv-x="860" 
d="M430 -15q-102 0 -184 47.5t-129 131t-47 186.5t47 186.5t129 131t184 47.5t184 -47.5t129 -131t47 -186.5t-47 -186.5t-129 -131t-184 -47.5zM430 5q96 0 173.5 45t122 123.5t44.5 176.5t-44.5 176.5t-122 123.5t-173.5 45t-173.5 -45t-122 -123.5t-44.5 -176.5
t44.5 -176.5t122 -123.5t173.5 -45zM496 945h22l-67 -160h-21z" />
    <glyph glyph-name="Ocircumflex" unicode="&#xd4;" horiz-adv-x="860" 
d="M430 -15q-102 0 -184 47.5t-129 131t-47 186.5t47 186.5t129 131t184 47.5t184 -47.5t129 -131t47 -186.5t-47 -186.5t-129 -131t-184 -47.5zM430 5q96 0 173.5 45t122 123.5t44.5 176.5t-44.5 176.5t-122 123.5t-173.5 45t-173.5 -45t-122 -123.5t-44.5 -176.5
t44.5 -176.5t122 -123.5t173.5 -45zM573 785l-143 140l-144 -140h-28l164 160h16l164 -160h-29z" />
    <glyph glyph-name="Odieresis" unicode="&#xd6;" horiz-adv-x="860" 
d="M430 -15q-102 0 -184 47.5t-129 131t-47 186.5t47 186.5t129 131t184 47.5t184 -47.5t129 -131t47 -186.5t-47 -186.5t-129 -131t-184 -47.5zM430 5q96 0 173.5 45t122 123.5t44.5 176.5t-44.5 176.5t-122 123.5t-173.5 45t-173.5 -45t-122 -123.5t-44.5 -176.5
t44.5 -176.5t122 -123.5t173.5 -45zM355 945h27l-9 -160h-9zM479 945h27l-9 -160h-9z" />
    <glyph glyph-name="Ograve" unicode="&#xd2;" horiz-adv-x="860" 
d="M430 -15q-102 0 -184 47.5t-129 131t-47 186.5t47 186.5t129 131t184 47.5t184 -47.5t129 -131t47 -186.5t-47 -186.5t-129 -131t-184 -47.5zM430 5q96 0 173.5 45t122 123.5t44.5 176.5t-44.5 176.5t-122 123.5t-173.5 45t-173.5 -45t-122 -123.5t-44.5 -176.5
t44.5 -176.5t122 -123.5t173.5 -45zM409 785l-67 160h22l66 -160h-21z" />
    <glyph glyph-name="Ohungarumlaut" unicode="&#x150;" horiz-adv-x="860" 
d="M430 -15q-102 0 -184 47.5t-129 131t-47 186.5t47 186.5t129 131t184 47.5t184 -47.5t129 -131t47 -186.5t-47 -186.5t-129 -131t-184 -47.5zM430 5q96 0 173.5 45t122 123.5t44.5 176.5t-44.5 176.5t-122 123.5t-173.5 45t-173.5 -45t-122 -123.5t-44.5 -176.5
t44.5 -176.5t122 -123.5t173.5 -45zM407.408 945h19.7998l-60.2979 -160h-18.8994zM528.408 945h19.7998l-60.2979 -160h-18.8994z" />
    <glyph glyph-name="Omacron" unicode="&#x14c;" horiz-adv-x="860" 
d="M430 -15q-102 0 -184 47.5t-129 131t-47 186.5t47 186.5t129 131t184 47.5t184 -47.5t129 -131t47 -186.5t-47 -186.5t-129 -131t-184 -47.5zM430 5q96 0 173.5 45t122 123.5t44.5 176.5t-44.5 176.5t-122 123.5t-173.5 45t-173.5 -45t-122 -123.5t-44.5 -176.5
t44.5 -176.5t122 -123.5t173.5 -45zM590 880v-20h-320v20h320z" />
    <glyph glyph-name="Oslash" unicode="&#xd8;" horiz-adv-x="860" 
d="M430 -15q-72 0 -135 24.5t-111 68.5l-75 -78h-27l88 92q-48 49 -74 115.5t-26 142.5q0 103 47 186.5t129 131t184 47.5q72 0 135 -24.5t112 -69.5l75 79h27l-89 -92q48 -49 74 -115.5t26 -142.5q0 -103 -47 -186.5t-129 -131t-184 -47.5zM663 607q-46 42 -105.5 65
t-127.5 23q-96 0 -173.5 -45t-122 -123.5t-44.5 -176.5q0 -72 24.5 -134.5t69.5 -109.5zM430 5q96 0 173.5 45t122 123.5t44.5 176.5q0 72 -24.5 134t-68.5 109l-479 -500q45 -42 104.5 -65t127.5 -23z" />
    <glyph glyph-name="Otilde" unicode="&#xd5;" horiz-adv-x="860" 
d="M430 -15q-102 0 -184 47.5t-129 131t-47 186.5t47 186.5t129 131t184 47.5t184 -47.5t129 -131t47 -186.5t-47 -186.5t-129 -131t-184 -47.5zM430 5q96 0 173.5 45t122 123.5t44.5 176.5t-44.5 176.5t-122 123.5t-173.5 45t-173.5 -45t-122 -123.5t-44.5 -176.5
t44.5 -176.5t122 -123.5t173.5 -45zM245 834q0 29 25.5 50.5t59.5 21.5q26 0 48.5 -7t54.5 -20q34 -13 54 -19t43 -6q26 0 45.5 16t19.5 36h20q0 -29 -25.5 -50.5t-59.5 -21.5q-26 0 -48.5 7t-54.5 20q-34 13 -54 19t-43 6q-26 0 -45.5 -16t-19.5 -36h-20z" />
    <glyph glyph-name="OE" unicode="&#x152;" horiz-adv-x="1030" 
d="M435 0q-107 0 -190 44.5t-129 124t-46 181.5t46 181.5t129 124t190 44.5h515v-20h-350v-320h274v-20h-274v-320h400v-20h-565zM580 20v660h-145q-101 0 -179.5 -41.5t-122 -116.5t-43.5 -172t43.5 -172t122 -116.5t179.5 -41.5h145z" />
    <glyph glyph-name="P" unicode="P" horiz-adv-x="630" 
d="M140 700h177q118 0 185.5 -53.5t67.5 -146.5t-67.5 -146.5t-185.5 -53.5h-157v-300h-20v700zM317 320q110 0 171.5 48t61.5 132t-61.5 132t-171.5 48h-157v-360h157z" />
    <glyph glyph-name="Thorn" unicode="&#xde;" horiz-adv-x="630" 
d="M140 700h20v-145h157q78 0 135 -24t87.5 -69t30.5 -107t-30.5 -107t-87.5 -69t-135 -24h-157v-155h-20v700zM317 175q110 0 171.5 48t61.5 132t-61.5 132t-171.5 48h-157v-360h157z" />
    <glyph glyph-name="Q" unicode="Q" horiz-adv-x="860" 
d="M420 -15q-99 2 -179 50.5t-125.5 130.5t-45.5 184q0 103 47 186.5t129 131t184 47.5t184 -47.5t129 -131t47 -186.5q0 -102 -45.5 -184t-125.5 -130.5t-179 -50.5v-185h-20v185zM430 5q96 0 173.5 45t122 123.5t44.5 176.5t-44.5 176.5t-122 123.5t-173.5 45t-173.5 -45
t-122 -123.5t-44.5 -176.5t44.5 -176.5t122 -123.5t173.5 -45z" />
    <glyph glyph-name="R" unicode="R" horiz-adv-x="659" 
d="M140 700h177q118 0 185.5 -53.5t67.5 -146.5q0 -81 -52 -132.5t-144 -63.5l265 -304h-27l-263 301q-8 -1 -16 -1h-16h-157v-300h-20v700zM317 320q110 0 171.5 48t61.5 132t-61.5 132t-171.5 48h-157v-360h157z" />
    <glyph glyph-name="Racute" unicode="&#x154;" horiz-adv-x="659" 
d="M140 700h177q118 0 185.5 -53.5t67.5 -146.5q0 -81 -52 -132.5t-144 -63.5l265 -304h-27l-263 301q-8 -1 -16 -1h-16h-157v-300h-20v700zM317 320q110 0 171.5 48t61.5 132t-61.5 132t-171.5 48h-157v-360h157zM384 945h22l-67 -160h-21z" />
    <glyph glyph-name="Rcaron" unicode="&#x158;" horiz-adv-x="659" 
d="M140 700h177q118 0 185.5 -53.5t67.5 -146.5q0 -81 -52 -132.5t-144 -63.5l265 -304h-27l-263 301q-8 -1 -16 -1h-16h-157v-300h-20v700zM317 320q110 0 171.5 48t61.5 132t-61.5 132t-171.5 48h-157v-360h157zM175 945l143 -140l144 140h28l-164 -160h-16l-164 160h29z
" />
    <glyph glyph-name="uni0156" unicode="&#x156;" horiz-adv-x="659" 
d="M140 700h177q118 0 185.5 -53.5t67.5 -146.5q0 -81 -52 -132.5t-144 -63.5l265 -304h-27l-263 301q-8 -1 -16 -1h-16h-157v-300h-20v700zM317 320q110 0 171.5 48t61.5 132t-61.5 132t-171.5 48h-157v-360h157zM306 -245v0q20 29 32.5 57.5t13.5 54.5h-2.5h-2.5
q-11 0 -17.5 6.5t-6.5 17.5q0 10 7 17.5t18 7.5t18 -8t7 -21q0 -30 -15 -70.5t-32 -61.5h-20z" />
    <glyph glyph-name="S" unicode="S" horiz-adv-x="640" 
d="M336 -15q-81 0 -144 30t-100.5 84t-46.5 125h19q10 -66 45 -115.5t93 -76.5t134 -27q109 0 169.5 43.5t60.5 122.5q0 58 -33 92t-83 49.5t-127 28.5h-1q-81 13 -133 29t-88.5 52t-36.5 100q0 58 31 102t86.5 67.5t128.5 23.5q76 0 134 -28.5t93.5 -81.5t42.5 -125h-20
q-12 101 -78.5 158t-171.5 57q-67 0 -118 -21t-79.5 -60.5t-28.5 -91.5q0 -54 31 -85t77.5 -45.5t120.5 -27.5q2 -1 5 -1t5 -1t4 -1t4 -1q84 -15 134.5 -31.5t85.5 -54t35 -103.5q0 -59 -30 -100.5t-86 -63.5t-134 -22z" />
    <glyph glyph-name="Sacute" unicode="&#x15a;" horiz-adv-x="640" 
d="M336 -15q-81 0 -144 30t-100.5 84t-46.5 125h19q10 -66 45 -115.5t93 -76.5t134 -27q109 0 169.5 43.5t60.5 122.5q0 58 -33 92t-83 49.5t-127 28.5h-1q-81 13 -133 29t-88.5 52t-36.5 100q0 58 31 102t86.5 67.5t128.5 23.5q76 0 134 -28.5t93.5 -81.5t42.5 -125h-20
q-12 101 -78.5 158t-171.5 57q-67 0 -118 -21t-79.5 -60.5t-28.5 -91.5q0 -54 31 -85t77.5 -45.5t120.5 -27.5q2 -1 5 -1t5 -1t4 -1t4 -1q84 -15 134.5 -31.5t85.5 -54t35 -103.5q0 -59 -30 -100.5t-86 -63.5t-134 -22zM377 945h22l-67 -160h-21z" />
    <glyph glyph-name="Scaron" unicode="&#x160;" horiz-adv-x="640" 
d="M336 -15q-81 0 -144 30t-100.5 84t-46.5 125h19q10 -66 45 -115.5t93 -76.5t134 -27q109 0 169.5 43.5t60.5 122.5q0 58 -33 92t-83 49.5t-127 28.5h-1q-81 13 -133 29t-88.5 52t-36.5 100q0 58 31 102t86.5 67.5t128.5 23.5q76 0 134 -28.5t93.5 -81.5t42.5 -125h-20
q-12 101 -78.5 158t-171.5 57q-67 0 -118 -21t-79.5 -60.5t-28.5 -91.5q0 -54 31 -85t77.5 -45.5t120.5 -27.5q2 -1 5 -1t5 -1t4 -1t4 -1q84 -15 134.5 -31.5t85.5 -54t35 -103.5q0 -59 -30 -100.5t-86 -63.5t-134 -22zM168 945l143 -140l144 140h28l-164 -160h-16l-164 160
h29z" />
    <glyph glyph-name="Scedilla" unicode="&#x15e;" horiz-adv-x="640" 
d="M336 -15q-81 0 -144 30t-100.5 84t-46.5 125h19q10 -66 45 -115.5t93 -76.5t134 -27q109 0 169.5 43.5t60.5 122.5q0 58 -33 92t-83 49.5t-127 28.5h-1q-81 13 -133 29t-88.5 52t-36.5 100q0 58 31 102t86.5 67.5t128.5 23.5q76 0 134 -28.5t93.5 -81.5t42.5 -125h-20
q-12 101 -78.5 158t-171.5 57q-67 0 -118 -21t-79.5 -60.5t-28.5 -91.5q0 -54 31 -85t77.5 -45.5t120.5 -27.5q2 -1 5 -1t5 -1t4 -1t4 -1q84 -15 134.5 -31.5t85.5 -54t35 -103.5q0 -59 -30 -100.5t-86 -63.5t-134 -22zM265 -245h-22l67 160h21z" />
    <glyph glyph-name="uni0218" unicode="&#x218;" horiz-adv-x="640" 
d="M336 -15q-81 0 -144 30t-100.5 84t-46.5 125h19q10 -66 45 -115.5t93 -76.5t134 -27q109 0 169.5 43.5t60.5 122.5q0 58 -33 92t-83 49.5t-127 28.5h-1q-81 13 -133 29t-88.5 52t-36.5 100q0 58 31 102t86.5 67.5t128.5 23.5q76 0 134 -28.5t93.5 -81.5t42.5 -125h-20
q-12 101 -78.5 158t-171.5 57q-67 0 -118 -21t-79.5 -60.5t-28.5 -91.5q0 -54 31 -85t77.5 -45.5t120.5 -27.5q2 -1 5 -1t5 -1t4 -1t4 -1q84 -15 134.5 -31.5t85.5 -54t35 -103.5q0 -59 -30 -100.5t-86 -63.5t-134 -22zM279 -245v0q20 29 32.5 57.5t13.5 54.5h-2.5h-2.5
q-11 0 -17.5 6.5t-6.5 17.5q0 10 7 17.5t18 7.5t18 -8t7 -21q0 -30 -15 -70.5t-32 -61.5h-20z" />
    <glyph glyph-name="uni1E9E" unicode="&#x1e9e;" horiz-adv-x="838" 
d="M524 -15q-72 0 -130 27.5t-91 76.5t-33 110h20q0 -56 30.5 -100t83.5 -69t120 -25t120 26t83.5 72.5t30.5 104.5q0 85 -52 136.5t-138 51.5q-36 0 -71 -9.5t-57 -25.5l-11 -8l-13 15l301 312h-557v-680h-20v700h599v-26l-273 -282q25 12 51 18t52 6q61 0 108.5 -26
t74 -73t26.5 -107q0 -64 -33 -115.5t-90.5 -80.5t-130.5 -29z" />
    <glyph glyph-name="T" unicode="T" horiz-adv-x="640" 
d="M310 680h-290v20h600v-20h-290v-680h-20v680z" />
    <glyph glyph-name="Tbar" unicode="&#x166;" horiz-adv-x="640" 
d="M330 680v-320h155v-20h-155v-340h-20v340h-155v20h155v320h-290v20h600v-20h-290z" />
    <glyph glyph-name="Tcaron" unicode="&#x164;" horiz-adv-x="640" 
d="M310 680h-290v20h600v-20h-290v-680h-20v680zM177 945l143 -140l144 140h28l-164 -160h-16l-164 160h29z" />
    <glyph glyph-name="uni0162" unicode="&#x162;" horiz-adv-x="640" 
d="M310 680h-290v20h600v-20h-290v-680h-20v680zM264 -245h-22l67 160h21z" />
    <glyph glyph-name="uni021A" unicode="&#x21a;" horiz-adv-x="640" 
d="M310 680h-290v20h600v-20h-290v-680h-20v680zM278 -245v0q20 29 32.5 57.5t13.5 54.5h-2.5h-2.5q-11 0 -17.5 6.5t-6.5 17.5q0 10 7 17.5t18 7.5t18 -8t7 -21q0 -30 -15 -70.5t-32 -61.5h-20z" />
    <glyph glyph-name="U" unicode="U" horiz-adv-x="820" 
d="M410 -15q-87 0 -152.5 38.5t-101.5 108.5t-36 164v404h20v-404q0 -88 33 -154t94 -101.5t143 -35.5t143 35.5t94 101.5t33 154v404h20v-404q0 -94 -36 -164t-101.5 -108.5t-152.5 -38.5z" />
    <glyph glyph-name="Uacute" unicode="&#xda;" horiz-adv-x="820" 
d="M410 -15q-87 0 -152.5 38.5t-101.5 108.5t-36 164v404h20v-404q0 -88 33 -154t94 -101.5t143 -35.5t143 35.5t94 101.5t33 154v404h20v-404q0 -94 -36 -164t-101.5 -108.5t-152.5 -38.5zM476 945h22l-67 -160h-21z" />
    <glyph glyph-name="Ucircumflex" unicode="&#xdb;" horiz-adv-x="820" 
d="M410 -15q-87 0 -152.5 38.5t-101.5 108.5t-36 164v404h20v-404q0 -88 33 -154t94 -101.5t143 -35.5t143 35.5t94 101.5t33 154v404h20v-404q0 -94 -36 -164t-101.5 -108.5t-152.5 -38.5zM553 785l-143 140l-144 -140h-28l164 160h16l164 -160h-29z" />
    <glyph glyph-name="Udieresis" unicode="&#xdc;" horiz-adv-x="820" 
d="M410 -15q-87 0 -152.5 38.5t-101.5 108.5t-36 164v404h20v-404q0 -88 33 -154t94 -101.5t143 -35.5t143 35.5t94 101.5t33 154v404h20v-404q0 -94 -36 -164t-101.5 -108.5t-152.5 -38.5zM335 945h27l-9 -160h-9zM459 945h27l-9 -160h-9z" />
    <glyph glyph-name="Ugrave" unicode="&#xd9;" horiz-adv-x="820" 
d="M410 -15q-87 0 -152.5 38.5t-101.5 108.5t-36 164v404h20v-404q0 -88 33 -154t94 -101.5t143 -35.5t143 35.5t94 101.5t33 154v404h20v-404q0 -94 -36 -164t-101.5 -108.5t-152.5 -38.5zM389 785l-67 160h22l66 -160h-21z" />
    <glyph glyph-name="Uhungarumlaut" unicode="&#x170;" horiz-adv-x="820" 
d="M410 -15q-87 0 -152.5 38.5t-101.5 108.5t-36 164v404h20v-404q0 -88 33 -154t94 -101.5t143 -35.5t143 35.5t94 101.5t33 154v404h20v-404q0 -94 -36 -164t-101.5 -108.5t-152.5 -38.5zM387.408 945h19.7998l-60.2979 -160h-18.8994zM508.408 945h19.7998l-60.2979 -160
h-18.8994z" />
    <glyph glyph-name="Umacron" unicode="&#x16a;" horiz-adv-x="820" 
d="M410 -15q-87 0 -152.5 38.5t-101.5 108.5t-36 164v404h20v-404q0 -88 33 -154t94 -101.5t143 -35.5t143 35.5t94 101.5t33 154v404h20v-404q0 -94 -36 -164t-101.5 -108.5t-152.5 -38.5zM570 880v-20h-320v20h320z" />
    <glyph glyph-name="Uogonek" unicode="&#x172;" horiz-adv-x="820" 
d="M410 -15q-87 0 -152.5 38.5t-101.5 108.5t-36 164v404h20v-404q0 -88 33 -154t94 -101.5t143 -35.5t143 35.5t94 101.5t33 154v404h20v-404q0 -94 -36 -164t-101.5 -108.5t-152.5 -38.5zM615 -245h-22l67 160h21z" />
    <glyph glyph-name="Uring" unicode="&#x16e;" horiz-adv-x="820" 
d="M410 -15q-87 0 -152.5 38.5t-101.5 108.5t-36 164v404h20v-404q0 -88 33 -154t94 -101.5t143 -35.5t143 35.5t94 101.5t33 154v404h20v-404q0 -94 -36 -164t-101.5 -108.5t-152.5 -38.5zM410 785q-33 0 -60.5 16t-43.5 43.5t-16 60.5t16 60.5t43.5 43.5t60.5 16
q32 0 60 -16t44 -44t16 -60t-16 -60t-44 -44t-60 -16zM410 805q27 0 50 13.5t36.5 36.5t13.5 50t-13.5 50t-36.5 36.5t-50 13.5q-28 0 -50.5 -13.5t-36 -36t-13.5 -50.5t13.5 -50.5t36 -36t50.5 -13.5z" />
    <glyph glyph-name="V" unicode="V" horiz-adv-x="684" 
d="M25 700h22l294 -677h3l294 677h21l-304 -700h-26z" />
    <glyph glyph-name="W" unicode="W" horiz-adv-x="1022" 
d="M40 700h21l222 -680l218 680h21l218 -680l222 680h20l-229 -700h-28l-214 669l-214 -669h-28z" />
    <glyph glyph-name="Wacute" unicode="&#x1e82;" horiz-adv-x="1022" 
d="M40 700h21l222 -680l218 680h21l218 -680l222 680h20l-229 -700h-28l-214 669l-214 -669h-28zM577 945h22l-67 -160h-21z" />
    <glyph glyph-name="Wcircumflex" unicode="&#x174;" horiz-adv-x="1022" 
d="M40 700h21l222 -680l218 680h21l218 -680l222 680h20l-229 -700h-28l-214 669l-214 -669h-28zM654 785l-143 140l-144 -140h-28l164 160h16l164 -160h-29z" />
    <glyph glyph-name="Wdieresis" unicode="&#x1e84;" horiz-adv-x="1022" 
d="M40 700h21l222 -680l218 680h21l218 -680l222 680h20l-229 -700h-28l-214 669l-214 -669h-28zM436 945h27l-9 -160h-9zM560 945h27l-9 -160h-9z" />
    <glyph glyph-name="Wgrave" unicode="&#x1e80;" horiz-adv-x="1022" 
d="M40 700h21l222 -680l218 680h21l218 -680l222 680h20l-229 -700h-28l-214 669l-214 -669h-28zM490 785l-67 160h22l66 -160h-21z" />
    <glyph glyph-name="X" unicode="X" horiz-adv-x="660" 
d="M317 356l-282 344h26l269 -328l269 328h26l-282 -344l292 -356h-26l-279 340l-279 -340h-26z" />
    <glyph glyph-name="Y" unicode="Y" horiz-adv-x="646" 
d="M313 274l-308 426h25l294 -406l293 406h24l-308 -426v-274h-20v274z" />
    <glyph glyph-name="Yacute" unicode="&#xdd;" horiz-adv-x="646" 
d="M313 274l-308 426h25l294 -406l293 406h24l-308 -426v-274h-20v274zM389 945h22l-67 -160h-21z" />
    <glyph glyph-name="Ycircumflex" unicode="&#x176;" horiz-adv-x="646" 
d="M313 274l-308 426h25l294 -406l293 406h24l-308 -426v-274h-20v274zM466 785l-143 140l-144 -140h-28l164 160h16l164 -160h-29z" />
    <glyph glyph-name="Ydieresis" unicode="&#x178;" horiz-adv-x="646" 
d="M313 274l-308 426h25l294 -406l293 406h24l-308 -426v-274h-20v274zM248 945h27l-9 -160h-9zM372 945h27l-9 -160h-9z" />
    <glyph glyph-name="Ygrave" unicode="&#x1ef2;" horiz-adv-x="646" 
d="M313 274l-308 426h25l294 -406l293 406h24l-308 -426v-274h-20v274zM302 785l-67 160h22l66 -160h-21z" />
    <glyph glyph-name="Z" unicode="Z" horiz-adv-x="622" 
d="M50 20l504 660h-483v20h508v-20l-504 -660h507v-20h-532v20z" />
    <glyph glyph-name="Zacute" unicode="&#x179;" horiz-adv-x="622" 
d="M50 20l504 660h-483v20h508v-20l-504 -660h507v-20h-532v20zM399 945h22l-67 -160h-21z" />
    <glyph glyph-name="Zcaron" unicode="&#x17d;" horiz-adv-x="622" 
d="M50 20l504 660h-483v20h508v-20l-504 -660h507v-20h-532v20zM190 945l143 -140l144 140h28l-164 -160h-16l-164 160h29z" />
    <glyph glyph-name="Zdotaccent" unicode="&#x17b;" horiz-adv-x="622" 
d="M50 20l504 660h-483v20h508v-20l-504 -660h507v-20h-532v20zM318 945h30l-10 -160h-10z" />
    <glyph glyph-name="M.ss03" horiz-adv-x="1100" 
d="M960 0h-20v680h-380v-680h-20v680h-380v-680h-20v700h820v-700z" />
    <glyph glyph-name="N.ss03" horiz-adv-x="820" 
d="M140 700h540v-700h-20v680h-500v-680h-20v700z" />
    <glyph glyph-name="Nacute.ss03" horiz-adv-x="820" 
d="M140 700h540v-700h-20v680h-500v-680h-20v700zM476 945h22l-67 -160h-21z" />
    <glyph glyph-name="Ncaron.ss03" horiz-adv-x="820" 
d="M140 700h540v-700h-20v680h-500v-680h-20v700zM267 945l143 -140l144 140h28l-164 -160h-16l-164 160h29z" />
    <glyph glyph-name="uni0145.ss03" horiz-adv-x="820" 
d="M140 700h540v-700h-20v680h-500v-680h-20v700zM368 -245v0q20 29 32.5 57.5t13.5 54.5h-2.5h-2.5q-11 0 -17.5 6.5t-6.5 17.5q0 10 7 17.5t18 7.5t18 -8t7 -21q0 -30 -15 -70.5t-32 -61.5h-20z" />
    <glyph glyph-name="Eng.ss03" horiz-adv-x="820" 
d="M520 -210q-42 0 -76.5 14.5t-54 40.5t-19.5 58h20v-1q0 -26 17 -47t47 -33t66 -12q63 0 101.5 36.5t38.5 106.5v31.5v31.5v31.5v31v31.5v570h-500v-680h-20v700h540v-748q0 -73 -43 -117.5t-117 -44.5z" />
    <glyph glyph-name="Ntilde.ss03" horiz-adv-x="820" 
d="M140 700h540v-700h-20v680h-500v-680h-20v700zM225 834q0 29 25.5 50.5t59.5 21.5q26 0 48.5 -7t54.5 -20q34 -13 54 -19t43 -6q26 0 45.5 16t19.5 36h20q0 -29 -25.5 -50.5t-59.5 -21.5q-26 0 -48.5 7t-54.5 20q-34 13 -54 19t-43 6q-26 0 -45.5 -16t-19.5 -36h-20z" />
    <glyph glyph-name="S.ss03" horiz-adv-x="572" 
d="M30 20h487l-474 660v20h478v-20h-453l474 -660v-20h-512v20z" />
    <glyph glyph-name="Sacute.ss03" horiz-adv-x="572" 
d="M30 20h487l-474 660v20h478v-20h-453l474 -660v-20h-512v20zM362 945h22l-67 -160h-21z" />
    <glyph glyph-name="Scaron.ss03" horiz-adv-x="572" 
d="M30 20h487l-474 660v20h478v-20h-453l474 -660v-20h-512v20zM153 945l143 -140l144 140h28l-164 -160h-16l-164 160h29z" />
    <glyph glyph-name="Scedilla.ss03" horiz-adv-x="572" 
d="M30 20h487l-474 660v20h478v-20h-453l474 -660v-20h-512v20zM240 -245h-22l67 160h21z" />
    <glyph glyph-name="uni0218.ss03" horiz-adv-x="572" 
d="M30 20h487l-474 660v20h478v-20h-453l474 -660v-20h-512v20zM254 -245v0q20 29 32.5 57.5t13.5 54.5h-2.5h-2.5q-11 0 -17.5 6.5t-6.5 17.5q0 10 7 17.5t18 7.5t18 -8t7 -21q0 -30 -15 -70.5t-32 -61.5h-20z" />
    <glyph glyph-name="U.ss03" horiz-adv-x="820" 
d="M680 0h-540v700h20v-680h500v680h20v-700z" />
    <glyph glyph-name="Uacute.ss03" horiz-adv-x="820" 
d="M680 0h-540v700h20v-680h500v680h20v-700zM476 945h22l-67 -160h-21z" />
    <glyph glyph-name="Ucircumflex.ss03" horiz-adv-x="820" 
d="M680 0h-540v700h20v-680h500v680h20v-700zM553 785l-143 140l-144 -140h-28l164 160h16l164 -160h-29z" />
    <glyph glyph-name="Udieresis.ss03" horiz-adv-x="820" 
d="M680 0h-540v700h20v-680h500v680h20v-700zM335 945h27l-9 -160h-9zM459 945h27l-9 -160h-9z" />
    <glyph glyph-name="Ugrave.ss03" horiz-adv-x="820" 
d="M680 0h-540v700h20v-680h500v680h20v-700zM389 785l-67 160h22l66 -160h-21z" />
    <glyph glyph-name="Uhungarumlaut.ss03" horiz-adv-x="820" 
d="M680 0h-540v700h20v-680h500v680h20v-700zM387.408 945h19.7998l-60.2979 -160h-18.8994zM508.408 945h19.7998l-60.2979 -160h-18.8994z" />
    <glyph glyph-name="Umacron.ss03" horiz-adv-x="820" 
d="M680 0h-540v700h20v-680h500v680h20v-700zM570 880v-20h-320v20h320z" />
    <glyph glyph-name="Uogonek.ss03" horiz-adv-x="820" 
d="M680 0h-540v700h20v-680h500v680h20v-700zM615 -245h-22l67 160h21z" />
    <glyph glyph-name="Uring.ss03" horiz-adv-x="820" 
d="M680 0h-540v700h20v-680h500v680h20v-700zM410 785q-33 0 -60.5 16t-43.5 43.5t-16 60.5t16 60.5t43.5 43.5t60.5 16q32 0 60 -16t44 -44t16 -60t-16 -60t-44 -44t-60 -16zM410 805q27 0 50 13.5t36.5 36.5t13.5 50t-13.5 50t-36.5 36.5t-50 13.5q-28 0 -50.5 -13.5
t-36 -36t-13.5 -50.5t13.5 -50.5t36 -36t50.5 -13.5z" />
    <glyph glyph-name="W.ss03" horiz-adv-x="1100" 
d="M140 700h20v-680h380v680h20v-680h380v680h20v-700h-820v700z" />
    <glyph glyph-name="Wacute.ss03" horiz-adv-x="1100" 
d="M140 700h20v-680h380v680h20v-680h380v680h20v-700h-820v700zM616 945h22l-67 -160h-21z" />
    <glyph glyph-name="Wcircumflex.ss03" horiz-adv-x="1100" 
d="M140 700h20v-680h380v680h20v-680h380v680h20v-700h-820v700zM693 785l-143 140l-144 -140h-28l164 160h16l164 -160h-29z" />
    <glyph glyph-name="Wdieresis.ss03" horiz-adv-x="1100" 
d="M140 700h20v-680h380v680h20v-680h380v680h20v-700h-820v700zM475 945h27l-9 -160h-9zM599 945h27l-9 -160h-9z" />
    <glyph glyph-name="Wgrave.ss03" horiz-adv-x="1100" 
d="M140 700h20v-680h380v680h20v-680h380v680h20v-700h-820v700zM529 785l-67 160h22l66 -160h-21z" />
    <glyph glyph-name="a" unicode="a" horiz-adv-x="606" 
d="M220 -12q-78 0 -119 35t-41 94q0 57 39.5 89.5t95.5 45t128 17.5q70 4 106.5 14t36.5 35q0 76 -50.5 124t-130.5 48q-78 0 -128.5 -44t-64.5 -122h-20q9 57 37.5 99t73.5 64.5t102 22.5q60 0 105.5 -24.5t70.5 -69.5t25 -104v-292h80v-20h-99v145q-26 -71 -94 -114
t-153 -43zM220 8q70 0 126 30t88 81t32 112l1 50q-16 -13 -47 -20t-82 -10q-3 0 -6.5 -0.5t-7.5 -0.5q-128 -9 -186 -40.5t-58 -92.5q0 -52 37.5 -80.5t102.5 -28.5z" />
    <glyph glyph-name="aacute" unicode="&#xe1;" horiz-adv-x="606" 
d="M220 -12q-78 0 -119 35t-41 94q0 57 39.5 89.5t95.5 45t128 17.5q70 4 106.5 14t36.5 35q0 76 -50.5 124t-130.5 48q-78 0 -128.5 -44t-64.5 -122h-20q9 57 37.5 99t73.5 64.5t102 22.5q60 0 105.5 -24.5t70.5 -69.5t25 -104v-292h80v-20h-99v145q-26 -71 -94 -114
t-153 -43zM220 8q70 0 126 30t88 81t32 112l1 50q-16 -13 -47 -20t-82 -10q-3 0 -6.5 -0.5t-7.5 -0.5q-128 -9 -186 -40.5t-58 -92.5q0 -52 37.5 -80.5t102.5 -28.5zM351 745h22l-67 -160h-21z" />
    <glyph glyph-name="abreve" unicode="&#x103;" horiz-adv-x="606" 
d="M220 -12q-78 0 -119 35t-41 94q0 57 39.5 89.5t95.5 45t128 17.5q70 4 106.5 14t36.5 35q0 76 -50.5 124t-130.5 48q-78 0 -128.5 -44t-64.5 -122h-20q9 57 37.5 99t73.5 64.5t102 22.5q60 0 105.5 -24.5t70.5 -69.5t25 -104v-292h80v-20h-99v145q-26 -71 -94 -114
t-153 -43zM220 8q70 0 126 30t88 81t32 112l1 50q-16 -13 -47 -20t-82 -10q-3 0 -6.5 -0.5t-7.5 -0.5q-128 -9 -186 -40.5t-58 -92.5q0 -52 37.5 -80.5t102.5 -28.5zM285 585q-51 0 -89.5 19t-59.5 53t-21 80v8h20v-8q0 -61 40 -96.5t110 -35.5t110 35.5t40 96.5v8h20v-8
q0 -46 -21 -80t-59.5 -53t-89.5 -19z" />
    <glyph glyph-name="acircumflex" unicode="&#xe2;" horiz-adv-x="606" 
d="M220 -12q-78 0 -119 35t-41 94q0 57 39.5 89.5t95.5 45t128 17.5q70 4 106.5 14t36.5 35q0 76 -50.5 124t-130.5 48q-78 0 -128.5 -44t-64.5 -122h-20q9 57 37.5 99t73.5 64.5t102 22.5q60 0 105.5 -24.5t70.5 -69.5t25 -104v-292h80v-20h-99v145q-26 -71 -94 -114
t-153 -43zM220 8q70 0 126 30t88 81t32 112l1 50q-16 -13 -47 -20t-82 -10q-3 0 -6.5 -0.5t-7.5 -0.5q-128 -9 -186 -40.5t-58 -92.5q0 -52 37.5 -80.5t102.5 -28.5zM428 585l-143 140l-144 -140h-28l164 160h16l164 -160h-29z" />
    <glyph glyph-name="adieresis" unicode="&#xe4;" horiz-adv-x="606" 
d="M220 -12q-78 0 -119 35t-41 94q0 57 39.5 89.5t95.5 45t128 17.5q70 4 106.5 14t36.5 35q0 76 -50.5 124t-130.5 48q-78 0 -128.5 -44t-64.5 -122h-20q9 57 37.5 99t73.5 64.5t102 22.5q60 0 105.5 -24.5t70.5 -69.5t25 -104v-292h80v-20h-99v145q-26 -71 -94 -114
t-153 -43zM220 8q70 0 126 30t88 81t32 112l1 50q-16 -13 -47 -20t-82 -10q-3 0 -6.5 -0.5t-7.5 -0.5q-128 -9 -186 -40.5t-58 -92.5q0 -52 37.5 -80.5t102.5 -28.5zM210 745h27l-9 -160h-9zM334 745h27l-9 -160h-9z" />
    <glyph glyph-name="agrave" unicode="&#xe0;" horiz-adv-x="606" 
d="M220 -12q-78 0 -119 35t-41 94q0 57 39.5 89.5t95.5 45t128 17.5q70 4 106.5 14t36.5 35q0 76 -50.5 124t-130.5 48q-78 0 -128.5 -44t-64.5 -122h-20q9 57 37.5 99t73.5 64.5t102 22.5q60 0 105.5 -24.5t70.5 -69.5t25 -104v-292h80v-20h-99v145q-26 -71 -94 -114
t-153 -43zM220 8q70 0 126 30t88 81t32 112l1 50q-16 -13 -47 -20t-82 -10q-3 0 -6.5 -0.5t-7.5 -0.5q-128 -9 -186 -40.5t-58 -92.5q0 -52 37.5 -80.5t102.5 -28.5zM264 585l-67 160h22l66 -160h-21z" />
    <glyph glyph-name="amacron" unicode="&#x101;" horiz-adv-x="606" 
d="M220 -12q-78 0 -119 35t-41 94q0 57 39.5 89.5t95.5 45t128 17.5q70 4 106.5 14t36.5 35q0 76 -50.5 124t-130.5 48q-78 0 -128.5 -44t-64.5 -122h-20q9 57 37.5 99t73.5 64.5t102 22.5q60 0 105.5 -24.5t70.5 -69.5t25 -104v-292h80v-20h-99v145q-26 -71 -94 -114
t-153 -43zM220 8q70 0 126 30t88 81t32 112l1 50q-16 -13 -47 -20t-82 -10q-3 0 -6.5 -0.5t-7.5 -0.5q-128 -9 -186 -40.5t-58 -92.5q0 -52 37.5 -80.5t102.5 -28.5zM445 680v-20h-320v20h320z" />
    <glyph glyph-name="aogonek" unicode="&#x105;" horiz-adv-x="606" 
d="M220 -12q-78 0 -119 35t-41 94q0 57 39.5 89.5t95.5 45t128 17.5q70 4 106.5 14t36.5 35q0 76 -50.5 124t-130.5 48q-78 0 -128.5 -44t-64.5 -122h-20q9 57 37.5 99t73.5 64.5t102 22.5q60 0 105.5 -24.5t70.5 -69.5t25 -104v-292h80v-20h-99v145q-26 -71 -94 -114
t-153 -43zM220 8q70 0 126 30t88 81t32 112l1 50q-16 -13 -47 -20t-82 -10q-3 0 -6.5 -0.5t-7.5 -0.5q-128 -9 -186 -40.5t-58 -92.5q0 -52 37.5 -80.5t102.5 -28.5zM501 -245h-22l67 160h21z" />
    <glyph glyph-name="aring" unicode="&#xe5;" horiz-adv-x="606" 
d="M220 -12q-78 0 -119 35t-41 94q0 57 39.5 89.5t95.5 45t128 17.5q70 4 106.5 14t36.5 35q0 76 -50.5 124t-130.5 48q-78 0 -128.5 -44t-64.5 -122h-20q9 57 37.5 99t73.5 64.5t102 22.5q60 0 105.5 -24.5t70.5 -69.5t25 -104v-292h80v-20h-99v145q-26 -71 -94 -114
t-153 -43zM220 8q70 0 126 30t88 81t32 112l1 50q-16 -13 -47 -20t-82 -10q-3 0 -6.5 -0.5t-7.5 -0.5q-128 -9 -186 -40.5t-58 -92.5q0 -52 37.5 -80.5t102.5 -28.5zM285 585q-33 0 -60.5 16t-43.5 43.5t-16 60.5t16 60.5t43.5 43.5t60.5 16q32 0 60 -16t44 -44t16 -60
t-16 -60t-44 -44t-60 -16zM285 605q27 0 50 13.5t36.5 36.5t13.5 50t-13.5 50t-36.5 36.5t-50 13.5q-28 0 -50.5 -13.5t-36 -36t-13.5 -50.5t13.5 -50.5t36 -36t50.5 -13.5z" />
    <glyph glyph-name="atilde" unicode="&#xe3;" horiz-adv-x="606" 
d="M220 -12q-78 0 -119 35t-41 94q0 57 39.5 89.5t95.5 45t128 17.5q70 4 106.5 14t36.5 35q0 76 -50.5 124t-130.5 48q-78 0 -128.5 -44t-64.5 -122h-20q9 57 37.5 99t73.5 64.5t102 22.5q60 0 105.5 -24.5t70.5 -69.5t25 -104v-292h80v-20h-99v145q-26 -71 -94 -114
t-153 -43zM220 8q70 0 126 30t88 81t32 112l1 50q-16 -13 -47 -20t-82 -10q-3 0 -6.5 -0.5t-7.5 -0.5q-128 -9 -186 -40.5t-58 -92.5q0 -52 37.5 -80.5t102.5 -28.5zM100 634q0 29 25.5 50.5t59.5 21.5q26 0 48.5 -7t54.5 -20q34 -13 54 -19t43 -6q26 0 45.5 16t19.5 36h20
q0 -29 -25.5 -50.5t-59.5 -21.5q-26 0 -48.5 7t-54.5 20q-34 13 -54 19t-43 6q-26 0 -45.5 -16t-19.5 -36h-20z" />
    <glyph glyph-name="ae" unicode="&#xe6;" horiz-adv-x="1029" 
d="M220 -12q-78 0 -119 35t-41 94q0 57 39.5 89.5t95.5 45t128 17.5q70 4 106.5 14t36.5 35q0 76 -50.5 124t-130.5 48q-78 0 -128.5 -44t-64.5 -122h-20q9 57 37.5 99t73.5 64.5t102 22.5q82 0 135 -44t64 -120q28 74 92.5 119t146.5 45q71 0 130 -34.5t92.5 -94
t33.5 -131.5v-2.5v-2.5v-2.5v-2.5h-493q2 -65 34 -117.5t85 -82.5t118 -30q77 0 135.5 36.5t79.5 96.5h21q-14 -46 -48.5 -80.5t-83 -53.5t-104.5 -19q-87 0 -154 50.5t-91 131.5q-16 -59 -56 -100.5t-93.5 -62.5t-108.5 -21zM220 8q70 0 126 30t88 81t32 112l1 50
q-16 -13 -47 -20t-82 -10q-3 0 -6.5 -0.5t-7.5 -0.5q-128 -9 -186 -40.5t-58 -92.5q0 -52 37.5 -80.5t102.5 -28.5zM959 260q-2 65 -33.5 117.5t-85 82.5t-117.5 30q-65 0 -118 -30t-85 -82.5t-34 -117.5v0h473z" />
    <glyph glyph-name="b" unicode="b" horiz-adv-x="665" 
d="M362 -10q-82 0 -143.5 44t-88.5 117v-151h-20v710h20v-361q27 73 88.5 117t143.5 44q69 0 126 -34.5t89.5 -94t32.5 -131.5t-32.5 -131.5t-89.5 -94t-126 -34.5zM360 10q64 0 116.5 31.5t83 86.5t30.5 122t-30.5 122t-83 86.5t-116.5 31.5t-116.5 -31.5t-83 -86.5
t-30.5 -122t30.5 -122t83 -86.5t116.5 -31.5z" />
    <glyph glyph-name="c" unicode="c" horiz-adv-x="604" 
d="M311 -10q-72 0 -130.5 34t-92 93.5t-33.5 132.5t33.5 132.5t92 93.5t130.5 34q65 0 115.5 -23t83.5 -66t44 -102h-20q-17 80 -76 125.5t-147 45.5q-66 0 -120 -31.5t-85 -86.5t-31 -122t31 -122t85 -86.5t120 -31.5q88 0 147 45.5t76 125.5h20q-11 -59 -44 -102
t-83.5 -66t-115.5 -23z" />
    <glyph glyph-name="cacute" unicode="&#x107;" horiz-adv-x="604" 
d="M311 -10q-72 0 -130.5 34t-92 93.5t-33.5 132.5t33.5 132.5t92 93.5t130.5 34q65 0 115.5 -23t83.5 -66t44 -102h-20q-17 80 -76 125.5t-147 45.5q-66 0 -120 -31.5t-85 -86.5t-31 -122t31 -122t85 -86.5t120 -31.5q88 0 147 45.5t76 125.5h20q-11 -59 -44 -102
t-83.5 -66t-115.5 -23zM377 745h22l-67 -160h-21z" />
    <glyph glyph-name="ccaron" unicode="&#x10d;" horiz-adv-x="604" 
d="M311 -10q-72 0 -130.5 34t-92 93.5t-33.5 132.5t33.5 132.5t92 93.5t130.5 34q65 0 115.5 -23t83.5 -66t44 -102h-20q-17 80 -76 125.5t-147 45.5q-66 0 -120 -31.5t-85 -86.5t-31 -122t31 -122t85 -86.5t120 -31.5q88 0 147 45.5t76 125.5h20q-11 -59 -44 -102
t-83.5 -66t-115.5 -23zM168 745l143 -140l144 140h28l-164 -160h-16l-164 160h29z" />
    <glyph glyph-name="ccedilla" unicode="&#xe7;" horiz-adv-x="604" 
d="M311 -10q-72 0 -130.5 34t-92 93.5t-33.5 132.5t33.5 132.5t92 93.5t130.5 34q65 0 115.5 -23t83.5 -66t44 -102h-20q-17 80 -76 125.5t-147 45.5q-66 0 -120 -31.5t-85 -86.5t-31 -122t31 -122t85 -86.5t120 -31.5q88 0 147 45.5t76 125.5h20q-11 -59 -44 -102
t-83.5 -66t-115.5 -23zM255 -245h-22l67 160h21z" />
    <glyph glyph-name="cdotaccent" unicode="&#x10b;" horiz-adv-x="604" 
d="M311 -10q-72 0 -130.5 34t-92 93.5t-33.5 132.5t33.5 132.5t92 93.5t130.5 34q65 0 115.5 -23t83.5 -66t44 -102h-20q-17 80 -76 125.5t-147 45.5q-66 0 -120 -31.5t-85 -86.5t-31 -122t31 -122t85 -86.5t120 -31.5q88 0 147 45.5t76 125.5h20q-11 -59 -44 -102
t-83.5 -66t-115.5 -23zM296 745h30l-10 -160h-10z" />
    <glyph glyph-name="d" unicode="d" horiz-adv-x="665" 
d="M303 -10q-69 0 -126 34.5t-89.5 94t-32.5 131.5t32.5 131.5t89.5 94t126 34.5q82 0 143.5 -44t88.5 -117v361h20v-710h-20v151q-27 -73 -88.5 -117t-143.5 -44zM305 10q64 0 116.5 31.5t83 86.5t30.5 122t-30.5 122t-83 86.5t-116.5 31.5t-116.5 -31.5t-83 -86.5
t-30.5 -122t30.5 -122t83 -86.5t116.5 -31.5z" />
    <glyph glyph-name="eth" unicode="&#xf0;" horiz-adv-x="630" 
d="M315 -10q-72 0 -131.5 34.5t-94 94t-34.5 131.5t34.5 131.5t94 94t131.5 34.5q39 0 72.5 -10t62.5 -28q-4 4 -7.5 8.5t-6.5 9.5q-2 2 -4 5t-4 5l-69 90h-174v20h158l-77 100h25l78 -100h146v-20h-131l139 -179q4 -5 7.5 -10.5t7.5 -11.5q18 -30 27.5 -65.5t9.5 -73.5
q0 -72 -34.5 -131.5t-94 -94t-131.5 -34.5zM315 10q67 0 122 31.5t86.5 86.5t31.5 122t-31.5 122t-86.5 86.5t-122 31.5t-122 -31.5t-86.5 -86.5t-31.5 -122t31.5 -122t86.5 -86.5t122 -31.5z" />
    <glyph glyph-name="dcaron" unicode="&#x10f;" horiz-adv-x="665" 
d="M303 -10q-69 0 -126 34.5t-89.5 94t-32.5 131.5t32.5 131.5t89.5 94t126 34.5q82 0 143.5 -44t88.5 -117v361h20v-710h-20v151q-27 -73 -88.5 -117t-143.5 -44zM305 10q64 0 116.5 31.5t83 86.5t30.5 122t-30.5 122t-83 86.5t-116.5 31.5t-116.5 -31.5t-83 -86.5
t-30.5 -122t30.5 -122t83 -86.5t116.5 -31.5zM625 710h20l-2 -160h-18v160z" />
    <glyph glyph-name="dcroat" unicode="&#x111;" horiz-adv-x="665" 
d="M635 590h-80v-590h-20v151q-27 -73 -88.5 -117t-143.5 -44q-69 0 -126 34.5t-89.5 94t-32.5 131.5t32.5 131.5t89.5 94t126 34.5q82 0 143.5 -44t88.5 -117v241h-230v20h230v100h20v-100h80v-20zM305 10q64 0 116.5 31.5t83 86.5t30.5 122t-30.5 122t-83 86.5
t-116.5 31.5t-116.5 -31.5t-83 -86.5t-30.5 -122t30.5 -122t83 -86.5t116.5 -31.5z" />
    <glyph glyph-name="e" unicode="e" horiz-adv-x="618" 
d="M312 -10q-71 0 -130 34.5t-93 94t-34 131.5t34 131.5t93 94t130 34.5t130 -34.5t92.5 -94t33.5 -131.5v-5v-5h-493q2 -65 34 -117.5t85 -82.5t118 -30q77 0 135.5 36.5t79.5 96.5h21q-14 -46 -48.5 -80.5t-83 -53.5t-104.5 -19zM548 260q-2 65 -33.5 117.5t-85 82.5
t-117.5 30q-65 0 -118 -30t-85 -82.5t-34 -117.5v0h473z" />
    <glyph glyph-name="eacute" unicode="&#xe9;" horiz-adv-x="618" 
d="M312 -10q-71 0 -130 34.5t-93 94t-34 131.5t34 131.5t93 94t130 34.5t130 -34.5t92.5 -94t33.5 -131.5v-5v-5h-493q2 -65 34 -117.5t85 -82.5t118 -30q77 0 135.5 36.5t79.5 96.5h21q-14 -46 -48.5 -80.5t-83 -53.5t-104.5 -19zM548 260q-2 65 -33.5 117.5t-85 82.5
t-117.5 30q-65 0 -118 -30t-85 -82.5t-34 -117.5v0h473zM371 745h22l-67 -160h-21z" />
    <glyph glyph-name="ecaron" unicode="&#x11b;" horiz-adv-x="618" 
d="M312 -10q-71 0 -130 34.5t-93 94t-34 131.5t34 131.5t93 94t130 34.5t130 -34.5t92.5 -94t33.5 -131.5v-5v-5h-493q2 -65 34 -117.5t85 -82.5t118 -30q77 0 135.5 36.5t79.5 96.5h21q-14 -46 -48.5 -80.5t-83 -53.5t-104.5 -19zM548 260q-2 65 -33.5 117.5t-85 82.5
t-117.5 30q-65 0 -118 -30t-85 -82.5t-34 -117.5v0h473zM162 745l143 -140l144 140h28l-164 -160h-16l-164 160h29z" />
    <glyph glyph-name="ecircumflex" unicode="&#xea;" horiz-adv-x="618" 
d="M312 -10q-71 0 -130 34.5t-93 94t-34 131.5t34 131.5t93 94t130 34.5t130 -34.5t92.5 -94t33.5 -131.5v-5v-5h-493q2 -65 34 -117.5t85 -82.5t118 -30q77 0 135.5 36.5t79.5 96.5h21q-14 -46 -48.5 -80.5t-83 -53.5t-104.5 -19zM548 260q-2 65 -33.5 117.5t-85 82.5
t-117.5 30q-65 0 -118 -30t-85 -82.5t-34 -117.5v0h473zM448 585l-143 140l-144 -140h-28l164 160h16l164 -160h-29z" />
    <glyph glyph-name="edieresis" unicode="&#xeb;" horiz-adv-x="618" 
d="M312 -10q-71 0 -130 34.5t-93 94t-34 131.5t34 131.5t93 94t130 34.5t130 -34.5t92.5 -94t33.5 -131.5v-5v-5h-493q2 -65 34 -117.5t85 -82.5t118 -30q77 0 135.5 36.5t79.5 96.5h21q-14 -46 -48.5 -80.5t-83 -53.5t-104.5 -19zM548 260q-2 65 -33.5 117.5t-85 82.5
t-117.5 30q-65 0 -118 -30t-85 -82.5t-34 -117.5v0h473zM230 745h27l-9 -160h-9zM354 745h27l-9 -160h-9z" />
    <glyph glyph-name="edotaccent" unicode="&#x117;" horiz-adv-x="618" 
d="M312 -10q-71 0 -130 34.5t-93 94t-34 131.5t34 131.5t93 94t130 34.5t130 -34.5t92.5 -94t33.5 -131.5v-5v-5h-493q2 -65 34 -117.5t85 -82.5t118 -30q77 0 135.5 36.5t79.5 96.5h21q-14 -46 -48.5 -80.5t-83 -53.5t-104.5 -19zM548 260q-2 65 -33.5 117.5t-85 82.5
t-117.5 30q-65 0 -118 -30t-85 -82.5t-34 -117.5v0h473zM290 745h30l-10 -160h-10z" />
    <glyph glyph-name="egrave" unicode="&#xe8;" horiz-adv-x="618" 
d="M312 -10q-71 0 -130 34.5t-93 94t-34 131.5t34 131.5t93 94t130 34.5t130 -34.5t92.5 -94t33.5 -131.5v-5v-5h-493q2 -65 34 -117.5t85 -82.5t118 -30q77 0 135.5 36.5t79.5 96.5h21q-14 -46 -48.5 -80.5t-83 -53.5t-104.5 -19zM548 260q-2 65 -33.5 117.5t-85 82.5
t-117.5 30q-65 0 -118 -30t-85 -82.5t-34 -117.5v0h473zM284 585l-67 160h22l66 -160h-21z" />
    <glyph glyph-name="emacron" unicode="&#x113;" horiz-adv-x="618" 
d="M312 -10q-71 0 -130 34.5t-93 94t-34 131.5t34 131.5t93 94t130 34.5t130 -34.5t92.5 -94t33.5 -131.5v-5v-5h-493q2 -65 34 -117.5t85 -82.5t118 -30q77 0 135.5 36.5t79.5 96.5h21q-14 -46 -48.5 -80.5t-83 -53.5t-104.5 -19zM548 260q-2 65 -33.5 117.5t-85 82.5
t-117.5 30q-65 0 -118 -30t-85 -82.5t-34 -117.5v0h473zM465 680v-20h-320v20h320z" />
    <glyph glyph-name="eogonek" unicode="&#x119;" horiz-adv-x="618" 
d="M312 -10q-71 0 -130 34.5t-93 94t-34 131.5t34 131.5t93 94t130 34.5t130 -34.5t92.5 -94t33.5 -131.5v-5v-5h-493q2 -65 34 -117.5t85 -82.5t118 -30q77 0 135.5 36.5t79.5 96.5h21q-14 -46 -48.5 -80.5t-83 -53.5t-104.5 -19zM548 260q-2 65 -33.5 117.5t-85 82.5
t-117.5 30q-65 0 -118 -30t-85 -82.5t-34 -117.5v0h473zM431 -245h-22l67 160h21z" />
    <glyph glyph-name="f" unicode="f" horiz-adv-x="428" 
d="M160 480h-110v20h110v67q0 53 22 92t63 60t97 21q47 0 85 -18t59 -51t21 -74h-20v1q-1 54 -41 88t-105 34q-74 0 -117.5 -39.5t-43.5 -113.5v-22.5v-22.5v-11v-11h246v-20h-246v0v0v-480h-20v480z" />
    <glyph glyph-name="g" unicode="g" horiz-adv-x="662" 
d="M351 -210q-84 0 -147.5 19.5t-98 55t-34.5 83.5q0 57 47 96t131 54q-109 10 -169 36.5t-60 91.5q0 26 19.5 44.5t47.5 18.5h9.5t9.5 -1l12 -2t11 -3q-19 32 -19 68q0 70 63 112.5t170 46.5v120h18v-120q75 0 131.5 -19.5t87.5 -55.5t31 -84t-31 -83.5t-87.5 -55
t-131.5 -19.5q-51 0 -87 7t-57 16.5t-47 24.5q-24 14 -41.5 21t-41.5 7q-21 0 -34 -13t-13 -30q0 -40 34.5 -64t89 -35t127.5 -16q16 -1 31 -1.5t30 -1.5q130 -5 205 -40t75 -120q0 -48 -34.5 -83.5t-98 -55t-148.5 -19.5zM351 -190q79 0 138 17t91 48.5t32 72.5
q0 68 -66.5 103.5t-194.5 35.5q-79 0 -137.5 -17t-90.5 -48.5t-32 -73.5q0 -41 32 -72.5t90.5 -48.5t137.5 -17zM361 213q105 0 167.5 38t62.5 100q0 63 -62.5 101t-167.5 38q-106 0 -168.5 -38t-62.5 -101t61.5 -100.5t169.5 -37.5z" />
    <glyph glyph-name="gbreve" unicode="&#x11f;" horiz-adv-x="662" 
d="M351 -210q-84 0 -147.5 19.5t-98 55t-34.5 83.5q0 57 47 96t131 54q-109 10 -169 36.5t-60 91.5q0 26 19.5 44.5t47.5 18.5h9.5t9.5 -1l12 -2t11 -3q-19 32 -19 68q0 48 31 84t87.5 55.5t132.5 19.5q75 0 131.5 -19.5t87.5 -55.5t31 -84t-31 -83.5t-87.5 -55
t-131.5 -19.5q-51 0 -87 7t-57 16.5t-47 24.5q-24 14 -41.5 21t-41.5 7q-21 0 -34 -13t-13 -30q0 -40 34.5 -64t89 -35t127.5 -16q16 -1 31 -1.5t30 -1.5q130 -5 205 -40t75 -120q0 -48 -34.5 -83.5t-98 -55t-148.5 -19.5zM351 -190q79 0 138 17t91 48.5t32 72.5
q0 68 -66.5 103.5t-194.5 35.5q-79 0 -137.5 -17t-90.5 -48.5t-32 -73.5q0 -41 32 -72.5t90.5 -48.5t137.5 -17zM361 213q105 0 167.5 38t62.5 100q0 63 -62.5 101t-167.5 38q-106 0 -168.5 -38t-62.5 -101t61.5 -100.5t169.5 -37.5zM352 585q-51 0 -89.5 19t-59.5 53
t-21 80v8h20v-8q0 -61 40 -96.5t110 -35.5t110 35.5t40 96.5v8h20v-8q0 -46 -21 -80t-59.5 -53t-89.5 -19z" />
    <glyph glyph-name="uni0123" unicode="&#x123;" horiz-adv-x="662" 
d="M351 -210q-84 0 -147.5 19.5t-98 55t-34.5 83.5q0 57 47 96t131 54q-109 10 -169 36.5t-60 91.5q0 26 19.5 44.5t47.5 18.5h9.5t9.5 -1l12 -2t11 -3q-19 32 -19 68q0 48 31 84t87.5 55.5t132.5 19.5q75 0 131.5 -19.5t87.5 -55.5t31 -84t-31 -83.5t-87.5 -55
t-131.5 -19.5q-51 0 -87 7t-57 16.5t-47 24.5q-24 14 -41.5 21t-41.5 7q-21 0 -34 -13t-13 -30q0 -40 34.5 -64t89 -35t127.5 -16q16 -1 31 -1.5t30 -1.5q130 -5 205 -40t75 -120q0 -48 -34.5 -83.5t-98 -55t-148.5 -19.5zM351 -190q79 0 138 17t91 48.5t32 72.5
q0 68 -66.5 103.5t-194.5 35.5q-79 0 -137.5 -17t-90.5 -48.5t-32 -73.5q0 -41 32 -72.5t90.5 -48.5t137.5 -17zM361 213q105 0 167.5 38t62.5 100q0 63 -62.5 101t-167.5 38q-106 0 -168.5 -38t-62.5 -101t61.5 -100.5t169.5 -37.5zM394 745v0q-20 -29 -32.5 -57.5
t-13.5 -54.5h2.5h2.5q10 0 17 -6.5t7 -17.5q0 -10 -7.5 -17.5t-17.5 -7.5q-11 0 -18 8t-7 21q0 30 15 70.5t32 61.5h20z" />
    <glyph glyph-name="gdotaccent" unicode="&#x121;" horiz-adv-x="662" 
d="M351 -210q-84 0 -147.5 19.5t-98 55t-34.5 83.5q0 57 47 96t131 54q-109 10 -169 36.5t-60 91.5q0 26 19.5 44.5t47.5 18.5h9.5t9.5 -1l12 -2t11 -3q-19 32 -19 68q0 48 31 84t87.5 55.5t132.5 19.5q75 0 131.5 -19.5t87.5 -55.5t31 -84t-31 -83.5t-87.5 -55
t-131.5 -19.5q-51 0 -87 7t-57 16.5t-47 24.5q-24 14 -41.5 21t-41.5 7q-21 0 -34 -13t-13 -30q0 -40 34.5 -64t89 -35t127.5 -16q16 -1 31 -1.5t30 -1.5q130 -5 205 -40t75 -120q0 -48 -34.5 -83.5t-98 -55t-148.5 -19.5zM351 -190q79 0 138 17t91 48.5t32 72.5
q0 68 -66.5 103.5t-194.5 35.5q-79 0 -137.5 -17t-90.5 -48.5t-32 -73.5q0 -41 32 -72.5t90.5 -48.5t137.5 -17zM361 213q105 0 167.5 38t62.5 100q0 63 -62.5 101t-167.5 38q-106 0 -168.5 -38t-62.5 -101t61.5 -100.5t169.5 -37.5zM337 745h30l-10 -160h-10z" />
    <glyph glyph-name="h" unicode="h" horiz-adv-x="660" 
d="M110 710h20v-351q25 69 80 110t126 41q70 0 120.5 -29.5t77 -86t26.5 -134.5v-260h-20v260q0 107 -54.5 168.5t-149.5 61.5q-57 0 -104.5 -30t-74.5 -83t-27 -117v-260h-20v710z" />
    <glyph glyph-name="hbar" unicode="&#x127;" horiz-adv-x="660" 
d="M336 510q70 0 120.5 -29.5t77 -86t26.5 -134.5v-260h-20v260q0 107 -54.5 168.5t-149.5 61.5q-57 0 -104.5 -30t-74.5 -83t-27 -117v-260h-20v590h-80v20h80v100h20v-100h230v-20h-230v-231q25 69 80 110t126 41z" />
    <glyph glyph-name="i" unicode="i" horiz-adv-x="240" 
d="M110 500h20v-500h-20v500zM105 745h30l-10 -160h-10z" />
    <glyph glyph-name="dotlessi" unicode="&#x131;" horiz-adv-x="240" 
d="M110 500h20v-500h-20v500z" />
    <glyph glyph-name="iacute" unicode="&#xed;" horiz-adv-x="240" 
d="M110 500h20v-500h-20v500zM186 745h22l-67 -160h-21z" />
    <glyph glyph-name="uni01D0" unicode="&#x1d0;" horiz-adv-x="240" 
d="M110 500h20v-500h-20v500zM-23 745l143 -140l144 140h28l-164 -160h-16l-164 160h29z" />
    <glyph glyph-name="icircumflex" unicode="&#xee;" horiz-adv-x="240" 
d="M110 500h20v-500h-20v500zM263 585l-143 140l-144 -140h-28l164 160h16l164 -160h-29z" />
    <glyph glyph-name="idieresis" unicode="&#xef;" horiz-adv-x="240" 
d="M110 500h20v-500h-20v500zM45 745h27l-9 -160h-9zM169 745h27l-9 -160h-9z" />
    <glyph glyph-name="i.loclTRK" horiz-adv-x="240" 
d="M110 500h20v-500h-20v500zM105 745h30l-10 -160h-10z" />
    <glyph glyph-name="igrave" unicode="&#xec;" horiz-adv-x="240" 
d="M110 500h20v-500h-20v500zM99 585l-67 160h22l66 -160h-21z" />
    <glyph glyph-name="imacron" unicode="&#x12b;" horiz-adv-x="240" 
d="M110 500h20v-500h-20v500zM280 680v-20h-320v20h320z" />
    <glyph glyph-name="iogonek" unicode="&#x12f;" horiz-adv-x="240" 
d="M110 500h20v-500h-20v500zM105 745h30l-10 -160h-10zM65 -245h-22l67 160h21z" />
    <glyph glyph-name="j" unicode="j" horiz-adv-x="290" 
d="M20 -210q-42 0 -76.5 14.5t-54 40.5t-19.5 58h20v-1q0 -26 17 -47t47 -33t66 -12q63 0 101.5 36.5t38.5 106.5v33.5v33.5v45.5v44.5v390h20v-548q0 -73 -43 -117.5t-117 -44.5zM155 745h30l-10 -160h-10z" />
    <glyph glyph-name="uni0237" unicode="&#x237;" horiz-adv-x="290" 
d="M20 -210q-42 0 -76.5 14.5t-54 40.5t-19.5 58h20v-1q0 -26 17 -47t47 -33t66 -12q63 0 101.5 36.5t38.5 106.5v33.5v33.5v45.5v44.5v390h20v-548q0 -73 -43 -117.5t-117 -44.5z" />
    <glyph glyph-name="k" unicode="k" horiz-adv-x="522" 
d="M110 710h20v-450h109l227 240h26l-236 -250l236 -250h-28l-227 240h-107v-240h-20v710z" />
    <glyph glyph-name="uni0137" unicode="&#x137;" horiz-adv-x="522" 
d="M110 710h20v-450h109l227 240h26l-236 -250l236 -250h-28l-227 240h-107v-240h-20v710zM258 -245v0q20 29 32.5 57.5t13.5 54.5h-2.5h-2.5q-11 0 -17.5 6.5t-6.5 17.5q0 10 7 17.5t18 7.5t18 -8t7 -21q0 -30 -15 -70.5t-32 -61.5h-20z" />
    <glyph glyph-name="l" unicode="l" horiz-adv-x="240" 
d="M110 710h20v-710h-20v710z" />
    <glyph glyph-name="lacute" unicode="&#x13a;" horiz-adv-x="240" 
d="M110 710h20v-710h-20v710zM186 945h22l-67 -160h-21z" />
    <glyph glyph-name="lcaron" unicode="&#x13e;" horiz-adv-x="240" 
d="M110 710h20v-710h-20v710zM200 710h20l-2 -160h-18v160z" />
    <glyph glyph-name="uni013C" unicode="&#x13c;" horiz-adv-x="240" 
d="M110 710h20v-710h-20v710zM78 -245v0q20 29 32.5 57.5t13.5 54.5h-2.5h-2.5q-11 0 -17.5 6.5t-6.5 17.5q0 10 7 17.5t18 7.5t18 -8t7 -21q0 -30 -15 -70.5t-32 -61.5h-20z" />
    <glyph glyph-name="lslash" unicode="&#x142;" horiz-adv-x="240" 
d="M233 463l-103 -60v-403h-20v391l-87 -51v23l87 51v296h20v-284l103 60v-23z" />
    <glyph glyph-name="m" unicode="m" horiz-adv-x="1010" 
d="M110 500h20v-138q23 67 75 107.5t117 40.5q77 0 126.5 -42t65.5 -119q22 73 75.5 117t122.5 44q62 0 106.5 -27.5t68 -79t23.5 -123.5v-280h-20v280q0 98 -47.5 154t-130.5 56q-53 0 -97 -30t-69.5 -83t-25.5 -117v-260h-20v280q0 98 -47.5 154t-130.5 56q-53 0 -97 -30
t-69.5 -83t-25.5 -117v-260h-20v500z" />
    <glyph glyph-name="n" unicode="n" horiz-adv-x="660" 
d="M110 500h20v-141q25 69 80 110t126 41q70 0 120.5 -29.5t77 -86t26.5 -134.5v-260h-20v260q0 107 -54.5 168.5t-149.5 61.5q-57 0 -104.5 -30t-74.5 -83t-27 -117v-260h-20v500z" />
    <glyph glyph-name="nacute" unicode="&#x144;" horiz-adv-x="660" 
d="M110 500h20v-141q25 69 80 110t126 41q70 0 120.5 -29.5t77 -86t26.5 -134.5v-260h-20v260q0 107 -54.5 168.5t-149.5 61.5q-57 0 -104.5 -30t-74.5 -83t-27 -117v-260h-20v500zM403 745h22l-67 -160h-21z" />
    <glyph glyph-name="ncaron" unicode="&#x148;" horiz-adv-x="660" 
d="M110 500h20v-141q25 69 80 110t126 41q70 0 120.5 -29.5t77 -86t26.5 -134.5v-260h-20v260q0 107 -54.5 168.5t-149.5 61.5q-57 0 -104.5 -30t-74.5 -83t-27 -117v-260h-20v500zM194 745l143 -140l144 140h28l-164 -160h-16l-164 160h29z" />
    <glyph glyph-name="uni0146" unicode="&#x146;" horiz-adv-x="660" 
d="M110 500h20v-141q25 69 80 110t126 41q70 0 120.5 -29.5t77 -86t26.5 -134.5v-260h-20v260q0 107 -54.5 168.5t-149.5 61.5q-57 0 -104.5 -30t-74.5 -83t-27 -117v-260h-20v500zM295 -245v0q20 29 32.5 57.5t13.5 54.5h-2.5h-2.5q-11 0 -17.5 6.5t-6.5 17.5q0 10 7 17.5
t18 7.5t18 -8t7 -21q0 -30 -15 -70.5t-32 -61.5h-20z" />
    <glyph glyph-name="eng" unicode="&#x14b;" horiz-adv-x="660" 
d="M400 -210q-42 0 -76.5 14.5t-54 40.5t-19.5 58h20v-1q0 -26 17 -47t47 -33t66 -12q63 0 101.5 36.5t38.5 106.5v33.5v33.5v45.5v44.5v150q0 107 -54.5 168.5t-149.5 61.5q-57 0 -104.5 -30t-74.5 -83t-27 -117v-260h-20v500h20v-141q25 69 80 110t126 41
q70 0 120.5 -29.5t77 -86t26.5 -134.5v-308q0 -73 -43 -117.5t-117 -44.5z" />
    <glyph glyph-name="ntilde" unicode="&#xf1;" horiz-adv-x="660" 
d="M110 500h20v-141q25 69 80 110t126 41q70 0 120.5 -29.5t77 -86t26.5 -134.5v-260h-20v260q0 107 -54.5 168.5t-149.5 61.5q-57 0 -104.5 -30t-74.5 -83t-27 -117v-260h-20v500zM152 634q0 29 25.5 50.5t59.5 21.5q26 0 48.5 -7t54.5 -20q34 -13 54 -19t43 -6
q26 0 45.5 16t19.5 36h20q0 -29 -25.5 -50.5t-59.5 -21.5q-26 0 -48.5 7t-54.5 20q-34 13 -54 19t-43 6q-26 0 -45.5 -16t-19.5 -36h-20z" />
    <glyph glyph-name="o" unicode="o" horiz-adv-x="630" 
d="M315 -10q-72 0 -131.5 34.5t-94 94t-34.5 131.5t34.5 131.5t94 94t131.5 34.5t131.5 -34.5t94 -94t34.5 -131.5t-34.5 -131.5t-94 -94t-131.5 -34.5zM315 10q67 0 122 31.5t86.5 86.5t31.5 122t-31.5 122t-86.5 86.5t-122 31.5t-122 -31.5t-86.5 -86.5t-31.5 -122
t31.5 -122t86.5 -86.5t122 -31.5z" />
    <glyph glyph-name="oacute" unicode="&#xf3;" horiz-adv-x="630" 
d="M315 -10q-72 0 -131.5 34.5t-94 94t-34.5 131.5t34.5 131.5t94 94t131.5 34.5t131.5 -34.5t94 -94t34.5 -131.5t-34.5 -131.5t-94 -94t-131.5 -34.5zM315 10q67 0 122 31.5t86.5 86.5t31.5 122t-31.5 122t-86.5 86.5t-122 31.5t-122 -31.5t-86.5 -86.5t-31.5 -122
t31.5 -122t86.5 -86.5t122 -31.5zM381 745h22l-67 -160h-21z" />
    <glyph glyph-name="ocircumflex" unicode="&#xf4;" horiz-adv-x="630" 
d="M315 -10q-72 0 -131.5 34.5t-94 94t-34.5 131.5t34.5 131.5t94 94t131.5 34.5t131.5 -34.5t94 -94t34.5 -131.5t-34.5 -131.5t-94 -94t-131.5 -34.5zM315 10q67 0 122 31.5t86.5 86.5t31.5 122t-31.5 122t-86.5 86.5t-122 31.5t-122 -31.5t-86.5 -86.5t-31.5 -122
t31.5 -122t86.5 -86.5t122 -31.5zM458 585l-143 140l-144 -140h-28l164 160h16l164 -160h-29z" />
    <glyph glyph-name="odieresis" unicode="&#xf6;" horiz-adv-x="630" 
d="M315 -10q-72 0 -131.5 34.5t-94 94t-34.5 131.5t34.5 131.5t94 94t131.5 34.5t131.5 -34.5t94 -94t34.5 -131.5t-34.5 -131.5t-94 -94t-131.5 -34.5zM315 10q67 0 122 31.5t86.5 86.5t31.5 122t-31.5 122t-86.5 86.5t-122 31.5t-122 -31.5t-86.5 -86.5t-31.5 -122
t31.5 -122t86.5 -86.5t122 -31.5zM240 745h27l-9 -160h-9zM364 745h27l-9 -160h-9z" />
    <glyph glyph-name="ograve" unicode="&#xf2;" horiz-adv-x="630" 
d="M315 -10q-72 0 -131.5 34.5t-94 94t-34.5 131.5t34.5 131.5t94 94t131.5 34.5t131.5 -34.5t94 -94t34.5 -131.5t-34.5 -131.5t-94 -94t-131.5 -34.5zM315 10q67 0 122 31.5t86.5 86.5t31.5 122t-31.5 122t-86.5 86.5t-122 31.5t-122 -31.5t-86.5 -86.5t-31.5 -122
t31.5 -122t86.5 -86.5t122 -31.5zM294 585l-67 160h22l66 -160h-21z" />
    <glyph glyph-name="ohungarumlaut" unicode="&#x151;" horiz-adv-x="630" 
d="M315 -10q-72 0 -131.5 34.5t-94 94t-34.5 131.5t34.5 131.5t94 94t131.5 34.5t131.5 -34.5t94 -94t34.5 -131.5t-34.5 -131.5t-94 -94t-131.5 -34.5zM315 10q67 0 122 31.5t86.5 86.5t31.5 122t-31.5 122t-86.5 86.5t-122 31.5t-122 -31.5t-86.5 -86.5t-31.5 -122
t31.5 -122t86.5 -86.5t122 -31.5zM292.408 745h19.7998l-60.2979 -160h-18.8994zM413.408 745h19.7998l-60.2979 -160h-18.8994z" />
    <glyph glyph-name="omacron" unicode="&#x14d;" horiz-adv-x="630" 
d="M315 -10q-72 0 -131.5 34.5t-94 94t-34.5 131.5t34.5 131.5t94 94t131.5 34.5t131.5 -34.5t94 -94t34.5 -131.5t-34.5 -131.5t-94 -94t-131.5 -34.5zM315 10q67 0 122 31.5t86.5 86.5t31.5 122t-31.5 122t-86.5 86.5t-122 31.5t-122 -31.5t-86.5 -86.5t-31.5 -122
t31.5 -122t86.5 -86.5t122 -31.5zM475 680v-20h-320v20h320z" />
    <glyph glyph-name="oslash" unicode="&#xf8;" horiz-adv-x="630" 
d="M315 -10q-50 0 -95 17t-79 48l-53 -55h-27l66 68q-34 36 -53 82.5t-19 99.5q0 72 34.5 131.5t94 94t131.5 34.5q50 0 95 -17t79 -48l53 55h27l-66 -68q34 -36 53 -82.5t19 -99.5q0 -72 -34.5 -131.5t-94 -94t-131.5 -34.5zM475 431q-32 28 -73 43.5t-87 15.5
q-67 0 -122 -31.5t-86.5 -86.5t-31.5 -122q0 -49 17 -92t48 -75zM315 10q67 0 122 31.5t86.5 86.5t31.5 122q0 49 -17 92t-48 75l-335 -348q32 -28 73 -43.5t87 -15.5z" />
    <glyph glyph-name="otilde" unicode="&#xf5;" horiz-adv-x="630" 
d="M315 -10q-72 0 -131.5 34.5t-94 94t-34.5 131.5t34.5 131.5t94 94t131.5 34.5t131.5 -34.5t94 -94t34.5 -131.5t-34.5 -131.5t-94 -94t-131.5 -34.5zM315 10q67 0 122 31.5t86.5 86.5t31.5 122t-31.5 122t-86.5 86.5t-122 31.5t-122 -31.5t-86.5 -86.5t-31.5 -122
t31.5 -122t86.5 -86.5t122 -31.5zM130 634q0 29 25.5 50.5t59.5 21.5q26 0 48.5 -7t54.5 -20q34 -13 54 -19t43 -6q26 0 45.5 16t19.5 36h20q0 -29 -25.5 -50.5t-59.5 -21.5q-26 0 -48.5 7t-54.5 20q-34 13 -54 19t-43 6q-26 0 -45.5 -16t-19.5 -36h-20z" />
    <glyph glyph-name="oe" unicode="&#x153;" horiz-adv-x="1118" 
d="M315 -10q-72 0 -131.5 34.5t-94 94t-34.5 131.5t34.5 131.5t94 94t131.5 34.5q90 0 158 -51.5t92 -134.5q23 83 90.5 134.5t156.5 51.5q71 0 130 -34.5t92.5 -94t33.5 -131.5v-5v-5h-493q2 -65 34 -117.5t85 -82.5t118 -30q77 0 135.5 36.5t79.5 96.5h21
q-14 -46 -48.5 -80.5t-83 -53.5t-104.5 -19q-89 0 -156.5 51.5t-90.5 134.5q-24 -83 -92 -134.5t-158 -51.5zM315 10q67 0 122 31.5t86.5 86.5t31.5 122t-31.5 122t-86.5 86.5t-122 31.5t-122 -31.5t-86.5 -86.5t-31.5 -122t31.5 -122t86.5 -86.5t122 -31.5zM1048 260
q-2 65 -33.5 117.5t-85 82.5t-117.5 30q-65 0 -118 -30t-85 -82.5t-34 -117.5v0h473z" />
    <glyph glyph-name="p" unicode="p" horiz-adv-x="665" 
d="M110 500h20v-151q27 73 88.5 117t143.5 44q69 0 126 -34.5t89.5 -94t32.5 -131.5t-32.5 -131.5t-89.5 -94t-126 -34.5q-82 0 -143.5 44t-88.5 117v-351h-20v700zM360 10q64 0 116.5 31.5t83 86.5t30.5 122t-30.5 122t-83 86.5t-116.5 31.5t-116.5 -31.5t-83 -86.5
t-30.5 -122t30.5 -122t83 -86.5t116.5 -31.5z" />
    <glyph glyph-name="thorn" unicode="&#xfe;" horiz-adv-x="665" 
d="M110 710h20v-361q27 73 88.5 117t143.5 44q69 0 126 -34.5t89.5 -94t32.5 -131.5t-32.5 -131.5t-89.5 -94t-126 -34.5q-82 0 -143.5 44t-88.5 117v-351h-20v910zM360 10q64 0 116.5 31.5t83 86.5t30.5 122t-30.5 122t-83 86.5t-116.5 31.5t-116.5 -31.5t-83 -86.5
t-30.5 -122t30.5 -122t83 -86.5t116.5 -31.5z" />
    <glyph glyph-name="q" unicode="q" horiz-adv-x="665" 
d="M535 -200v351q-27 -73 -88.5 -117t-143.5 -44q-69 0 -126 34.5t-89.5 94t-32.5 131.5t32.5 131.5t89.5 94t126 34.5q82 0 143.5 -44t88.5 -117v151h20v-700h-20zM305 10q64 0 116.5 31.5t83 86.5t30.5 122t-30.5 122t-83 86.5t-116.5 31.5t-116.5 -31.5t-83 -86.5
t-30.5 -122t30.5 -122t83 -86.5t116.5 -31.5z" />
    <glyph glyph-name="r" unicode="r" horiz-adv-x="505" 
d="M110 500h20v-144q23 69 74 111.5t116 42.5q52 0 89 -21t56.5 -61.5t19.5 -97.5v-20h-20v20q0 77 -37.5 118.5t-107.5 41.5q-52 0 -95.5 -31t-69 -83.5t-25.5 -115.5v-260h-20v500z" />
    <glyph glyph-name="racute" unicode="&#x155;" horiz-adv-x="505" 
d="M110 500h20v-144q23 69 74 111.5t116 42.5q52 0 89 -21t56.5 -61.5t19.5 -97.5v-20h-20v20q0 77 -37.5 118.5t-107.5 41.5q-52 0 -95.5 -31t-69 -83.5t-25.5 -115.5v-260h-20v500zM363 745h22l-67 -160h-21z" />
    <glyph glyph-name="rcaron" unicode="&#x159;" horiz-adv-x="505" 
d="M110 500h20v-144q23 69 74 111.5t116 42.5q52 0 89 -21t56.5 -61.5t19.5 -97.5v-20h-20v20q0 77 -37.5 118.5t-107.5 41.5q-52 0 -95.5 -31t-69 -83.5t-25.5 -115.5v-260h-20v500zM154 745l143 -140l144 140h28l-164 -160h-16l-164 160h29z" />
    <glyph glyph-name="uni0157" unicode="&#x157;" horiz-adv-x="505" 
d="M110 500h20v-144q23 69 74 111.5t116 42.5q52 0 89 -21t56.5 -61.5t19.5 -97.5v-20h-20v20q0 77 -37.5 118.5t-107.5 41.5q-52 0 -95.5 -31t-69 -83.5t-25.5 -115.5v-260h-20v500zM78 -245v0q20 29 32.5 57.5t13.5 54.5h-2.5h-2.5q-11 0 -17.5 6.5t-6.5 17.5q0 10 7 17.5
t18 7.5t18 -8t7 -21q0 -30 -15 -70.5t-32 -61.5h-20z" />
    <glyph glyph-name="s" unicode="s" horiz-adv-x="527" 
d="M276 -10q-90 0 -156 43t-78 127h20q12 -75 72 -112.5t141 -37.5q38 0 78.5 11t69 37t28.5 67q0 38 -22 60t-55.5 32t-92.5 20q-5 1 -11 2t-11 2q-67 11 -107 22t-67.5 36t-27.5 70q0 49 28.5 80.5t72.5 46t94 14.5q84 0 143.5 -42.5t69.5 -122.5h-20q-11 73 -65.5 109
t-131.5 36q-66 0 -118.5 -29t-52.5 -92q0 -33 19.5 -53t51 -30.5t79.5 -18.5q7 -1 14.5 -2.5t14.5 -2.5q3 -1 6 -1t7 -1q67 -11 107 -23t67.5 -38.5t27.5 -73.5q0 -48 -31 -78t-75.5 -43.5t-88.5 -13.5z" />
    <glyph glyph-name="sacute" unicode="&#x15b;" horiz-adv-x="527" 
d="M276 -10q-90 0 -156 43t-78 127h20q12 -75 72 -112.5t141 -37.5q38 0 78.5 11t69 37t28.5 67q0 38 -22 60t-55.5 32t-92.5 20q-5 1 -11 2t-11 2q-67 11 -107 22t-67.5 36t-27.5 70q0 49 28.5 80.5t72.5 46t94 14.5q84 0 143.5 -42.5t69.5 -122.5h-20q-11 73 -65.5 109
t-131.5 36q-66 0 -118.5 -29t-52.5 -92q0 -33 19.5 -53t51 -30.5t79.5 -18.5q7 -1 14.5 -2.5t14.5 -2.5q3 -1 6 -1t7 -1q67 -11 107 -23t67.5 -38.5t27.5 -73.5q0 -48 -31 -78t-75.5 -43.5t-88.5 -13.5zM322 745h22l-67 -160h-21z" />
    <glyph glyph-name="scaron" unicode="&#x161;" horiz-adv-x="527" 
d="M276 -10q-90 0 -156 43t-78 127h20q12 -75 72 -112.5t141 -37.5q38 0 78.5 11t69 37t28.5 67q0 38 -22 60t-55.5 32t-92.5 20q-5 1 -11 2t-11 2q-67 11 -107 22t-67.5 36t-27.5 70q0 49 28.5 80.5t72.5 46t94 14.5q84 0 143.5 -42.5t69.5 -122.5h-20q-11 73 -65.5 109
t-131.5 36q-66 0 -118.5 -29t-52.5 -92q0 -33 19.5 -53t51 -30.5t79.5 -18.5q7 -1 14.5 -2.5t14.5 -2.5q3 -1 6 -1t7 -1q67 -11 107 -23t67.5 -38.5t27.5 -73.5q0 -48 -31 -78t-75.5 -43.5t-88.5 -13.5zM113 745l143 -140l144 140h28l-164 -160h-16l-164 160h29z" />
    <glyph glyph-name="scedilla" unicode="&#x15f;" horiz-adv-x="527" 
d="M276 -10q-90 0 -156 43t-78 127h20q12 -75 72 -112.5t141 -37.5q38 0 78.5 11t69 37t28.5 67q0 38 -22 60t-55.5 32t-92.5 20q-5 1 -11 2t-11 2q-67 11 -107 22t-67.5 36t-27.5 70q0 49 28.5 80.5t72.5 46t94 14.5q84 0 143.5 -42.5t69.5 -122.5h-20q-11 73 -65.5 109
t-131.5 36q-66 0 -118.5 -29t-52.5 -92q0 -33 19.5 -53t51 -30.5t79.5 -18.5q7 -1 14.5 -2.5t14.5 -2.5q3 -1 6 -1t7 -1q67 -11 107 -23t67.5 -38.5t27.5 -73.5q0 -48 -31 -78t-75.5 -43.5t-88.5 -13.5zM220 -245h-22l67 160h21z" />
    <glyph glyph-name="uni0219" unicode="&#x219;" horiz-adv-x="527" 
d="M276 -10q-90 0 -156 43t-78 127h20q12 -75 72 -112.5t141 -37.5q38 0 78.5 11t69 37t28.5 67q0 38 -22 60t-55.5 32t-92.5 20q-5 1 -11 2t-11 2q-67 11 -107 22t-67.5 36t-27.5 70q0 49 28.5 80.5t72.5 46t94 14.5q84 0 143.5 -42.5t69.5 -122.5h-20q-11 73 -65.5 109
t-131.5 36q-66 0 -118.5 -29t-52.5 -92q0 -33 19.5 -53t51 -30.5t79.5 -18.5q7 -1 14.5 -2.5t14.5 -2.5q3 -1 6 -1t7 -1q67 -11 107 -23t67.5 -38.5t27.5 -73.5q0 -48 -31 -78t-75.5 -43.5t-88.5 -13.5zM234 -245v0q20 29 32.5 57.5t13.5 54.5h-2.5h-2.5q-11 0 -17.5 6.5
t-6.5 17.5q0 10 7 17.5t18 7.5t18 -8t7 -21q0 -30 -15 -70.5t-32 -61.5h-20z" />
    <glyph glyph-name="germandbls" unicode="&#xdf;" horiz-adv-x="749" 
d="M160 480h-110v20h110v67q0 53 24.5 92t70 60t107.5 21t107.5 -21t70 -60t24.5 -92v-79q-46 2 -68 2q-66 0 -118.5 -29t-52.5 -92q0 -36 23.5 -56.5t58 -30t93.5 -19.5q1 -1 2 -1h2q3 -1 6 -1t7 -1q67 -11 107 -23t67.5 -38.5t27.5 -73.5q0 -48 -31 -78t-75.5 -43.5
t-88.5 -13.5q-90 0 -156 43t-78 127h20q12 -75 72 -112.5t141 -37.5q38 0 78.5 11t69 37t28.5 67q0 40 -23.5 62.5t-58.5 32t-98 19.5l-12 2q-67 11 -107 22t-67.5 36t-27.5 70q0 49 28.5 80.5t72.5 46t94 14.5h44v57q0 50 -22.5 84t-63.5 51.5t-96 17.5q-84 0 -133 -39.5
t-49 -113.5v-14.5v-15.5v-23v-23v-691h-20v680z" />
    <glyph glyph-name="t" unicode="t" horiz-adv-x="470" 
d="M327 -10q-85 0 -126 40.5t-41 119.5v330h-130v20h120q5 0 7.5 3t2.5 7v110h22l-2 -120h250v-20h-250v-330q0 -72 36 -106t109 -34q46 0 105 19v-19q-22 -8 -52 -14t-51 -6z" />
    <glyph glyph-name="tbar" unicode="&#x167;" horiz-adv-x="470" 
d="M180 480v-220h250v-20h-250v-90q0 -72 36 -106t109 -34q46 0 105 19v-19q-22 -8 -52 -14t-51 -6q-85 0 -126 40.5t-41 119.5v90h-129v20h129v220h-130v20h120q5 0 7.5 3t2.5 7v110h22l-2 -120h250v-20h-250z" />
    <glyph glyph-name="tcaron" unicode="&#x165;" horiz-adv-x="470" 
d="M327 -10q-85 0 -126 40.5t-41 119.5v330h-130v20h120q5 0 7.5 3t2.5 7v110h22l-2 -120h250v-20h-250v-330q0 -72 36 -106t109 -34q46 0 105 19v-19q-22 -8 -52 -14t-51 -6zM252 700h20l-2 -160h-18v160z" />
    <glyph glyph-name="uni0163" unicode="&#x163;" horiz-adv-x="470" 
d="M327 -10q-85 0 -126 40.5t-41 119.5v330h-130v20h120q5 0 7.5 3t2.5 7v110h22l-2 -120h250v-20h-250v-330q0 -72 36 -106t109 -34q46 0 105 19v-19q-22 -8 -52 -14t-51 -6zM245 -245h-22l67 160h21z" />
    <glyph glyph-name="uni021B" unicode="&#x21b;" horiz-adv-x="470" 
d="M327 -10q-85 0 -126 40.5t-41 119.5v330h-130v20h120q5 0 7.5 3t2.5 7v110h22l-2 -120h250v-20h-250v-330q0 -72 36 -106t109 -34q46 0 105 19v-19q-22 -8 -52 -14t-51 -6zM259 -245v0q20 29 32.5 57.5t13.5 54.5h-2.5h-2.5q-11 0 -17.5 6.5t-6.5 17.5q0 10 7 17.5
t18 7.5t18 -8t7 -21q0 -30 -15 -70.5t-32 -61.5h-20z" />
    <glyph glyph-name="u" unicode="u" horiz-adv-x="660" 
d="M324 -10q-70 0 -120.5 29.5t-77 86t-26.5 134.5v260h20v-260q0 -107 54.5 -168.5t149.5 -61.5q57 0 104.5 30t74.5 83t27 117v260h20v-500h-20v141q-25 -69 -80 -110t-126 -41z" />
    <glyph glyph-name="uacute" unicode="&#xfa;" horiz-adv-x="660" 
d="M324 -10q-70 0 -120.5 29.5t-77 86t-26.5 134.5v260h20v-260q0 -107 54.5 -168.5t149.5 -61.5q57 0 104.5 30t74.5 83t27 117v260h20v-500h-20v141q-25 -69 -80 -110t-126 -41zM390 745h22l-67 -160h-21z" />
    <glyph glyph-name="ucircumflex" unicode="&#xfb;" horiz-adv-x="660" 
d="M324 -10q-70 0 -120.5 29.5t-77 86t-26.5 134.5v260h20v-260q0 -107 54.5 -168.5t149.5 -61.5q57 0 104.5 30t74.5 83t27 117v260h20v-500h-20v141q-25 -69 -80 -110t-126 -41zM467 585l-143 140l-144 -140h-28l164 160h16l164 -160h-29z" />
    <glyph glyph-name="udieresis" unicode="&#xfc;" horiz-adv-x="660" 
d="M324 -10q-70 0 -120.5 29.5t-77 86t-26.5 134.5v260h20v-260q0 -107 54.5 -168.5t149.5 -61.5q57 0 104.5 30t74.5 83t27 117v260h20v-500h-20v141q-25 -69 -80 -110t-126 -41zM249 745h27l-9 -160h-9zM373 745h27l-9 -160h-9z" />
    <glyph glyph-name="ugrave" unicode="&#xf9;" horiz-adv-x="660" 
d="M324 -10q-70 0 -120.5 29.5t-77 86t-26.5 134.5v260h20v-260q0 -107 54.5 -168.5t149.5 -61.5q57 0 104.5 30t74.5 83t27 117v260h20v-500h-20v141q-25 -69 -80 -110t-126 -41zM303 585l-67 160h22l66 -160h-21z" />
    <glyph glyph-name="uhungarumlaut" unicode="&#x171;" horiz-adv-x="660" 
d="M324 -10q-70 0 -120.5 29.5t-77 86t-26.5 134.5v260h20v-260q0 -107 54.5 -168.5t149.5 -61.5q57 0 104.5 30t74.5 83t27 117v260h20v-500h-20v141q-25 -69 -80 -110t-126 -41zM301.408 745h19.7998l-60.2979 -160h-18.8994zM422.408 745h19.7998l-60.2979 -160h-18.8994
z" />
    <glyph glyph-name="umacron" unicode="&#x16b;" horiz-adv-x="660" 
d="M324 -10q-70 0 -120.5 29.5t-77 86t-26.5 134.5v260h20v-260q0 -107 54.5 -168.5t149.5 -61.5q57 0 104.5 30t74.5 83t27 117v260h20v-500h-20v141q-25 -69 -80 -110t-126 -41zM484 680v-20h-320v20h320z" />
    <glyph glyph-name="uogonek" unicode="&#x173;" horiz-adv-x="660" 
d="M324 -10q-70 0 -120.5 29.5t-77 86t-26.5 134.5v260h20v-260q0 -107 54.5 -168.5t149.5 -61.5q57 0 104.5 30t74.5 83t27 117v260h20v-500h-20v141q-25 -69 -80 -110t-126 -41zM485 -245h-22l67 160h21z" />
    <glyph glyph-name="uring" unicode="&#x16f;" horiz-adv-x="660" 
d="M324 -10q-70 0 -120.5 29.5t-77 86t-26.5 134.5v260h20v-260q0 -107 54.5 -168.5t149.5 -61.5q57 0 104.5 30t74.5 83t27 117v260h20v-500h-20v141q-25 -69 -80 -110t-126 -41zM324 585q-33 0 -60.5 16t-43.5 43.5t-16 60.5t16 60.5t43.5 43.5t60.5 16q32 0 60 -16
t44 -44t16 -60t-16 -60t-44 -44t-60 -16zM324 605q27 0 50 13.5t36.5 36.5t13.5 50t-13.5 50t-36.5 36.5t-50 13.5q-28 0 -50.5 -13.5t-36 -36t-13.5 -50.5t13.5 -50.5t36 -36t50.5 -13.5z" />
    <glyph glyph-name="v" unicode="v" horiz-adv-x="518" 
d="M10 500h22l227 -483v0l227 483h22l-236 -500h-27z" />
    <glyph glyph-name="w" unicode="w" horiz-adv-x="788" 
d="M24 500h21l170 -472l168 472h22l168 -472l170 472h21l-180 -500h-22l-168 472l-168 -472h-22z" />
    <glyph glyph-name="wacute" unicode="&#x1e83;" horiz-adv-x="788" 
d="M24 500h21l170 -472l168 472h22l168 -472l170 472h21l-180 -500h-22l-168 472l-168 -472h-22zM460 745h22l-67 -160h-21z" />
    <glyph glyph-name="wcircumflex" unicode="&#x175;" horiz-adv-x="788" 
d="M24 500h21l170 -472l168 472h22l168 -472l170 472h21l-180 -500h-22l-168 472l-168 -472h-22zM537 585l-143 140l-144 -140h-28l164 160h16l164 -160h-29z" />
    <glyph glyph-name="wdieresis" unicode="&#x1e85;" horiz-adv-x="788" 
d="M24 500h21l170 -472l168 472h22l168 -472l170 472h21l-180 -500h-22l-168 472l-168 -472h-22zM319 745h27l-9 -160h-9zM443 745h27l-9 -160h-9z" />
    <glyph glyph-name="wgrave" unicode="&#x1e81;" horiz-adv-x="788" 
d="M24 500h21l170 -472l168 472h22l168 -472l170 472h21l-180 -500h-22l-168 472l-168 -472h-22zM373 585l-67 160h22l66 -160h-21z" />
    <glyph glyph-name="x" unicode="x" horiz-adv-x="556" 
d="M265 254l-217 246h27l203 -230l204 230h26l-216 -246l224 -254h-27l-211 239l-211 -239h-27z" />
    <glyph glyph-name="y" unicode="y" horiz-adv-x="531" 
d="M166 -210q-42 0 -73.5 18t-49 50.5t-17.5 76.5v27h20v-27q0 -38 15 -66t42 -43.5t63 -15.5q55 0 87.5 34t32.5 91v18q0 26 -4.5 46t-16.5 41l-250 460h23l245 -451q4 -8 7.5 -17.5t4.5 -20.5q2 12 5 21t7 19l192 449h22l-196 -459q-10 -23 -14.5 -42.5t-4.5 -43.5v-20
q0 -44 -17.5 -76.5t-49 -50.5t-73.5 -18z" />
    <glyph glyph-name="yacute" unicode="&#xfd;" horiz-adv-x="531" 
d="M166 -210q-42 0 -73.5 18t-49 50.5t-17.5 76.5v27h20v-27q0 -38 15 -66t42 -43.5t63 -15.5q55 0 87.5 34t32.5 91v18q0 26 -4.5 46t-16.5 41l-250 460h23l245 -451q4 -8 7.5 -17.5t4.5 -20.5q2 12 5 21t7 19l192 449h22l-196 -459q-10 -23 -14.5 -42.5t-4.5 -43.5v-20
q0 -44 -17.5 -76.5t-49 -50.5t-73.5 -18zM336 745h22l-67 -160h-21z" />
    <glyph glyph-name="ycircumflex" unicode="&#x177;" horiz-adv-x="531" 
d="M166 -210q-42 0 -73.5 18t-49 50.5t-17.5 76.5v27h20v-27q0 -38 15 -66t42 -43.5t63 -15.5q55 0 87.5 34t32.5 91v18q0 26 -4.5 46t-16.5 41l-250 460h23l245 -451q4 -8 7.5 -17.5t4.5 -20.5q2 12 5 21t7 19l192 449h22l-196 -459q-10 -23 -14.5 -42.5t-4.5 -43.5v-20
q0 -44 -17.5 -76.5t-49 -50.5t-73.5 -18zM413 585l-143 140l-144 -140h-28l164 160h16l164 -160h-29z" />
    <glyph glyph-name="ydieresis" unicode="&#xff;" horiz-adv-x="531" 
d="M166 -210q-42 0 -73.5 18t-49 50.5t-17.5 76.5v27h20v-27q0 -38 15 -66t42 -43.5t63 -15.5q55 0 87.5 34t32.5 91v18q0 26 -4.5 46t-16.5 41l-250 460h23l245 -451q4 -8 7.5 -17.5t4.5 -20.5q2 12 5 21t7 19l192 449h22l-196 -459q-10 -23 -14.5 -42.5t-4.5 -43.5v-20
q0 -44 -17.5 -76.5t-49 -50.5t-73.5 -18zM195 745h27l-9 -160h-9zM319 745h27l-9 -160h-9z" />
    <glyph glyph-name="ygrave" unicode="&#x1ef3;" horiz-adv-x="531" 
d="M166 -210q-42 0 -73.5 18t-49 50.5t-17.5 76.5v27h20v-27q0 -38 15 -66t42 -43.5t63 -15.5q55 0 87.5 34t32.5 91v18q0 26 -4.5 46t-16.5 41l-250 460h23l245 -451q4 -8 7.5 -17.5t4.5 -20.5q2 12 5 21t7 19l192 449h22l-196 -459q-10 -23 -14.5 -42.5t-4.5 -43.5v-20
q0 -44 -17.5 -76.5t-49 -50.5t-73.5 -18zM249 585l-67 160h22l66 -160h-21z" />
    <glyph glyph-name="z" unicode="z" horiz-adv-x="510" 
d="M40 20l392 460h-376v20h402v-20l-392 -460h394v-20h-420v20z" />
    <glyph glyph-name="zacute" unicode="&#x17a;" horiz-adv-x="510" 
d="M40 20l392 460h-376v20h402v-20l-392 -460h394v-20h-420v20zM366 745h22l-67 -160h-21z" />
    <glyph glyph-name="zcaron" unicode="&#x17e;" horiz-adv-x="510" 
d="M40 20l392 460h-376v20h402v-20l-392 -460h394v-20h-420v20zM157 745l143 -140l144 140h28l-164 -160h-16l-164 160h29z" />
    <glyph glyph-name="zdotaccent" unicode="&#x17c;" horiz-adv-x="510" 
d="M40 20l392 460h-376v20h402v-20l-392 -460h394v-20h-420v20zM285 745h30l-10 -160h-10z" />
    <glyph glyph-name="g.alt" horiz-adv-x="662" 
d="M351 -210q-84 0 -147.5 19.5t-98 55t-34.5 83.5q0 57 47 96t131 54q-109 10 -169 36.5t-60 91.5q0 26 19.5 44.5t47.5 18.5h9.5t9.5 -1l12 -2t11 -3q-19 32 -19 68q0 48 31 84t87.5 55.5t132.5 19.5q75 0 131.5 -19.5t87.5 -55.5t31 -84t-31 -83.5t-87.5 -55
t-131.5 -19.5q-51 0 -87 7t-57 16.5t-47 24.5q-24 14 -41.5 21t-41.5 7q-21 0 -34 -13t-13 -30q0 -40 34.5 -64t89 -35t127.5 -16q16 -1 31 -1.5t30 -1.5q130 -5 205 -40t75 -120q0 -48 -34.5 -83.5t-98 -55t-148.5 -19.5zM351 -190q79 0 138 17t91 48.5t32 72.5
q0 68 -66.5 103.5t-194.5 35.5q-79 0 -137.5 -17t-90.5 -48.5t-32 -73.5q0 -41 32 -72.5t90.5 -48.5t137.5 -17zM361 213q105 0 167.5 38t62.5 100q0 63 -62.5 101t-167.5 38q-106 0 -168.5 -38t-62.5 -101t61.5 -100.5t169.5 -37.5z" />
    <glyph glyph-name="f.long" horiz-adv-x="438" 
d="M160 480h-110v20h110v67q0 53 20 92t57.5 60t89.5 21q43 0 77 -18t53.5 -51t19.5 -74h-20v1q-1 54 -37 88t-94 34q-67 0 -106.5 -39.5t-39.5 -113.5v-22.5v-22.5v-11v-11h376v-20h-376v0v0v-480h-20v480z" />
    <glyph glyph-name="m.ss03" horiz-adv-x="860" 
d="M110 500h640v-500h-20v480h-290v-480h-20v480h-290v-480h-20v500z" />
    <glyph glyph-name="n.ss03" horiz-adv-x="640" 
d="M110 500h420v-500h-20v480h-380v-480h-20v500z" />
    <glyph glyph-name="nacute.ss03" horiz-adv-x="640" 
d="M110 500h420v-500h-20v480h-380v-480h-20v500zM386 745h22l-67 -160h-21z" />
    <glyph glyph-name="ncaron.ss03" horiz-adv-x="640" 
d="M110 500h420v-500h-20v480h-380v-480h-20v500zM177 745l143 -140l144 140h28l-164 -160h-16l-164 160h29z" />
    <glyph glyph-name="uni0146.ss03" horiz-adv-x="640" 
d="M110 500h420v-500h-20v480h-380v-480h-20v500zM278 -245v0q20 29 32.5 57.5t13.5 54.5h-2.5h-2.5q-11 0 -17.5 6.5t-6.5 17.5q0 10 7 17.5t18 7.5t18 -8t7 -21q0 -30 -15 -70.5t-32 -61.5h-20z" />
    <glyph glyph-name="eng.ss03" horiz-adv-x="640" 
d="M370 -210q-42 0 -76.5 14.5t-54 40.5t-19.5 58h20v-1q0 -26 17 -47t47 -33t66 -12q63 0 101.5 36.5t38.5 106.5v33.5v33.5v45.5v44.5v370h-380v-480h-20v500h420v-548q0 -73 -43 -117.5t-117 -44.5z" />
    <glyph glyph-name="ntilde.ss03" horiz-adv-x="640" 
d="M110 500h420v-500h-20v480h-380v-480h-20v500zM135 634q0 29 25.5 50.5t59.5 21.5q26 0 48.5 -7t54.5 -20q34 -13 54 -19t43 -6q26 0 45.5 16t19.5 36h20q0 -29 -25.5 -50.5t-59.5 -21.5q-26 0 -48.5 7t-54.5 20q-34 13 -54 19t-43 6q-26 0 -45.5 -16t-19.5 -36h-20z" />
    <glyph glyph-name="r.ss03" horiz-adv-x="450" 
d="M110 500h330v-20h-310v-480h-20v500z" />
    <glyph glyph-name="racute.ss03" horiz-adv-x="450" 
d="M110 500h330v-20h-310v-480h-20v500zM333 745h22l-67 -160h-21z" />
    <glyph glyph-name="rcaron.ss03" horiz-adv-x="450" 
d="M110 500h330v-20h-310v-480h-20v500zM124 745l143 -140l144 140h28l-164 -160h-16l-164 160h29z" />
    <glyph glyph-name="uni0157.ss03" horiz-adv-x="450" 
d="M110 500h330v-20h-310v-480h-20v500zM78 -245v0q20 29 32.5 57.5t13.5 54.5h-2.5h-2.5q-11 0 -17.5 6.5t-6.5 17.5q0 10 7 17.5t18 7.5t18 -8t7 -21q0 -30 -15 -70.5t-32 -61.5h-20z" />
    <glyph glyph-name="s.ss03" horiz-adv-x="495" 
d="M35 20h394l-392 460v20h402v-20h-376l392 -460v-20h-420v20z" />
    <glyph glyph-name="sacute.ss03" horiz-adv-x="495" 
d="M35 20h394l-392 460v20h402v-20h-376l392 -460v-20h-420v20zM312 745h22l-67 -160h-21z" />
    <glyph glyph-name="scaron.ss03" horiz-adv-x="495" 
d="M35 20h394l-392 460v20h402v-20h-376l392 -460v-20h-420v20zM103 745l143 -140l144 140h28l-164 -160h-16l-164 160h29z" />
    <glyph glyph-name="scedilla.ss03" horiz-adv-x="495" 
d="M35 20h394l-392 460v20h402v-20h-376l392 -460v-20h-420v20zM190 -245h-22l67 160h21z" />
    <glyph glyph-name="uni0219.ss03" horiz-adv-x="495" 
d="M35 20h394l-392 460v20h402v-20h-376l392 -460v-20h-420v20zM204 -245v0q20 29 32.5 57.5t13.5 54.5h-2.5h-2.5q-11 0 -17.5 6.5t-6.5 17.5q0 10 7 17.5t18 7.5t18 -8t7 -21q0 -30 -15 -70.5t-32 -61.5h-20z" />
    <glyph glyph-name="germandbls.ss03" horiz-adv-x="735" 
d="M160 480h-110v20h110v67q0 53 24.5 92t70 60t107.5 21t107.5 -21t70 -60t24.5 -92v-87h-231l392 -460v-20h-420v20h394l-392 460v20h237v67q0 50 -22.5 84t-63.5 51.5t-96 17.5q-84 0 -133 -39.5t-49 -113.5v-14.5v-15.5v-23v-23v-691h-20v680z" />
    <glyph glyph-name="u.ss03" horiz-adv-x="640" 
d="M530 0h-420v500h20v-480h380v480h20v-500z" />
    <glyph glyph-name="uacute.ss03" horiz-adv-x="640" 
d="M530 0h-420v500h20v-480h380v480h20v-500zM386 745h22l-67 -160h-21z" />
    <glyph glyph-name="ucircumflex.ss03" horiz-adv-x="640" 
d="M530 0h-420v500h20v-480h380v480h20v-500zM463 585l-143 140l-144 -140h-28l164 160h16l164 -160h-29z" />
    <glyph glyph-name="udieresis.ss03" horiz-adv-x="640" 
d="M530 0h-420v500h20v-480h380v480h20v-500zM245 745h27l-9 -160h-9zM369 745h27l-9 -160h-9z" />
    <glyph glyph-name="ugrave.ss03" horiz-adv-x="640" 
d="M530 0h-420v500h20v-480h380v480h20v-500zM299 585l-67 160h22l66 -160h-21z" />
    <glyph glyph-name="uhungarumlaut.ss03" horiz-adv-x="640" 
d="M530 0h-420v500h20v-480h380v480h20v-500zM297.408 745h19.7998l-60.2979 -160h-18.8994zM418.408 745h19.7998l-60.2979 -160h-18.8994z" />
    <glyph glyph-name="umacron.ss03" horiz-adv-x="640" 
d="M530 0h-420v500h20v-480h380v480h20v-500zM480 680v-20h-320v20h320z" />
    <glyph glyph-name="uogonek.ss03" horiz-adv-x="640" 
d="M530 0h-420v500h20v-480h380v480h20v-500zM465 -245h-22l67 160h21z" />
    <glyph glyph-name="uring.ss03" horiz-adv-x="640" 
d="M530 0h-420v500h20v-480h380v480h20v-500zM320 585q-33 0 -60.5 16t-43.5 43.5t-16 60.5t16 60.5t43.5 43.5t60.5 16q32 0 60 -16t44 -44t16 -60t-16 -60t-44 -44t-60 -16zM320 605q27 0 50 13.5t36.5 36.5t13.5 50t-13.5 50t-36.5 36.5t-50 13.5q-28 0 -50.5 -13.5
t-36 -36t-13.5 -50.5t13.5 -50.5t36 -36t50.5 -13.5z" />
    <glyph glyph-name="w.ss03" horiz-adv-x="860" 
d="M110 500h20v-480h290v480h20v-480h290v480h20v-500h-640v500z" />
    <glyph glyph-name="wacute.ss03" horiz-adv-x="860" 
d="M110 500h20v-480h290v480h20v-480h290v480h20v-500h-640v500zM496 745h22l-67 -160h-21z" />
    <glyph glyph-name="wcircumflex.ss03" horiz-adv-x="860" 
d="M110 500h20v-480h290v480h20v-480h290v480h20v-500h-640v500zM573 585l-143 140l-144 -140h-28l164 160h16l164 -160h-29z" />
    <glyph glyph-name="wdieresis.ss03" horiz-adv-x="860" 
d="M110 500h20v-480h290v480h20v-480h290v480h20v-500h-640v500zM355 745h27l-9 -160h-9zM479 745h27l-9 -160h-9z" />
    <glyph glyph-name="wgrave.ss03" horiz-adv-x="860" 
d="M110 500h20v-480h290v480h20v-480h290v480h20v-500h-640v500zM409 585l-67 160h22l66 -160h-21z" />
    <glyph glyph-name="y.ss04" horiz-adv-x="518" 
d="M249 0l-239 500h22l227 -475l227 475h22l-239 -500v-200h-20v200z" />
    <glyph glyph-name="yacute.ss04" horiz-adv-x="518" 
d="M249 0l-239 500h22l227 -475l227 475h22l-239 -500v-200h-20v200zM325 745h22l-67 -160h-21z" />
    <glyph glyph-name="ycircumflex.ss04" horiz-adv-x="518" 
d="M249 0l-239 500h22l227 -475l227 475h22l-239 -500v-200h-20v200zM402 585l-143 140l-144 -140h-28l164 160h16l164 -160h-29z" />
    <glyph glyph-name="ydieresis.ss04" horiz-adv-x="518" 
d="M249 0l-239 500h22l227 -475l227 475h22l-239 -500v-200h-20v200zM184 745h27l-9 -160h-9zM308 745h27l-9 -160h-9z" />
    <glyph glyph-name="ygrave.ss04" horiz-adv-x="518" 
d="M249 0l-239 500h22l227 -475l227 475h22l-239 -500v-200h-20v200zM238 585l-67 160h22l66 -160h-21z" />
    <glyph glyph-name="uni0410" unicode="&#x410;" horiz-adv-x="664" 
d="M319 700h26l304 -700h-22l-100 230h-391l-100 -230h-21zM519 249l-187 432v0l-188 -432h375z" />
    <glyph glyph-name="uni0411" unicode="&#x411;" horiz-adv-x="686" 
d="M140 700h430v-20h-410v-292h201q114 0 179.5 -52t65.5 -142t-65.5 -142t-179.5 -52h-221v700zM361 20q106 0 165.5 46.5t59.5 127.5t-59.5 127.5t-165.5 46.5h-201v-348h201z" />
    <glyph glyph-name="uni0412" unicode="&#x412;" horiz-adv-x="697" 
d="M140 700h236q106 0 166.5 -48t60.5 -132q0 -63 -35 -105.5t-102 -59.5v-4q81 -13 123.5 -57.5t42.5 -113.5q0 -56 -27.5 -96.5t-78.5 -62t-121 -21.5h-265v700zM405 20q98 0 152.5 42.5t54.5 117.5t-55.5 117.5t-151.5 42.5h-245v-320h245zM376 360q98 0 152.5 42.5
t54.5 117.5t-54.5 117.5t-152.5 42.5h-216v-320h216z" />
    <glyph glyph-name="uni0413" unicode="&#x413;" horiz-adv-x="600" 
d="M140 700h420v-20h-400v-680h-20v700z" />
    <glyph glyph-name="uni0490" unicode="&#x490;" horiz-adv-x="600" 
d="M560 870v-190h-400v-680h-20v700h400v170h20z" />
    <glyph glyph-name="uni0414" unicode="&#x414;" horiz-adv-x="750" 
d="M25 20h63q33 108 47 221t14 273v21.5v20.5v144h456v-680h85v-190h-20v170h-625v-170h-20v190zM585 20v660h-416v-166q0 -158 -14 -272t-46 -222h476z" />
    <glyph glyph-name="uni0415" unicode="&#x415;" horiz-adv-x="590" 
d="M140 700h370v-20h-350v-320h264v-20h-264v-320h400v-20h-420v700z" />
    <glyph glyph-name="uni0401" unicode="&#x401;" horiz-adv-x="590" 
d="M140 700h370v-20h-350v-320h264v-20h-264v-320h400v-20h-420v700zM251 945h27l-9 -160h-9zM375 945h27l-9 -160h-9z" />
    <glyph glyph-name="uni0416" unicode="&#x416;" horiz-adv-x="978" 
d="M315 350l-275 350h26l267 -340h146v340h20v-340h146l267 340h26l-275 -350l275 -350h-27l-267 340h-145v-340h-20v340h-146l-267 -340h-26z" />
    <glyph glyph-name="uni0417" unicode="&#x417;" horiz-adv-x="636" 
d="M341 -15q-82 0 -147 29.5t-105 83.5t-49 126h18q16 -101 91.5 -160t191.5 -59q110 0 174.5 46t64.5 124q0 46 -26.5 83.5t-72.5 59.5t-102 22h-73v20h73q52 0 96 22.5t69.5 60.5t25.5 83q0 50 -29 88.5t-81 59.5t-120 21q-109 0 -178.5 -58t-82.5 -157h-20q8 72 44.5 125
t97.5 81.5t139 28.5q74 0 131 -23.5t88 -66.5t31 -99q0 -63 -40.5 -110t-109.5 -65q67 -13 113 -62.5t46 -111.5q0 -60 -31 -103t-89 -66t-138 -23z" />
    <glyph glyph-name="uni0418" unicode="&#x418;" horiz-adv-x="840" 
d="M140 700h20v-668l516 668h24v-700h-20v674l-520 -674h-20v700z" />
    <glyph glyph-name="uni0419" unicode="&#x419;" horiz-adv-x="840" 
d="M140 700h20v-668l516 668h24v-700h-20v674l-520 -674h-20v700zM420 785q-51 0 -89.5 19t-59.5 53t-21 80v8h20v-8q0 -61 40 -96.5t110 -35.5t110 35.5t40 96.5v8h20v-8q0 -46 -21 -80t-59.5 -53t-89.5 -19z" />
    <glyph glyph-name="uni041A" unicode="&#x41a;" horiz-adv-x="664" 
d="M140 700h20v-340h142l296 340h26l-305 -350l305 -350h-27l-296 340h-141v-340h-20v700z" />
    <glyph glyph-name="uni041B" unicode="&#x41b;" horiz-adv-x="790" 
d="M62 -12q-20 0 -32.5 2.5t-26.5 9.5v21h0.5h0.5q17 -8 27.5 -10.5t30.5 -2.5q23 0 42.5 11t34.5 32t22 50q20 75 28.5 195t8.5 288v116h452v-700h-20v680h-412v-96q0 -176 -9.5 -295t-28.5 -193q-13 -50 -44.5 -79t-73.5 -29z" />
    <glyph glyph-name="uni041C" unicode="&#x41c;" horiz-adv-x="974" 
d="M140 700h32l316 -682l315 682h31v-700h-20v678l-314 -678h-26l-314 678v-678h-20v700z" />
    <glyph glyph-name="uni041D" unicode="&#x41d;" horiz-adv-x="820" 
d="M140 700h20v-340h500v340h20v-700h-20v340h-500v-340h-20v700z" />
    <glyph glyph-name="uni041E" unicode="&#x41e;" horiz-adv-x="860" 
d="M430 -15q-102 0 -184 47.5t-129 131t-47 186.5t47 186.5t129 131t184 47.5t184 -47.5t129 -131t47 -186.5t-47 -186.5t-129 -131t-184 -47.5zM430 5q96 0 173.5 45t122 123.5t44.5 176.5t-44.5 176.5t-122 123.5t-173.5 45t-173.5 -45t-122 -123.5t-44.5 -176.5
t44.5 -176.5t122 -123.5t173.5 -45z" />
    <glyph glyph-name="uni041F" unicode="&#x41f;" horiz-adv-x="820" 
d="M140 700h540v-700h-20v680h-500v-680h-20v700z" />
    <glyph glyph-name="uni0420" unicode="&#x420;" horiz-adv-x="630" 
d="M140 700h177q118 0 185.5 -53.5t67.5 -146.5t-67.5 -146.5t-185.5 -53.5h-157v-300h-20v700zM317 320q110 0 171.5 48t61.5 132t-61.5 132t-171.5 48h-157v-360h157z" />
    <glyph glyph-name="uni0421" unicode="&#x421;" horiz-adv-x="828" 
d="M428 -15q-103 0 -184.5 46.5t-127.5 129.5t-46 189t46 189t127.5 129.5t184.5 46.5q89 0 160 -34.5t116.5 -97.5t58.5 -148h-20q-13 79 -55.5 137.5t-109 90.5t-150.5 32q-98 0 -175 -43.5t-120 -122t-43 -179.5q0 -100 43 -178.5t120 -122.5t175 -44q84 0 150.5 32
t109 90.5t55.5 137.5h20q-13 -85 -58.5 -148t-116.5 -97.5t-160 -34.5z" />
    <glyph glyph-name="uni0422" unicode="&#x422;" horiz-adv-x="640" 
d="M310 680h-290v20h600v-20h-290v-680h-20v680z" />
    <glyph glyph-name="uni0423" unicode="&#x423;" horiz-adv-x="610" 
d="M244 -15q-37 0 -69 19.5t-51.5 56t-19.5 86.5v24h20v-24q0 -62 34 -102t86 -40q49 0 77.5 26t28.5 68t-30 93l-310 508h23l301 -492q14 -22 23.5 -46.5t12.5 -53.5l209 592h21l-202 -573q-26 -74 -60 -108t-94 -34z" />
    <glyph glyph-name="uni040E" unicode="&#x40e;" horiz-adv-x="610" 
d="M244 -15q-37 0 -69 19.5t-51.5 56t-19.5 86.5v24h20v-24q0 -62 34 -102t86 -40q49 0 77.5 26t28.5 68t-30 93l-310 508h23l301 -492q14 -22 23.5 -46.5t12.5 -53.5l209 592h21l-202 -573q-26 -74 -60 -108t-94 -34zM330 785q-51 0 -89.5 19t-59.5 53t-21 80v8h20v-8
q0 -61 40 -96.5t110 -35.5t110 35.5t40 96.5v8h20v-8q0 -46 -21 -80t-59.5 -53t-89.5 -19z" />
    <glyph glyph-name="uni0424" unicode="&#x424;" horiz-adv-x="980" 
d="M480 110h-89q-99 0 -168.5 29.5t-106 85.5t-36.5 135t36.5 135t106 85.5t168.5 29.5h89v100h20v-100h89q99 0 168.5 -29.5t106 -85.5t36.5 -135t-36.5 -135t-106 -85.5t-168.5 -29.5h-89v-110h-20v110zM480 130v460h-89q-141 0 -216 -59.5t-75 -170.5q0 -73 33.5 -124.5
t99 -78.5t158.5 -27h89zM589 130q93 0 158.5 27t99 78.5t33.5 124.5q0 111 -75 170.5t-216 59.5h-89v-460h89z" />
    <glyph glyph-name="uni0425" unicode="&#x425;" horiz-adv-x="660" 
d="M317 356l-282 344h26l269 -328l269 328h26l-282 -344l292 -356h-26l-279 340l-279 -340h-26z" />
    <glyph glyph-name="uni0427" unicode="&#x427;" horiz-adv-x="720" 
d="M560 300h-217q-118 0 -185.5 53.5t-67.5 146.5v200h20v-200q0 -84 61.5 -132t171.5 -48h217v380h20v-700h-20v300z" />
    <glyph glyph-name="uni0426" unicode="&#x426;" horiz-adv-x="825" 
d="M745 0h-605v700h20v-680h500v680h20v-680h85v-190h-20v170z" />
    <glyph glyph-name="uni0428" unicode="&#x428;" horiz-adv-x="1100" 
d="M140 700h20v-680h380v680h20v-680h380v680h20v-700h-820v700z" />
    <glyph glyph-name="uni0429" unicode="&#x429;" horiz-adv-x="1105" 
d="M1025 0h-885v700h20v-680h380v680h20v-680h380v680h20v-680h85v-190h-20v170z" />
    <glyph glyph-name="uni042C" unicode="&#x42c;" horiz-adv-x="652" 
d="M140 700h20v-300h164q118 0 185.5 -53.5t67.5 -146.5q0 -62 -30.5 -107t-87.5 -69t-135 -24h-184v700zM324 20q110 0 171.5 48t61.5 132t-61.5 132t-171.5 48h-164v-360h164z" />
    <glyph glyph-name="uni042A" unicode="&#x42a;" horiz-adv-x="752" 
d="M20 700h228v-20h-228v20zM240 700h20v-300h164q118 0 185.5 -53.5t67.5 -146.5q0 -62 -30.5 -107t-87.5 -69t-135 -24h-184v700zM424 20q110 0 171.5 48t61.5 132t-61.5 132t-171.5 48h-164v-360h164z" />
    <glyph glyph-name="uni042B" unicode="&#x42b;" horiz-adv-x="910" 
d="M140 700h20v-300h164q118 0 185.5 -53.5t67.5 -146.5q0 -62 -30.5 -107t-87.5 -69t-135 -24h-184v700zM324 20q110 0 171.5 48t61.5 132t-61.5 132t-171.5 48h-164v-360h164zM750 700h20v-700h-20v700z" />
    <glyph glyph-name="uni0404" unicode="&#x404;" horiz-adv-x="827" 
d="M428 -15q-103 0 -184.5 46.5t-127.5 129.5t-46 189t46 189t127.5 129.5t184.5 46.5q87 0 157 -33t116 -94t61 -143h-21q-14 76 -57 132.5t-108.5 87t-147.5 30.5q-97 0 -173 -42t-119.5 -118.5t-45.5 -174.5h314v-20h-314q2 -98 46 -174t120 -118.5t172 -42.5
q82 0 147.5 30.5t108.5 87t57 132.5h21q-15 -82 -61 -143t-116 -94t-157 -33z" />
    <glyph glyph-name="uni042D" unicode="&#x42d;" horiz-adv-x="801" 
d="M382 -15q-89 0 -161.5 33t-119 94t-61.5 143h20q15 -76 59 -132.5t111.5 -87t151.5 -30.5q94 0 168 42.5t116.5 118.5t44.5 174h-314v20h314q-2 98 -44.5 174t-116.5 118.5t-168 42.5q-84 0 -151.5 -30.5t-111.5 -87t-59 -132.5h-20q15 82 61.5 143t119 94t161.5 33
q101 0 180.5 -46.5t124 -129.5t44.5 -189t-44.5 -189t-124 -129.5t-180.5 -46.5z" />
    <glyph glyph-name="uni0406" unicode="&#x406;" horiz-adv-x="300" 
d="M140 700h20v-700h-20v700z" />
    <glyph glyph-name="uni0407" unicode="&#x407;" horiz-adv-x="300" 
d="M140 700h20v-700h-20v700zM75 945h27l-9 -160h-9zM199 945h27l-9 -160h-9z" />
    <glyph glyph-name="uni042E" unicode="&#x42e;" horiz-adv-x="1120" 
d="M700 -15q-97 0 -176 46t-125.5 127t-48.5 182h-190v-340h-20v700h20v-340h190q2 101 48.5 182t125.5 127t176 46q99 0 179 -47.5t125.5 -131t45.5 -186.5t-45.5 -186.5t-125.5 -131t-179 -47.5zM700 5q93 0 168.5 45t118.5 123.5t43 176.5t-43 176.5t-118.5 123.5
t-168.5 45t-168.5 -45t-118.5 -123.5t-43 -176.5t43 -176.5t118.5 -123.5t168.5 -45z" />
    <glyph glyph-name="uni042F" unicode="&#x42f;" horiz-adv-x="659" 
d="M263 310q-86 15 -133.5 65.5t-47.5 127.5q0 92 67.5 144.5t185.5 52.5h184v-700h-20v304h-164h-13.5t-12.5 1q-6 0 -12 0.5t-11 1.5l-241 -307h-25zM499 324v356h-164q-110 0 -171.5 -47t-61.5 -130q0 -84 61.5 -131.5t171.5 -47.5h164z" />
    <glyph glyph-name="uni041D.ss02" horiz-adv-x="840" 
d="M140 700h24l516 -672v672h20v-700h-23l-517 672v-672h-20v700z" />
    <glyph glyph-name="uni0417.ss03" horiz-adv-x="622" 
d="M582 0h-532v20l514 660h-493v20h518v-20l-514 -660h527v-190h-20v170z" />
    <glyph glyph-name="uni0421.ss03" horiz-adv-x="592" 
d="M45 20l187 330l-187 330v20h518v-20h-495l187 -330l-187 -330h519v-20h-542v20z" />
    <glyph glyph-name="uni0422.ss03" horiz-adv-x="1100" 
d="M140 700h820v-700h-20v680h-380v-680h-20v680h-380v-680h-20v700z" />
    <glyph glyph-name="uni0423.ss04" horiz-adv-x="646" 
d="M313 274l-308 426h25l294 -406l293 406h24l-308 -426v-274h-20v274z" />
    <glyph glyph-name="uni040E.ss04" horiz-adv-x="646" 
d="M313 274l-308 426h25l294 -406l293 406h24l-308 -426v-274h-20v274zM323 785q-51 0 -89.5 19t-59.5 53t-21 80v8h20v-8q0 -61 40 -96.5t110 -35.5t110 35.5t40 96.5v8h20v-8q0 -46 -21 -80t-59.5 -53t-89.5 -19z" />
    <glyph glyph-name="uni0430" unicode="&#x430;" horiz-adv-x="606" 
d="M220 -12q-78 0 -119 35t-41 94q0 57 39.5 89.5t95.5 45t128 17.5q70 4 106.5 14t36.5 35q0 76 -50.5 124t-130.5 48q-78 0 -128.5 -44t-64.5 -122h-20q9 57 37.5 99t73.5 64.5t102 22.5q60 0 105.5 -24.5t70.5 -69.5t25 -104v-292h80v-20h-99v145q-26 -71 -94 -114
t-153 -43zM220 8q70 0 126 30t88 81t32 112l1 50q-16 -13 -47 -20t-82 -10q-3 0 -6.5 -0.5t-7.5 -0.5q-128 -9 -186 -40.5t-58 -92.5q0 -52 37.5 -80.5t102.5 -28.5z" />
    <glyph glyph-name="uni0431" unicode="&#x431;" horiz-adv-x="620" 
d="M315 -10q-70 0 -127 31.5t-90 86.5t-33 122v146q2 90 38 148t96 85t137 27h157v74h20v-94h-177q-81 0 -137 -28.5t-85 -83t-29 -132.5v-51q16 44 50.5 77.5t81 52.5t98.5 19q70 0 127 -31.5t90 -86.5t33 -122t-33 -122t-90 -86.5t-127 -31.5zM315 10q64 0 116.5 29t83 79
t30.5 112t-30.5 112t-83 79t-116.5 29t-116.5 -29t-83 -79t-30.5 -112t30.5 -112t83 -79t116.5 -29z" />
    <glyph glyph-name="uni0432" unicode="&#x432;" horiz-adv-x="543" 
d="M110 500h194q81 0 127.5 -34t46.5 -95q0 -45 -26.5 -75t-76.5 -42v-4q59 -10 91 -41t32 -80q0 -61 -46.5 -95t-131.5 -34h-210v500zM321 20q75 0 116 29t41 82q0 52 -42.5 80.5t-118.5 28.5h-187v-220h191zM298 260q76 0 118 28.5t42 80.5q0 53 -39.5 82t-111.5 29h-177
v-220h168z" />
    <glyph glyph-name="uni0433" unicode="&#x433;" horiz-adv-x="450" 
d="M110 500h330v-20h-310v-480h-20v500z" />
    <glyph glyph-name="uni0491" unicode="&#x491;" horiz-adv-x="450" 
d="M110 500h310v120h20v-140h-310v-680h-20v700z" />
    <glyph glyph-name="uni0434" unicode="&#x434;" horiz-adv-x="572" 
d="M16 20h49q23 75 32.5 155t9.5 192v19.5v19.5v9.5v8.5v76h353v-480h65v-150h-20v130h-469v-130h-20v150zM440 20v460h-313v-113q0 -110 -9.5 -190t-30.5 -157h353z" />
    <glyph glyph-name="uni0435" unicode="&#x435;" horiz-adv-x="618" 
d="M312 -10q-71 0 -130 34.5t-93 94t-34 131.5t34 131.5t93 94t130 34.5t130 -34.5t92.5 -94t33.5 -131.5v-5v-5h-493q2 -65 34 -117.5t85 -82.5t118 -30q77 0 135.5 36.5t79.5 96.5h21q-14 -46 -48.5 -80.5t-83 -53.5t-104.5 -19zM548 260q-2 65 -33.5 117.5t-85 82.5
t-117.5 30q-65 0 -118 -30t-85 -82.5t-34 -117.5v0h473z" />
    <glyph glyph-name="uni0451" unicode="&#x451;" horiz-adv-x="618" 
d="M312 -10q-71 0 -130 34.5t-93 94t-34 131.5t34 131.5t93 94t130 34.5t130 -34.5t92.5 -94t33.5 -131.5v-5v-5h-493q2 -65 34 -117.5t85 -82.5t118 -30q77 0 135.5 36.5t79.5 96.5h21q-14 -46 -48.5 -80.5t-83 -53.5t-104.5 -19zM548 260q-2 65 -33.5 117.5t-85 82.5
t-117.5 30q-65 0 -118 -30t-85 -82.5t-34 -117.5v0h473zM230 745h27l-9 -160h-9zM354 745h27l-9 -160h-9z" />
    <glyph glyph-name="uni0436" unicode="&#x436;" horiz-adv-x="762" 
d="M246 250l-216 250h26l207 -240h107v450h20v-450h110l207 240h25l-216 -250l216 -250h-27l-207 240h-108v-240h-20v240h-106l-207 -240h-27z" />
    <glyph glyph-name="uni0437" unicode="&#x437;" horiz-adv-x="509" 
d="M264 -11q-67 0 -119 23.5t-82.5 66t-33.5 98.5h20q5 -77 63.5 -122.5t151.5 -45.5q85 0 132.5 33t47.5 92q0 28 -19 52t-52 39t-75 15h-61v20h56q56 0 97.5 29.5t41.5 73.5q0 58 -45.5 92.5t-123.5 34.5q-88 0 -141 -44t-58 -120h-20q3 55 31 96.5t76.5 64.5t111.5 23
q58 0 100.5 -18.5t65.5 -51.5t23 -77q0 -40 -28.5 -70t-76.5 -42q51 -10 84 -42.5t33 -74.5q0 -45 -24 -77.5t-69 -50t-107 -17.5z" />
    <glyph glyph-name="uni0438" unicode="&#x438;" horiz-adv-x="650" 
d="M110 500h20v-475l385 475h25v-500h-20v475l-385 -475h-25v500z" />
    <glyph glyph-name="uni0439" unicode="&#x439;" horiz-adv-x="650" 
d="M110 500h20v-475l385 475h25v-500h-20v475l-385 -475h-25v500zM325 585q-51 0 -89.5 19t-59.5 53t-21 80v8h20v-8q0 -61 40 -96.5t110 -35.5t110 35.5t40 96.5v8h20v-8q0 -46 -21 -80t-59.5 -53t-89.5 -19z" />
    <glyph glyph-name="uni043A" unicode="&#x43a;" horiz-adv-x="522" 
d="M110 710h20v-450h109l227 240h26l-236 -250l236 -250h-28l-227 240h-107v-240h-20v710z" />
    <glyph glyph-name="uni043B" unicode="&#x43b;" horiz-adv-x="616" 
d="M52 -11q-13 0 -25 3t-23 9v22q10 -7 22 -10t24 -3q22 0 41 13t30 38q13 31 20 102.5t9 172.5q1 18 1 36.5v37.5v90h355v-500h-20v480h-315v-70q0 -134 -7.5 -226t-24.5 -131q-14 -32 -36.5 -48t-50.5 -16z" />
    <glyph glyph-name="uni043C" unicode="&#x43c;" horiz-adv-x="766" 
d="M110 500h35l239 -478l238 478h34v-500h-20v484l-241 -484h-23l-242 484v-484h-20v500z" />
    <glyph glyph-name="uni043D" unicode="&#x43d;" horiz-adv-x="640" 
d="M110 500h20v-240h380v240h20v-500h-20v240h-380v-240h-20v500z" />
    <glyph glyph-name="uni043E" unicode="&#x43e;" horiz-adv-x="630" 
d="M315 -10q-72 0 -131.5 34.5t-94 94t-34.5 131.5t34.5 131.5t94 94t131.5 34.5t131.5 -34.5t94 -94t34.5 -131.5t-34.5 -131.5t-94 -94t-131.5 -34.5zM315 10q67 0 122 31.5t86.5 86.5t31.5 122t-31.5 122t-86.5 86.5t-122 31.5t-122 -31.5t-86.5 -86.5t-31.5 -122
t31.5 -122t86.5 -86.5t122 -31.5z" />
    <glyph glyph-name="uni043F" unicode="&#x43f;" horiz-adv-x="640" 
d="M110 500h420v-500h-20v480h-380v-480h-20v500z" />
    <glyph glyph-name="uni0440" unicode="&#x440;" horiz-adv-x="665" 
d="M110 500h20v-151q27 73 88.5 117t143.5 44q69 0 126 -34.5t89.5 -94t32.5 -131.5t-32.5 -131.5t-89.5 -94t-126 -34.5q-82 0 -143.5 44t-88.5 117v-351h-20v700zM360 10q64 0 116.5 31.5t83 86.5t30.5 122t-30.5 122t-83 86.5t-116.5 31.5t-116.5 -31.5t-83 -86.5
t-30.5 -122t30.5 -122t83 -86.5t116.5 -31.5z" />
    <glyph glyph-name="uni0441" unicode="&#x441;" horiz-adv-x="604" 
d="M311 -10q-72 0 -130.5 34t-92 93.5t-33.5 132.5t33.5 132.5t92 93.5t130.5 34q65 0 115.5 -23t83.5 -66t44 -102h-20q-17 80 -76 125.5t-147 45.5q-66 0 -120 -31.5t-85 -86.5t-31 -122t31 -122t85 -86.5t120 -31.5q88 0 147 45.5t76 125.5h20q-11 -59 -44 -102
t-83.5 -66t-115.5 -23z" />
    <glyph glyph-name="uni0442" unicode="&#x442;" horiz-adv-x="526" 
d="M253 480h-223v20h466v-20h-223v-480h-20v480z" />
    <glyph glyph-name="uni0443" unicode="&#x443;" horiz-adv-x="531" 
d="M166 -210q-42 0 -73.5 18t-49 50.5t-17.5 76.5v27h20v-27q0 -38 15 -66t42 -43.5t63 -15.5q55 0 87.5 34t32.5 91v18q0 26 -4.5 46t-16.5 41l-250 460h23l245 -451q4 -8 7.5 -17.5t4.5 -20.5q2 12 5 21t7 19l192 449h22l-196 -459q-10 -23 -14.5 -42.5t-4.5 -43.5v-20
q0 -44 -17.5 -76.5t-49 -50.5t-73.5 -18z" />
    <glyph glyph-name="uni045E" unicode="&#x45e;" horiz-adv-x="531" 
d="M166 -210q-42 0 -73.5 18t-49 50.5t-17.5 76.5v27h20v-27q0 -38 15 -66t42 -43.5t63 -15.5q55 0 87.5 34t32.5 91v18q0 26 -4.5 46t-16.5 41l-250 460h23l245 -451q4 -8 7.5 -17.5t4.5 -20.5q2 12 5 21t7 19l192 449h22l-196 -459q-10 -23 -14.5 -42.5t-4.5 -43.5v-20
q0 -44 -17.5 -76.5t-49 -50.5t-73.5 -18zM270 585q-51 0 -89.5 19t-59.5 53t-21 80v8h20v-8q0 -61 40 -96.5t110 -35.5t110 35.5t40 96.5v8h20v-8q0 -46 -21 -80t-59.5 -53t-89.5 -19z" />
    <glyph glyph-name="uni0444" unicode="&#x444;" horiz-adv-x="956" 
d="M468 141q-24 -70 -75.5 -110.5t-122.5 -40.5q-61 0 -110 33.5t-77 93t-28 133.5t28 133.5t77 93t110 33.5q71 0 122.5 -40.5t75.5 -110.5v351h20v-351q24 70 75.5 110.5t122.5 40.5q61 0 110 -33.5t77 -93t28 -133.5t-28 -133.5t-77 -93t-110 -33.5q-71 0 -122.5 40.5
t-75.5 110.5v-341h-20v341zM271 10q56 0 101 31t70.5 85.5t25.5 123.5t-25.5 123.5t-70.5 85.5t-101 31t-100.5 -31t-70 -85.5t-25.5 -123.5t25.5 -123.5t70 -85.5t100.5 -31zM685 10q56 0 100.5 31t70 85.5t25.5 123.5t-25.5 123.5t-70 85.5t-100.5 31t-101 -31
t-70.5 -85.5t-25.5 -123.5t25.5 -123.5t70.5 -85.5t101 -31z" />
    <glyph glyph-name="uni0445" unicode="&#x445;" horiz-adv-x="556" 
d="M265 254l-217 246h27l203 -230l204 230h26l-216 -246l224 -254h-27l-211 239l-211 -239h-27z" />
    <glyph glyph-name="uni0447" unicode="&#x447;" horiz-adv-x="559" 
d="M429 214h-178q-84 0 -132.5 38.5t-48.5 104.5v143h20v-143q0 -58 42.5 -90.5t118.5 -32.5h178v266h20v-500h-20v214z" />
    <glyph glyph-name="uni0446" unicode="&#x446;" horiz-adv-x="637" 
d="M570 0h-460v500h20v-480h375v480h20v-480h65v-150h-20v130z" />
    <glyph glyph-name="uni0448" unicode="&#x448;" horiz-adv-x="860" 
d="M110 500h20v-480h290v480h20v-480h290v480h20v-500h-640v500z" />
    <glyph glyph-name="uni0449" unicode="&#x449;" horiz-adv-x="862" 
d="M795 0h-685v500h20v-480h290v480h20v-480h290v480h20v-480h65v-150h-20v130z" />
    <glyph glyph-name="uni044C" unicode="&#x44c;" horiz-adv-x="502" 
d="M110 500h20v-210h131q86 0 136 -39t50 -106t-50 -106t-136 -39h-151v500zM261 20q78 0 122 33t44 92t-44 92t-122 33h-131v-250h131z" />
    <glyph glyph-name="uni044A" unicode="&#x44a;" horiz-adv-x="581" 
d="M20 500h178v-20h-178v20zM189 500h20v-210h131q86 0 136 -39t50 -106t-50 -106t-136 -39h-151v500zM340 20q78 0 122 33t44 92t-44 92t-122 33h-131v-250h131z" />
    <glyph glyph-name="uni044B" unicode="&#x44b;" horiz-adv-x="686" 
d="M110 500h20v-210h131q86 0 136 -39t50 -106t-50 -106t-136 -39h-151v500zM261 20q78 0 122 33t44 92t-44 92t-122 33h-131v-250h131zM556 500h20v-500h-20v500z" />
    <glyph glyph-name="uni0454" unicode="&#x454;" horiz-adv-x="604" 
d="M311 -10q-72 0 -130.5 34t-92 93.5t-33.5 132.5t33.5 132.5t92 93.5t130.5 34q65 0 115.5 -23t83.5 -66t44 -102h-20q-17 80 -76 125.5t-147 45.5q-65 0 -118 -30t-84.5 -82.5t-33.5 -117.5h226v-20h-226q2 -65 33.5 -117.5t84.5 -82.5t118 -30q88 0 147 45.5t76 125.5
h20q-11 -59 -44 -102t-83.5 -66t-115.5 -23z" />
    <glyph glyph-name="uni044D" unicode="&#x44d;" horiz-adv-x="604" 
d="M302 -10q-67 0 -120 23t-86.5 66t-45.5 102h21q17 -80 78 -125.5t153 -45.5q61 0 112 30t82 83t33 117h-226v20h226q-2 64 -33 117t-82 83t-112 30q-92 0 -153 -45.5t-78 -125.5h-21q12 59 45.5 102t86.5 66t120 23q68 0 124.5 -34t89.5 -93.5t33 -132.5t-33 -132.5
t-89.5 -93.5t-124.5 -34z" />
    <glyph glyph-name="uni0456" unicode="&#x456;" horiz-adv-x="240" 
d="M110 500h20v-500h-20v500zM105 745h30l-10 -160h-10z" />
    <glyph glyph-name="uni0457" unicode="&#x457;" horiz-adv-x="240" 
d="M110 500h20v-500h-20v500zM45 745h27l-9 -160h-9zM169 745h27l-9 -160h-9z" />
    <glyph glyph-name="uni044E" unicode="&#x44e;" horiz-adv-x="830" 
d="M525 -10q-68 0 -124.5 33t-90 90t-35.5 127h-145v-240h-20v500h20v-240h145q2 70 35.5 127t90 90t124.5 33q69 0 126.5 -34.5t90.5 -94t33 -131.5t-33 -131.5t-90.5 -94t-126.5 -34.5zM525 10q64 0 116.5 31.5t83 86.5t30.5 122t-30.5 122t-83 86.5t-116.5 31.5
t-116.5 -31.5t-83 -86.5t-30.5 -122t30.5 -122t83 -86.5t116.5 -31.5z" />
    <glyph glyph-name="uni044F" unicode="&#x44f;" horiz-adv-x="538" 
d="M203 214q-60 11 -93.5 47.5t-33.5 93.5q0 68 47 106.5t129 38.5h176v-500h-20v210h-156h-13t-12 1l-171 -211h-26zM408 230v250h-156q-73 0 -114.5 -33t-41.5 -92q0 -58 41.5 -91.5t114.5 -33.5h156z" />
    <glyph glyph-name="uni0491.ss01" horiz-adv-x="450" 
d="M110 500h310v120h20v-140h-310v-480h-20v500z" />
    <glyph glyph-name="uni0436.ss01" horiz-adv-x="762" 
d="M246 250l-216 250h26l207 -240h107v240h20v-240h110l207 240h25l-216 -250l216 -250h-27l-207 240h-108v-240h-20v240h-106l-207 -240h-27z" />
    <glyph glyph-name="uni043A.ss01" horiz-adv-x="522" 
d="M110 500h20v-240h109l227 240h26l-236 -250l236 -250h-28l-227 240h-107v-240h-20v500z" />
    <glyph glyph-name="uni043D.ss02" horiz-adv-x="650" 
d="M110 500h26l384 -475v475h20v-500h-26l-384 475v-475h-20v500z" />
    <glyph glyph-name="uni0437.ss03" horiz-adv-x="490" 
d="M440 0h-400v20l392 460h-376v20h402v-20l-392 -460h394v-150h-20v130z" />
    <glyph glyph-name="uni0441.ss03" horiz-adv-x="451" 
d="M47 20l137 230l-139 230v20h371v-20h-348l139 -230l-137 -230h366v-20h-389v20z" />
    <glyph glyph-name="uni0442.ss03" horiz-adv-x="860" 
d="M110 500h640v-500h-20v480h-290v-480h-20v480h-290v-480h-20v500z" />
    <glyph glyph-name="uni0443.ss04" horiz-adv-x="518" 
d="M249 0l-239 500h22l227 -475l227 475h22l-239 -500v-200h-20v200z" />
    <glyph glyph-name="uni045E.ss04" horiz-adv-x="518" 
d="M249 0l-239 500h22l227 -475l227 475h22l-239 -500v-200h-20v200zM259 585q-51 0 -89.5 19t-59.5 53t-21 80v8h20v-8q0 -61 40 -96.5t110 -35.5t110 35.5t40 96.5v8h20v-8q0 -46 -21 -80t-59.5 -53t-89.5 -19z" />
    <glyph glyph-name="uni04220410.dlig" horiz-adv-x="664" 
d="M322 505v175h-290v20h600v-20h-290v-175l307 -505h-23l-98 161h-392l-98 -161h-23zM516 181l-184 303l-184 -303h368z" />
    <glyph glyph-name="uni04420430.dlig" horiz-adv-x="616" 
d="M230 -12q-78 0 -119 33.5t-41 88.5q0 78 74.5 107.5t188.5 36.5h6t5 1q64 4 98 14t34 32q0 72 -50.5 117t-130.5 45q-78 0 -128.5 -41t-64.5 -115h-20q14 81 70 128t141 48v207h-233v20h466v-20h-213v-208q84 -5 133.5 -55.5t49.5 -131.5v-276h80v-20h-99v138
q-26 -67 -94 -108t-153 -41zM230 8q70 0 126 28t88 76t32 106l1 48q-15 -13 -46.5 -20t-81.5 -10l-15 -1q-128 -8 -186 -37.5t-58 -87.5q0 -49 37.5 -75.5t102.5 -26.5z" />
    <glyph glyph-name="zero" unicode="0" 
d="M350 -15q-83 0 -149 47t-103.5 130.5t-37.5 187.5t37.5 187.5t103.5 130.5t149 47t149 -47t103.5 -130.5t37.5 -187.5t-37.5 -187.5t-103.5 -130.5t-149 -47zM350 5q77 0 138.5 44.5t96.5 123t35 177.5t-35 177.5t-96.5 123t-138.5 44.5t-138.5 -44.5t-96.5 -123
t-35 -177.5t35 -177.5t96.5 -123t138.5 -44.5z" />
    <glyph glyph-name="one" unicode="1" horiz-adv-x="355" 
d="M190 675l-170 -105v23l174 107h16v-700h-20v675z" />
    <glyph glyph-name="two" unicode="2" horiz-adv-x="597" 
d="M49 21l325 227q41 29 73 57.5t55 59.5q-35 -33 -86 -51.5t-113 -18.5q-75 0 -135 27t-94 74.5t-34 107.5t34 108t94 75.5t135 27.5t135 -27t94 -75t34 -109q0 -47 -20 -93t-55.5 -86.5t-82.5 -76.5q-5 -4 -10.5 -8t-11.5 -8l-304 -212h510v-20h-543v21zM303 315
q70 0 125 24.5t86.5 67.5t31.5 97q0 55 -31 98.5t-86.5 68t-125.5 24.5t-125 -24.5t-86.5 -68t-31.5 -98.5q0 -54 31.5 -97t86.5 -67.5t125 -24.5z" />
    <glyph glyph-name="three" unicode="3" horiz-adv-x="555" 
d="M274 -15q-72 0 -130 27.5t-91 76.5t-33 110h20q0 -56 30.5 -100t83.5 -69t120 -25t120 26t83.5 72.5t30.5 104.5q0 85 -52 136.5t-138 51.5q-36 0 -71 -9.5t-57 -25.5l-11 -8l-15 17l333 310h-466v20h488v-26l-303 -282q13 6 26 10.5t26 7.5t25.5 4.5t25.5 1.5
q61 0 108.5 -26t74 -73t26.5 -107q0 -64 -33 -115.5t-90.5 -80.5t-130.5 -29z" />
    <glyph glyph-name="four" unicode="4" horiz-adv-x="632" 
d="M434 199h-419v20l413 481h26v-481h173v-20h-173v-199h-20v199zM434 219v458l-393 -458h393z" />
    <glyph glyph-name="five" unicode="5" horiz-adv-x="608" 
d="M301 -15q-73 0 -130 25t-91.5 70t-39.5 104h20q5 -53 36.5 -93.5t84.5 -63t120 -22.5q72 0 127 28.5t85.5 79.5t30.5 117q0 62 -29 110t-81.5 74.5t-121.5 26.5q-83 0 -142 -32t-80 -86h-22l58 377h414v-20h-398l-48 -314q30 45 87 70t131 25t131.5 -29t89 -81.5
t31.5 -120.5q0 -72 -33 -127.5t-93 -86.5t-137 -31z" />
    <glyph glyph-name="six" unicode="6" horiz-adv-x="662" 
d="M346 -15q-84 0 -149 45.5t-101 128t-36 191.5q0 108 36.5 191t103 128.5t154.5 45.5q63 0 115.5 -23.5t86 -65t41.5 -94.5h-21q-12 72 -73.5 117.5t-148.5 45.5q-82 0 -144 -43t-96 -121t-34 -181q0 -24 1.5 -46.5t4.5 -44.5q11 58 48 103t93 69.5t123 24.5
q75 0 134.5 -31t93.5 -86t34 -124q0 -63 -36 -116t-97 -83.5t-133 -30.5zM346 5q67 0 123.5 28t89.5 76.5t33 105.5q0 63 -31 113.5t-86.5 79t-124.5 28.5t-125.5 -28.5t-89 -76.5t-32.5 -104q0 -47 31 -99t86.5 -87.5t125.5 -35.5z" />
    <glyph glyph-name="seven" unicode="7" horiz-adv-x="565" 
d="M214 0q11 126 58 254t116.5 238t146.5 188h-525v20h545v-27q-77 -77 -146 -185.5t-116 -235t-59 -252.5h-20z" />
    <glyph glyph-name="eight" unicode="8" horiz-adv-x="670" 
d="M335 -15q-77 0 -138.5 25t-96.5 68.5t-35 98.5q0 66 51.5 114.5t136.5 65.5q-52 11 -92 35.5t-62 59t-22 75.5q0 52 33.5 94t92 65.5t132.5 23.5t132.5 -23.5t92 -65.5t33.5 -94q0 -41 -22 -75.5t-62 -59t-92 -35.5q85 -17 136.5 -65.5t51.5 -114.5q0 -55 -35 -98.5
t-96.5 -68.5t-138.5 -25zM335 5q71 0 128.5 22t89.5 61.5t32 87.5t-32 87.5t-89.5 61.5t-128.5 22t-128.5 -22t-89.5 -61.5t-32 -87.5t32 -87.5t89.5 -61.5t128.5 -22zM335 367q68 0 122.5 21t85 58t30.5 83t-30.5 82.5t-85 57.5t-122.5 21t-122.5 -21t-85 -57.5
t-30.5 -82.5t30.5 -83t85 -58t122.5 -21z" />
    <glyph glyph-name="nine" unicode="9" horiz-adv-x="662" 
d="M316 715q84 0 149 -45.5t101 -128t36 -191.5q0 -108 -36.5 -191t-103 -128.5t-154.5 -45.5q-63 0 -115.5 23.5t-86 65t-41.5 94.5h21q12 -72 73.5 -117.5t148.5 -45.5q82 0 144 43t96 121t34 181q0 24 -1.5 46.5t-4.5 44.5q-11 -58 -48 -103t-93 -69.5t-123 -24.5
q-75 0 -134.5 31t-93.5 86t-34 124q0 63 36 116t97 83.5t133 30.5zM316 695q-67 0 -123.5 -28t-89.5 -76.5t-33 -105.5q0 -63 31 -113.5t86.5 -79t124.5 -28.5t125.5 28.5t89 76.5t32.5 104q0 47 -31 99t-86.5 87.5t-125.5 35.5z" />
    <glyph glyph-name="zero.lf" 
d="M350 -15q-83 0 -149 47t-103.5 130.5t-37.5 187.5t37.5 187.5t103.5 130.5t149 47t149 -47t103.5 -130.5t37.5 -187.5t-37.5 -187.5t-103.5 -130.5t-149 -47zM350 5q77 0 138.5 44.5t96.5 123t35 177.5t-35 177.5t-96.5 123t-138.5 44.5t-138.5 -44.5t-96.5 -123
t-35 -177.5t35 -177.5t96.5 -123t138.5 -44.5z" />
    <glyph glyph-name="one.lf" horiz-adv-x="355" 
d="M190 675l-170 -105v23l174 107h16v-700h-20v675z" />
    <glyph glyph-name="two.lf" horiz-adv-x="597" 
d="M49 21l325 227q41 29 73 57.5t55 59.5q-35 -33 -86 -51.5t-113 -18.5q-75 0 -135 27t-94 74.5t-34 107.5t34 108t94 75.5t135 27.5t135 -27t94 -75t34 -109q0 -47 -20 -93t-55.5 -86.5t-82.5 -76.5q-5 -4 -10.5 -8t-11.5 -8l-304 -212h510v-20h-543v21zM303 315
q70 0 125 24.5t86.5 67.5t31.5 97q0 55 -31 98.5t-86.5 68t-125.5 24.5t-125 -24.5t-86.5 -68t-31.5 -98.5q0 -54 31.5 -97t86.5 -67.5t125 -24.5z" />
    <glyph glyph-name="three.lf" horiz-adv-x="555" 
d="M274 -15q-72 0 -130 27.5t-91 76.5t-33 110h20q0 -56 30.5 -100t83.5 -69t120 -25t120 26t83.5 72.5t30.5 104.5q0 85 -52 136.5t-138 51.5q-36 0 -71 -9.5t-57 -25.5l-11 -8l-15 17l333 310h-466v20h488v-26l-303 -282q13 6 26 10.5t26 7.5t25.5 4.5t25.5 1.5
q61 0 108.5 -26t74 -73t26.5 -107q0 -64 -33 -115.5t-90.5 -80.5t-130.5 -29z" />
    <glyph glyph-name="four.lf" horiz-adv-x="632" 
d="M434 199h-419v20l413 481h26v-481h173v-20h-173v-199h-20v199zM434 219v458l-393 -458h393z" />
    <glyph glyph-name="five.lf" horiz-adv-x="608" 
d="M301 -15q-73 0 -130 25t-91.5 70t-39.5 104h20q5 -53 36.5 -93.5t84.5 -63t120 -22.5q72 0 127 28.5t85.5 79.5t30.5 117q0 62 -29 110t-81.5 74.5t-121.5 26.5q-83 0 -142 -32t-80 -86h-22l58 377h414v-20h-398l-48 -314q30 45 87 70t131 25t131.5 -29t89 -81.5
t31.5 -120.5q0 -72 -33 -127.5t-93 -86.5t-137 -31z" />
    <glyph glyph-name="six.lf" horiz-adv-x="662" 
d="M346 -15q-84 0 -149 45.5t-101 128t-36 191.5q0 108 36.5 191t103 128.5t154.5 45.5q63 0 115.5 -23.5t86 -65t41.5 -94.5h-21q-12 72 -73.5 117.5t-148.5 45.5q-82 0 -144 -43t-96 -121t-34 -181q0 -24 1.5 -46.5t4.5 -44.5q11 58 48 103t93 69.5t123 24.5
q75 0 134.5 -31t93.5 -86t34 -124q0 -63 -36 -116t-97 -83.5t-133 -30.5zM346 5q67 0 123.5 28t89.5 76.5t33 105.5q0 63 -31 113.5t-86.5 79t-124.5 28.5t-125.5 -28.5t-89 -76.5t-32.5 -104q0 -47 31 -99t86.5 -87.5t125.5 -35.5z" />
    <glyph glyph-name="seven.lf" horiz-adv-x="565" 
d="M214 0q11 126 58 254t116.5 238t146.5 188h-525v20h545v-27q-77 -77 -146 -185.5t-116 -235t-59 -252.5h-20z" />
    <glyph glyph-name="eight.lf" horiz-adv-x="670" 
d="M335 -15q-77 0 -138.5 25t-96.5 68.5t-35 98.5q0 66 51.5 114.5t136.5 65.5q-52 11 -92 35.5t-62 59t-22 75.5q0 52 33.5 94t92 65.5t132.5 23.5t132.5 -23.5t92 -65.5t33.5 -94q0 -41 -22 -75.5t-62 -59t-92 -35.5q85 -17 136.5 -65.5t51.5 -114.5q0 -55 -35 -98.5
t-96.5 -68.5t-138.5 -25zM335 5q71 0 128.5 22t89.5 61.5t32 87.5t-32 87.5t-89.5 61.5t-128.5 22t-128.5 -22t-89.5 -61.5t-32 -87.5t32 -87.5t89.5 -61.5t128.5 -22zM335 367q68 0 122.5 21t85 58t30.5 83t-30.5 82.5t-85 57.5t-122.5 21t-122.5 -21t-85 -57.5
t-30.5 -82.5t30.5 -83t85 -58t122.5 -21z" />
    <glyph glyph-name="nine.lf" horiz-adv-x="662" 
d="M316 715q84 0 149 -45.5t101 -128t36 -191.5q0 -108 -36.5 -191t-103 -128.5t-154.5 -45.5q-63 0 -115.5 23.5t-86 65t-41.5 94.5h21q12 -72 73.5 -117.5t148.5 -45.5q82 0 144 43t96 121t34 181q0 24 -1.5 46.5t-4.5 44.5q-11 -58 -48 -103t-93 -69.5t-123 -24.5
q-75 0 -134.5 31t-93.5 86t-34 124q0 63 36 116t97 83.5t133 30.5zM316 695q-67 0 -123.5 -28t-89.5 -76.5t-33 -105.5q0 -63 31 -113.5t86.5 -79t124.5 -28.5t125.5 28.5t89 76.5t32.5 104q0 47 -31 99t-86.5 87.5t-125.5 35.5z" />
    <glyph glyph-name="zero.osf" 
d="M350 -15q-83 0 -149 40.5t-103.5 112.5t-37.5 162t37.5 162t103.5 112.5t149 40.5t149 -40.5t103.5 -112.5t37.5 -162t-37.5 -162t-103.5 -112.5t-149 -40.5zM350 5q77 0 139 38t96.5 105.5t34.5 151.5t-34.5 151.5t-96.5 105.5t-139 38t-139 -38t-96.5 -105.5
t-34.5 -151.5t34.5 -151.5t96.5 -105.5t139 -38z" />
    <glyph glyph-name="one.osf" horiz-adv-x="380" 
d="M220 575l-170 -105v23l174 107h16v-600h-20v575z" />
    <glyph glyph-name="two.osf" horiz-adv-x="622" 
d="M59 21l326 196q4 2 7.5 4.5t7.5 4.5q6 4 12 7t11 7q-13 -4 -26.5 -7t-27.5 -5t-28 -3t-28 -1q-75 0 -135 25t-94 69.5t-34 100.5t34 101t94 70.5t135 25.5q76 0 135.5 -25t93.5 -70t34 -102q0 -47 -25 -86.5t-63.5 -70.5t-92.5 -63l-298 -179h505v-20h-543v21zM313 244
q70 0 125 22.5t86.5 62.5t31.5 90q0 51 -31 91.5t-86.5 63t-125.5 22.5t-125 -22.5t-86.5 -63t-31.5 -91.5q0 -50 31.5 -90t86.5 -62.5t125 -22.5z" />
    <glyph glyph-name="three.osf" horiz-adv-x="575" 
d="M274 -15q-72 0 -130 27.5t-91 76.5t-33 110h20q0 -56 30.5 -100t83.5 -69t120 -25t120 26t83.5 72.5t30.5 104.5q0 85 -52 136.5t-138 51.5q-36 0 -71 -9.5t-57 -25.5l-11 -8l-15 17l333 310h-466v20h488v-26l-303 -282q13 6 26 10.5t26 7.5t25.5 4.5t25.5 1.5
q61 0 108.5 -26t74 -73t26.5 -107q0 -64 -33 -115.5t-90.5 -80.5t-130.5 -29z" />
    <glyph glyph-name="four.osf" horiz-adv-x="622" 
d="M429 99h-419v20l413 481h26v-481h173v-20h-173v-199h-20v199zM429 119v458l-393 -458h393z" />
    <glyph glyph-name="five.osf" horiz-adv-x="608" 
d="M301 -115q-73 0 -130 25t-91.5 70t-39.5 104h20q5 -53 36.5 -93.5t84.5 -63t120 -22.5q72 0 127 28.5t85.5 79.5t30.5 117q0 62 -29 110t-81.5 74.5t-121.5 26.5q-83 0 -142 -32t-80 -86h-22l58 377h414v-20h-398l-48 -314q30 45 87 70t131 25t131.5 -29t89 -81.5
t31.5 -120.5q0 -72 -33 -127.5t-93 -86.5t-137 -31z" />
    <glyph glyph-name="six.osf" horiz-adv-x="662" 
d="M346 -15q-84 0 -149 45.5t-101 128t-36 191.5q0 108 36.5 191t103 128.5t154.5 45.5q63 0 115.5 -23.5t86 -65t41.5 -94.5h-21q-12 72 -73.5 117.5t-148.5 45.5q-82 0 -144 -43t-96 -121t-34 -181q0 -24 1.5 -46.5t4.5 -44.5q11 58 48 103t93 69.5t123 24.5
q75 0 134.5 -31t93.5 -86t34 -124q0 -63 -36 -116t-97 -83.5t-133 -30.5zM346 5q67 0 123.5 28t89.5 76.5t33 105.5q0 63 -31 113.5t-86.5 79t-124.5 28.5t-125.5 -28.5t-89 -76.5t-32.5 -104q0 -47 31 -99t86.5 -87.5t125.5 -35.5z" />
    <glyph glyph-name="seven.osf" horiz-adv-x="555" 
d="M209 -100q11 126 58 254t116.5 238t146.5 188h-525v20h545v-27q-77 -77 -146 -185.5t-116 -235t-59 -252.5h-20z" />
    <glyph glyph-name="eight.osf" horiz-adv-x="670" 
d="M335 -15q-77 0 -138.5 25t-96.5 68.5t-35 98.5q0 66 51.5 114.5t136.5 65.5q-52 11 -92 35.5t-62 59t-22 75.5q0 52 33.5 94t92 65.5t132.5 23.5t132.5 -23.5t92 -65.5t33.5 -94q0 -41 -22 -75.5t-62 -59t-92 -35.5q85 -17 136.5 -65.5t51.5 -114.5q0 -55 -35 -98.5
t-96.5 -68.5t-138.5 -25zM335 5q71 0 128.5 22t89.5 61.5t32 87.5t-32 87.5t-89.5 61.5t-128.5 22t-128.5 -22t-89.5 -61.5t-32 -87.5t32 -87.5t89.5 -61.5t128.5 -22zM335 367q68 0 122.5 21t85 58t30.5 83t-30.5 82.5t-85 57.5t-122.5 21t-122.5 -21t-85 -57.5
t-30.5 -82.5t30.5 -83t85 -58t122.5 -21z" />
    <glyph glyph-name="nine.osf" horiz-adv-x="662" 
d="M316 615q84 0 149 -45.5t101 -128t36 -191.5q0 -108 -36.5 -191t-103 -128.5t-154.5 -45.5q-63 0 -115.5 23.5t-86 65t-41.5 94.5h21q12 -72 73.5 -117.5t148.5 -45.5q82 0 144 43t96 121t34 181q0 24 -1.5 46.5t-4.5 44.5q-11 -58 -48 -103t-93 -69.5t-123 -24.5
q-75 0 -134.5 31t-93.5 86t-34 124q0 63 36 116t97 83.5t133 30.5zM316 595q-67 0 -123.5 -28t-89.5 -76.5t-33 -105.5q0 -63 31 -113.5t86.5 -79t124.5 -28.5t125.5 28.5t89 76.5t32.5 104q0 47 -31 99t-86.5 87.5t-125.5 35.5z" />
    <glyph glyph-name="zero.tf" 
d="M350 -15q-83 0 -149 47t-103.5 130.5t-37.5 187.5t37.5 187.5t103.5 130.5t149 47t149 -47t103.5 -130.5t37.5 -187.5t-37.5 -187.5t-103.5 -130.5t-149 -47zM350 5q77 0 138.5 44.5t96.5 123t35 177.5t-35 177.5t-96.5 123t-138.5 44.5t-138.5 -44.5t-96.5 -123
t-35 -177.5t35 -177.5t96.5 -123t138.5 -44.5z" />
    <glyph glyph-name="one.tf" 
d="M92 20h257v655l-200 -124v23l204 126h16v-680h263v-20h-540v20z" />
    <glyph glyph-name="two.tf" 
d="M90 21l325 227q41 29 73 57.5t55 59.5q-35 -33 -86 -51.5t-113 -18.5q-75 0 -135 27t-94 74.5t-34 107.5t34 108t94 75.5t135 27.5t135 -27t94 -75t34 -109q0 -47 -20 -93t-55.5 -86.5t-82.5 -76.5q-5 -4 -10.5 -8t-11.5 -8l-304 -212h510v-20h-543v21zM344 315
q70 0 125 24.5t86.5 67.5t31.5 97q0 55 -31 98.5t-86.5 68t-125.5 24.5t-125 -24.5t-86.5 -68t-31.5 -98.5q0 -54 31.5 -97t86.5 -67.5t125 -24.5z" />
    <glyph glyph-name="three.tf" 
d="M327 -15q-72 0 -130 27.5t-91 76.5t-33 110h20q0 -56 30.5 -100t83.5 -69t120 -25t120 26t83.5 72.5t30.5 104.5q0 85 -52 136.5t-138 51.5q-36 0 -71 -9.5t-57 -25.5l-11 -8l-15 17l333 310h-466v20h488v-26l-303 -282q13 6 26 10.5t26 7.5t25.5 4.5t25.5 1.5
q61 0 108.5 -26t74 -73t26.5 -107q0 -64 -33 -115.5t-90.5 -80.5t-130.5 -29z" />
    <glyph glyph-name="four.tf" 
d="M459 199h-419v20l413 481h26v-481h173v-20h-173v-199h-20v199zM459 219v458l-393 -458h393z" />
    <glyph glyph-name="five.tf" 
d="M341 -15q-73 0 -130 25t-91.5 70t-39.5 104h20q5 -53 36.5 -93.5t84.5 -63t120 -22.5q72 0 127 28.5t85.5 79.5t30.5 117q0 62 -29 110t-81.5 74.5t-121.5 26.5q-83 0 -142 -32t-80 -86h-22l58 377h414v-20h-398l-48 -314q30 45 87 70t131 25t131.5 -29t89 -81.5
t31.5 -120.5q0 -72 -33 -127.5t-93 -86.5t-137 -31z" />
    <glyph glyph-name="six.tf" 
d="M356 -15q-84 0 -149 45.5t-101 128t-36 191.5q0 108 36.5 191t103 128.5t154.5 45.5q63 0 115.5 -23.5t86 -65t41.5 -94.5h-21q-12 72 -73.5 117.5t-148.5 45.5q-82 0 -144 -43t-96 -121t-34 -181q0 -24 1.5 -46.5t4.5 -44.5q11 58 48 103t93 69.5t123 24.5
q75 0 134.5 -31t93.5 -86t34 -124q0 -63 -36 -116t-97 -83.5t-133 -30.5zM356 5q67 0 123.5 28t89.5 76.5t33 105.5q0 63 -31 113.5t-86.5 79t-124.5 28.5t-125.5 -28.5t-89 -76.5t-32.5 -104q0 -47 31 -99t86.5 -87.5t125.5 -35.5z" />
    <glyph glyph-name="seven.tf" 
d="M274 0q11 126 59 254t118 238t149 188h-545v20h565v-27q-78 -77 -148 -185.5t-118 -235t-60 -252.5h-20z" />
    <glyph glyph-name="eight.tf" 
d="M350 -15q-77 0 -138.5 25t-96.5 68.5t-35 98.5q0 66 51.5 114.5t136.5 65.5q-52 11 -92 35.5t-62 59t-22 75.5q0 52 33.5 94t92 65.5t132.5 23.5t132.5 -23.5t92 -65.5t33.5 -94q0 -41 -22 -75.5t-62 -59t-92 -35.5q85 -17 136.5 -65.5t51.5 -114.5q0 -55 -35 -98.5
t-96.5 -68.5t-138.5 -25zM350 5q71 0 128.5 22t89.5 61.5t32 87.5t-32 87.5t-89.5 61.5t-128.5 22t-128.5 -22t-89.5 -61.5t-32 -87.5t32 -87.5t89.5 -61.5t128.5 -22zM350 367q68 0 122.5 21t85 58t30.5 83t-30.5 82.5t-85 57.5t-122.5 21t-122.5 -21t-85 -57.5
t-30.5 -82.5t30.5 -83t85 -58t122.5 -21z" />
    <glyph glyph-name="nine.tf" 
d="M324 715q84 0 149 -45.5t101 -128t36 -191.5q0 -108 -36.5 -191t-103 -128.5t-154.5 -45.5q-63 0 -115.5 23.5t-86 65t-41.5 94.5h21q12 -72 73.5 -117.5t148.5 -45.5q82 0 144 43t96 121t34 181q0 24 -1.5 46.5t-4.5 44.5q-11 -58 -48 -103t-93 -69.5t-123 -24.5
q-75 0 -134.5 31t-93.5 86t-34 124q0 63 36 116t97 83.5t133 30.5zM324 695q-67 0 -123.5 -28t-89.5 -76.5t-33 -105.5q0 -63 31 -113.5t86.5 -79t124.5 -28.5t125.5 28.5t89 76.5t32.5 104q0 47 -31 99t-86.5 87.5t-125.5 35.5z" />
    <glyph glyph-name="zero.tosf" 
d="M350 -15q-83 0 -149 40.5t-103.5 112.5t-37.5 162t37.5 162t103.5 112.5t149 40.5t149 -40.5t103.5 -112.5t37.5 -162t-37.5 -162t-103.5 -112.5t-149 -40.5zM350 5q77 0 139 38t96.5 105.5t34.5 151.5t-34.5 151.5t-96.5 105.5t-139 38t-139 -38t-96.5 -105.5
t-34.5 -151.5t34.5 -151.5t96.5 -105.5t139 -38z" />
    <glyph glyph-name="one.tosf" 
d="M88 20h257v555l-200 -124v23l204 126h16v-580h263v-20h-540v20z" />
    <glyph glyph-name="two.tosf" 
d="M84 21l326 196q4 2 7.5 4.5t7.5 4.5q6 4 12 7t11 7q-13 -4 -26.5 -7t-27.5 -5t-28 -3t-28 -1q-75 0 -135 25t-94 69.5t-34 100.5t34 101t94 70.5t135 25.5q76 0 135.5 -25t93.5 -70t34 -102q0 -47 -25 -86.5t-63.5 -70.5t-92.5 -63l-298 -179h505v-20h-543v21zM338 244
q70 0 125 22.5t86.5 62.5t31.5 90q0 51 -31 91.5t-86.5 63t-125.5 22.5t-125 -22.5t-86.5 -63t-31.5 -91.5q0 -50 31.5 -90t86.5 -62.5t125 -22.5z" />
    <glyph glyph-name="three.tosf" 
d="M319 -15q-72 0 -130 27.5t-91 76.5t-33 110h20q0 -56 30.5 -100t83.5 -69t120 -25t120 26t83.5 72.5t30.5 104.5q0 85 -52 136.5t-138 51.5q-36 0 -71 -9.5t-57 -25.5l-11 -8l-15 17l333 310h-466v20h488v-26l-303 -282q13 6 26 10.5t26 7.5t25.5 4.5t25.5 1.5
q61 0 108.5 -26t74 -73t26.5 -107q0 -64 -33 -115.5t-90.5 -80.5t-130.5 -29z" />
    <glyph glyph-name="four.tosf" 
d="M467 99h-419v20l413 481h26v-481h173v-20h-173v-199h-20v199zM467 119v458l-393 -458h393z" />
    <glyph glyph-name="five.tosf" 
d="M344 -115q-73 0 -130 25t-91.5 70t-39.5 104h20q5 -53 36.5 -93.5t84.5 -63t120 -22.5q72 0 127 28.5t85.5 79.5t30.5 117q0 62 -29 110t-81.5 74.5t-121.5 26.5q-83 0 -142 -32t-80 -86h-22l58 377h414v-20h-398l-48 -314q30 45 87 70t131 25t131.5 -29t89 -81.5
t31.5 -120.5q0 -72 -33 -127.5t-93 -86.5t-137 -31z" />
    <glyph glyph-name="six.tosf" 
d="M362 -15q-84 0 -149 45.5t-101 128t-36 191.5q0 108 36.5 191t103 128.5t154.5 45.5q63 0 115.5 -23.5t86 -65t41.5 -94.5h-21q-12 72 -73.5 117.5t-148.5 45.5q-82 0 -144 -43t-96 -121t-34 -181q0 -24 1.5 -46.5t4.5 -44.5q11 58 48 103t93 69.5t123 24.5
q75 0 134.5 -31t93.5 -86t34 -124q0 -63 -36 -116t-97 -83.5t-133 -30.5zM362 5q67 0 123.5 28t89.5 76.5t33 105.5q0 63 -31 113.5t-86.5 79t-124.5 28.5t-125.5 -28.5t-89 -76.5t-32.5 -104q0 -47 31 -99t86.5 -87.5t125.5 -35.5z" />
    <glyph glyph-name="seven.tosf" 
d="M277 -100q11 126 59 254t118 238t149 188h-545v20h565v-27q-78 -77 -148 -185.5t-118 -235t-60 -252.5h-20z" />
    <glyph glyph-name="eight.tosf" 
d="M350 -15q-77 0 -138.5 25t-96.5 68.5t-35 98.5q0 66 51.5 114.5t136.5 65.5q-52 11 -92 35.5t-62 59t-22 75.5q0 52 33.5 94t92 65.5t132.5 23.5t132.5 -23.5t92 -65.5t33.5 -94q0 -41 -22 -75.5t-62 -59t-92 -35.5q85 -17 136.5 -65.5t51.5 -114.5q0 -55 -35 -98.5
t-96.5 -68.5t-138.5 -25zM350 5q71 0 128.5 22t89.5 61.5t32 87.5t-32 87.5t-89.5 61.5t-128.5 22t-128.5 -22t-89.5 -61.5t-32 -87.5t32 -87.5t89.5 -61.5t128.5 -22zM350 367q68 0 122.5 21t85 58t30.5 83t-30.5 82.5t-85 57.5t-122.5 21t-122.5 -21t-85 -57.5
t-30.5 -82.5t30.5 -83t85 -58t122.5 -21z" />
    <glyph glyph-name="nine.tosf" 
d="M322 615q84 0 149 -45.5t101 -128t36 -191.5q0 -108 -36.5 -191t-103 -128.5t-154.5 -45.5q-63 0 -115.5 23.5t-86 65t-41.5 94.5h21q12 -72 73.5 -117.5t148.5 -45.5q82 0 144 43t96 121t34 181q0 24 -1.5 46.5t-4.5 44.5q-11 -58 -48 -103t-93 -69.5t-123 -24.5
q-75 0 -134.5 31t-93.5 86t-34 124q0 63 36 116t97 83.5t133 30.5zM322 595q-67 0 -123.5 -28t-89.5 -76.5t-33 -105.5q0 -63 31 -113.5t86.5 -79t124.5 -28.5t125.5 28.5t89 76.5t32.5 104q0 47 -31 99t-86.5 87.5t-125.5 35.5z" />
    <glyph glyph-name="period" unicode="." horiz-adv-x="220" 
d="M110 -5q-10 0 -17.5 7.5t-7.5 17.5q0 11 7.5 18t17.5 7q11 0 18 -7t7 -18q0 -10 -7 -17.5t-18 -7.5z" />
    <glyph glyph-name="comma" unicode="," horiz-adv-x="220" 
d="M68 -120v0q20 29 32.5 59t13.5 57h-2.5h-2.5q-10 0 -17 7t-7 17q0 7 3.5 12.5t9 9t12.5 3.5q11 0 18 -8t7 -21q0 -31 -15 -73t-32 -63h-20z" />
    <glyph glyph-name="colon" unicode=":" horiz-adv-x="220" 
d="M110 -5q-10 0 -17.5 7.5t-7.5 17.5q0 11 7.5 18t17.5 7q11 0 18 -7t7 -18q0 -10 -7 -17.5t-18 -7.5zM110 395q-10 0 -17.5 7.5t-7.5 17.5q0 11 7.5 18t17.5 7q11 0 18 -7t7 -18q0 -10 -7 -17.5t-18 -7.5z" />
    <glyph glyph-name="semicolon" unicode=";" horiz-adv-x="220" 
d="M68 -120v0q20 29 32.5 59t13.5 57h-2.5h-2.5q-10 0 -17 7t-7 17q0 7 3.5 12.5t9 9t12.5 3.5q11 0 18 -8t7 -21q0 -31 -15 -73t-32 -63h-20zM110 395q-10 0 -17.5 7.5t-7.5 17.5q0 11 7.5 18t17.5 7q11 0 18 -7t7 -18q0 -10 -7 -17.5t-18 -7.5z" />
    <glyph glyph-name="ellipsis" unicode="&#x2026;" 
d="M110 -5q-10 0 -17.5 7.5t-7.5 17.5q0 11 7.5 18t17.5 7q11 0 18 -7t7 -18q0 -10 -7 -17.5t-18 -7.5zM350 -5q-10 0 -17.5 7.5t-7.5 17.5q0 11 7.5 18t17.5 7q11 0 18 -7t7 -18q0 -10 -7 -17.5t-18 -7.5zM590 -5q-10 0 -17.5 7.5t-7.5 17.5q0 11 7.5 18t17.5 7q11 0 18 -7
t7 -18q0 -10 -7 -17.5t-18 -7.5z" />
    <glyph glyph-name="exclam" unicode="!" horiz-adv-x="260" 
d="M120 700h20l-1 -520h-18zM130 -5q-10 0 -17.5 7.5t-7.5 17.5q0 11 7.5 18t17.5 7q11 0 18 -7t7 -18q0 -10 -7 -17.5t-18 -7.5z" />
    <glyph glyph-name="exclamdown" unicode="&#xa1;" horiz-adv-x="260" 
d="M140 -200h-20l1 520h18zM130 505q11 0 18 -7t7 -18q0 -10 -7 -17.5t-18 -7.5q-10 0 -17.5 7.5t-7.5 17.5q0 11 7.5 18t17.5 7z" />
    <glyph glyph-name="question" unicode="?" horiz-adv-x="547" 
d="M249 180v2v2q0 48 15 82.5t37.5 58t56.5 49.5v0q1 1 2 1.5t2 1.5q33 27 51 46t31 46.5t13 64.5q0 77 -53.5 119t-134.5 42q-97 0 -147.5 -60t-47.5 -157h-19q-3 70 22 124t75 83.5t118 29.5q57 0 104 -21t75 -62t28 -99t-23.5 -92t-62.5 -65l-0.5 -0.5l-0.5 -0.5
q-43 -35 -67.5 -59.5t-39.5 -57.5t-15 -78h-19zM265 -5q-10 0 -17.5 7.5t-7.5 17.5q0 11 7.5 18t17.5 7q11 0 18 -7t7 -18q0 -10 -7 -17.5t-18 -7.5z" />
    <glyph glyph-name="questiondown" unicode="&#xbf;" horiz-adv-x="547" 
d="M298 320v-2v-2q0 -48 -15 -82.5t-37.5 -58t-56.5 -49.5v0l-4 -3q-33 -27 -51 -46t-31 -46.5t-13 -64.5q0 -77 53.5 -119t134.5 -42q97 0 147.5 60t47.5 157h19q3 -70 -22 -124t-75 -83.5t-118 -29.5q-57 0 -104 21t-75 62t-28 99t23.5 92t62.5 65l0.5 0.5l0.5 0.5
q43 35 67.5 59.5t39.5 57.5t15 78h19zM282 505q11 0 18 -7t7 -18q0 -10 -7 -17.5t-18 -7.5q-10 0 -17.5 7.5t-7.5 17.5q0 11 7.5 18t17.5 7z" />
    <glyph glyph-name="periodcentered" unicode="&#xb7;" horiz-adv-x="220" 
d="M110 275q-10 0 -17.5 7.5t-7.5 17.5q0 11 7.5 18t17.5 7q11 0 18 -7t7 -18q0 -10 -7 -17.5t-18 -7.5z" />
    <glyph glyph-name="bullet" unicode="&#x2022;" horiz-adv-x="450" 
d="M225 235q-18 0 -33 8.5t-23.5 23.5t-8.5 33t8.5 33t23.5 23.5t33 8.5t33 -8.5t23.5 -23.5t8.5 -33t-8.5 -33t-23.5 -23.5t-33 -8.5z" />
    <glyph glyph-name="asterisk" unicode="*" horiz-adv-x="390" 
d="M185 554l-77 -69l-69 20l19 69h119l-147 45v69l64 17l88 -105l-50 141l63 53l63 -53l-50 -141l88 105l64 -17v-69l-148 -45h119l19 -69l-68 -20l-78 69l9 -100h-37z" />
    <glyph glyph-name="numbersign" unicode="#" 
d="M240 200h-150v20h150v260h-150v20h150v215h20v-215h180v215h20v-215h150v-20h-150v-260h150v-20h-150v-215h-20v215h-180v-215h-20v215zM440 220v260h-180v-260h180z" />
    <glyph glyph-name="slash" unicode="/" horiz-adv-x="458" 
d="M388 700h20l-338 -700h-20z" />
    <glyph glyph-name="backslash" unicode="\" horiz-adv-x="458" 
d="M50 700h20l338 -700h-20z" />
    <glyph glyph-name="colon.case" horiz-adv-x="220" 
d="M110 125q-10 0 -17.5 7.5t-7.5 17.5q0 11 7.5 18t17.5 7q11 0 18 -7t7 -18q0 -10 -7 -17.5t-18 -7.5zM110 525q-10 0 -17.5 7.5t-7.5 17.5q0 11 7.5 18t17.5 7q11 0 18 -7t7 -18q0 -10 -7 -17.5t-18 -7.5z" />
    <glyph glyph-name="exclamdown.case" horiz-adv-x="260" 
d="M140 0h-20l1 520h18zM130 705q10 0 17.5 -7.5t7.5 -17.5q0 -11 -7.5 -18t-17.5 -7q-11 0 -18 7t-7 18q0 10 7 17.5t18 7.5z" />
    <glyph glyph-name="questiondown.case" horiz-adv-x="547" 
d="M298 520v-2v-2q0 -48 -15 -82.5t-37.5 -58t-56.5 -49.5v0q-1 -1 -2 -1.5t-2 -1.5q-33 -27 -51 -46t-31 -46.5t-13 -64.5q0 -77 53.5 -119t134.5 -42q97 0 147.5 60t47.5 157h19q3 -70 -22 -124t-75 -83.5t-118 -29.5q-57 0 -104 21t-75 62t-28 99t23.5 92t62.5 65
l0.5 0.5l0.5 0.5q43 35 67.5 59.5t39.5 57.5t15 78h19zM282 705q10 0 17.5 -7.5t7.5 -17.5q0 -11 -7.5 -18t-17.5 -7q-11 0 -18 7t-7 18q0 10 7 17.5t18 7.5z" />
    <glyph glyph-name="asterisk.case" horiz-adv-x="1064" 
d="M508 211l-194 -173l-171 51l48 172h297l-368 113v173l160 41l220 -263l-126 353l158 133l158 -133l-126 -353l220 263l160 -41v-173l-368 -113h297l48 -172l-171 -51l-194 173l22 -250h-92z" />
    <glyph glyph-name="bullet.ss01" horiz-adv-x="1064" 
d="M508 211l-194 -173l-171 51l48 172h297l-368 113v173l160 41l220 -263l-126 353l158 133l158 -133l-126 -353l220 263l160 -41v-173l-368 -113h297l48 -172l-171 -51l-194 173l22 -250h-92z" />
    <glyph glyph-name="asterisk.ss01" horiz-adv-x="302" 
d="M141 548l-111 -64l-10 17l111 64l-111 64l10 17l111 -64v128h20v-128l111 64l10 -17l-111 -64l111 -64l-10 -17l-111 64v-128h-20v128z" />
    <glyph glyph-name="parenleft" unicode="(" horiz-adv-x="500" 
d="M360 -115q-74 0 -129.5 57.5t-85.5 163t-30 244.5t30 244.5t85.5 163t129.5 57.5v-20q-67 0 -118 -55t-79 -156t-28 -234t28 -234t79 -156t118 -55v-20z" />
    <glyph glyph-name="parenright" unicode=")" horiz-adv-x="500" 
d="M140 815q74 0 129.5 -57.5t85.5 -163t30 -244.5t-30 -244.5t-85.5 -163t-129.5 -57.5v20q67 0 118 55t79 156t28 234t-28 234t-79 156t-118 55v20z" />
    <glyph glyph-name="braceleft" unicode="{" horiz-adv-x="500" 
d="M304 -115q-52 0 -88 31t-36 91q0 19 5 53.5t11 69.5q6 34 11 67t5 52q0 43 -20.5 67t-56.5 24h-35v20h35q36 0 56.5 24t20.5 67q0 19 -5 52t-11 67q-6 35 -11 69.5t-5 53.5q0 60 36 91t88 31q21 0 41.5 -4t37.5 -11v-22q-35 19 -81 19q-43 0 -72.5 -26t-29.5 -78
q0 -18 5 -50t10 -65q8 -41 12.5 -73t4.5 -54q0 -39 -16.5 -65t-46.5 -36q30 -10 46.5 -36t16.5 -65q0 -22 -4.5 -54t-12.5 -73q-5 -33 -10 -65t-5 -50q0 -52 29.5 -78t72.5 -26q46 0 81 19v-22q-17 -7 -37.5 -11t-41.5 -4z" />
    <glyph glyph-name="braceright" unicode="}" horiz-adv-x="500" 
d="M196 815q52 0 88 -31t36 -91q0 -19 -5 -53.5t-11 -69.5q-6 -34 -11 -67t-5 -52q0 -43 20.5 -67t56.5 -24h35v-20h-35q-36 0 -56.5 -24t-20.5 -67q0 -19 5 -52t11 -67q6 -35 11 -69.5t5 -53.5q0 -60 -36 -91t-88 -31q-21 0 -41.5 4t-37.5 11v22q35 -19 81 -19
q43 0 72.5 26t29.5 78q0 18 -5 50t-10 65q-8 41 -12.5 73t-4.5 54q0 39 16.5 65t46.5 36q-30 10 -46.5 36t-16.5 65q0 22 4.5 54t12.5 73q5 33 10 65t5 50q0 52 -29.5 78t-72.5 26q-46 0 -81 -19v22q17 7 37.5 11t41.5 4z" />
    <glyph glyph-name="bracketleft" unicode="[" horiz-adv-x="500" 
d="M160 800h230v-20h-210v-860h210v-20h-230v900z" />
    <glyph glyph-name="bracketright" unicode="]" horiz-adv-x="500" 
d="M340 -100h-230v20h210v860h-210v20h230v-900z" />
    <glyph glyph-name="parenleft.case" horiz-adv-x="500" 
d="M360 -15q-74 0 -129.5 45t-85.5 127.5t-30 192.5t30 192.5t85.5 127.5t129.5 45v-20q-68 0 -118.5 -42.5t-78.5 -120.5t-28 -182t28 -182t78.5 -120.5t118.5 -42.5v-20z" />
    <glyph glyph-name="parenright.case" horiz-adv-x="500" 
d="M140 715q74 0 129.5 -45t85.5 -127.5t30 -192.5t-30 -192.5t-85.5 -127.5t-129.5 -45v20q68 0 118.5 42.5t78.5 120.5t28 182t-28 182t-78.5 120.5t-118.5 42.5v20z" />
    <glyph glyph-name="braceleft.case" horiz-adv-x="500" 
d="M304 -15q-52 0 -88 30t-36 89q0 12 5 33t11 43t11 43t5 32q0 40 -20.5 62.5t-56.5 22.5h-35v20h35q36 0 56.5 22.5t20.5 62.5q0 11 -5 32t-11 43t-11 43t-5 33q0 59 36 89t88 30q20 0 40.5 -3.5t37.5 -10.5v-21q-37 15 -78 15q-49 0 -76.5 -26.5t-27.5 -72.5
q0 -10 4.5 -29.5t10.5 -40.5q6 -23 11.5 -46t5.5 -35q0 -36 -16.5 -61t-45.5 -34q29 -9 45.5 -34t16.5 -61q0 -12 -5.5 -35t-11.5 -46q-15 -52 -15 -70q0 -46 27.5 -72.5t76.5 -26.5q41 0 78 15v-21q-17 -7 -37.5 -10.5t-40.5 -3.5z" />
    <glyph glyph-name="braceright.case" horiz-adv-x="500" 
d="M196 715q52 0 88 -30t36 -89q0 -12 -5 -33t-11 -43t-11 -43t-5 -32q0 -40 20.5 -62.5t56.5 -22.5h35v-20h-35q-36 0 -56.5 -22.5t-20.5 -62.5q0 -11 5 -32t11 -43t11 -43t5 -33q0 -59 -36 -89t-88 -30q-20 0 -40.5 3.5t-37.5 10.5v21q37 -15 78 -15q49 0 76.5 26.5
t27.5 72.5q0 18 -15 70q-6 23 -11.5 46t-5.5 35q0 36 16.5 61t45.5 34q-29 9 -45.5 34t-16.5 61q0 12 5.5 35t11.5 46q15 53 15 70q0 46 -27.5 72.5t-76.5 26.5q-41 0 -78 -15v21q17 7 37.5 10.5t40.5 3.5z" />
    <glyph glyph-name="bracketleft.case" horiz-adv-x="500" 
d="M160 700h230v-20h-210v-660h210v-20h-230v700z" />
    <glyph glyph-name="bracketright.case" horiz-adv-x="500" 
d="M340 0h-230v20h210v660h-210v20h230v-700z" />
    <glyph glyph-name="hyphen" unicode="-" horiz-adv-x="400" 
d="M80 310h240v-20h-240v20z" />
    <glyph glyph-name="endash" unicode="&#x2013;" horiz-adv-x="540" 
d="M80 310h380v-20h-380v20z" />
    <glyph glyph-name="emdash" unicode="&#x2014;" 
d="M80 310h540v-20h-540v20z" />
    <glyph glyph-name="underscore" unicode="_" horiz-adv-x="440" 
d="M30 0h380v-20h-380v20z" />
    <glyph glyph-name="hyphen.case" horiz-adv-x="400" 
d="M80 360h240v-20h-240v20z" />
    <glyph glyph-name="endash.case" horiz-adv-x="540" 
d="M80 360h380v-20h-380v20z" />
    <glyph glyph-name="emdash.case" 
d="M80 360h540v-20h-540v20z" />
    <glyph glyph-name="quotesinglbase" unicode="&#x201a;" horiz-adv-x="147" 
d="M40 -120v0q20 29 32.5 59t13.5 57h-2.5h-2.5q-10 0 -17 7t-7 17q0 7 3.5 12.5t9 9t12.5 3.5q11 0 18 -8t7 -21q0 -31 -15 -73t-32 -63h-20z" />
    <glyph glyph-name="quotedblbase" unicode="&#x201e;" horiz-adv-x="267" 
d="M40 -120v0q20 29 32.5 59t13.5 57h-2.5h-2.5q-10 0 -17 7t-7 17q0 7 3.5 12.5t9 9t12.5 3.5q11 0 18 -8t7 -21q0 -31 -15 -73t-32 -63h-20zM160 -120v0q20 29 32.5 59t13.5 57h-2.5h-2.5q-10 0 -17 7t-7 17q0 7 3.5 12.5t9 9t12.5 3.5q11 0 18 -8t7 -21q0 -31 -15 -73
t-32 -63h-20z" />
    <glyph glyph-name="quotedblleft" unicode="&#x201c;" horiz-adv-x="267" 
d="M255 740v0q-20 -29 -32.5 -59t-13.5 -57h2.5h2.5q10 0 17 -7t7 -17q0 -7 -3.5 -12.5t-9 -9t-12.5 -3.5q-11 0 -18 8t-7 21q0 31 15 73t32 63h20zM135 740v0q-20 -29 -32.5 -59t-13.5 -57h2.5h2.5q10 0 17 -7t7 -17q0 -7 -3.5 -12.5t-9 -9t-12.5 -3.5q-11 0 -18 8t-7 21
q0 31 15 73t32 63h20z" />
    <glyph glyph-name="quotedblright" unicode="&#x201d;" horiz-adv-x="267" 
d="M12 547v0q20 29 32.5 59t13.5 57h-2.5h-2.5q-10 0 -17 7t-7 17q0 7 3.5 12.5t9 9t12.5 3.5q11 0 18 -8t7 -21q0 -31 -15 -73t-32 -63h-20zM132 547v0q20 29 32.5 59t13.5 57h-2.5h-2.5q-10 0 -17 7t-7 17q0 7 3.5 12.5t9 9t12.5 3.5q11 0 18 -8t7 -21q0 -31 -15 -73
t-32 -63h-20z" />
    <glyph glyph-name="quoteleft" unicode="&#x2018;" horiz-adv-x="147" 
d="M107 740v0q-20 -29 -32.5 -59t-13.5 -57h2.5h2.5q10 0 17 -7t7 -17q0 -7 -3.5 -12.5t-9 -9t-12.5 -3.5q-11 0 -18 8t-7 21q0 31 15 73t32 63h20z" />
    <glyph glyph-name="quoteright" unicode="&#x2019;" horiz-adv-x="147" 
d="M40 547v0q20 29 32.5 59t13.5 57h-2.5h-2.5q-10 0 -17 7t-7 17q0 7 3.5 12.5t9 9t12.5 3.5q11 0 18 -8t7 -21q0 -31 -15 -73t-32 -63h-20z" />
    <glyph glyph-name="guillemotleft" unicode="&#xab;" horiz-adv-x="527" 
d="M328 300l109 -200h-21l-106 194v12l106 194h21zM168 300l109 -200h-21l-106 194v12l106 194h21z" />
    <glyph glyph-name="guillemotright" unicode="&#xbb;" horiz-adv-x="467" 
d="M199 300l-109 200h21l106 -194v-12l-106 -194h-21zM359 300l-109 200h21l106 -194v-12l-106 -194h-21z" />
    <glyph glyph-name="guilsinglleft" unicode="&#x2039;" horiz-adv-x="307" 
d="M108 300l109 -200h-21l-106 194v12l106 194h21z" />
    <glyph glyph-name="guilsinglright" unicode="&#x203a;" horiz-adv-x="307" 
d="M199 300l-109 200h21l106 -194v-12l-106 -194h-21z" />
    <glyph glyph-name="quotedbl" unicode="&#x22;" horiz-adv-x="290" 
d="M55 710h30l-10 -160h-10zM205 710h30l-10 -160h-10z" />
    <glyph glyph-name="quotesingle" unicode="'" horiz-adv-x="140" 
d="M55 710h30l-10 -160h-10z" />
    <glyph glyph-name="guillemotleft.case" horiz-adv-x="467" 
d="M268 350l109 -200h-21l-106 194v12l106 194h21zM108 350l109 -200h-21l-106 194v12l106 194h21z" />
    <glyph glyph-name="guillemotright.case" horiz-adv-x="467" 
d="M199 350l-109 200h21l106 -194v-12l-106 -194h-21zM359 350l-109 200h21l106 -194v-12l-106 -194h-21z" />
    <glyph glyph-name="guilsinglleft.case" horiz-adv-x="307" 
d="M108 350l109 -200h-21l-106 194v12l106 194h21z" />
    <glyph glyph-name="guilsinglright.case" horiz-adv-x="307" 
d="M199 350l-109 200h21l106 -194v-12l-106 -194h-21z" />
    <glyph glyph-name="uni00A0" unicode="&#xa0;" horiz-adv-x="250" 
 />
    <glyph glyph-name="cent" unicode="&#xa2;" 
d="M343 112q88 0 147 45.5t76 125.5h20q-11 -58 -42.5 -100.5t-80.5 -66t-112 -24.5v-122h-20v122q-70 3 -125.5 37.5t-87 93t-31.5 129.5t31.5 129.5t87 93t125.5 37.5v118h20v-118q63 -1 112 -24.5t80.5 -66t42.5 -100.5h-20q-17 80 -76 125.5t-147 45.5q-66 0 -120 -31.5
t-85 -86.5t-31 -122t31 -122t85 -86.5t120 -31.5z" />
    <glyph glyph-name="currency" unicode="&#xa4;" 
d="M110 124l92 92q-24 27 -38 61.5t-14 72.5t14 72.5t38 61.5l-92 92l14 14l92 -92q27 24 61.5 38t72.5 14t72.5 -14t61.5 -38l92 92l14 -14l-92 -92q24 -27 38 -61.5t14 -72.5t-14 -72.5t-38 -61.5l92 -92l-14 -14l-92 92q-27 -24 -61.5 -38t-72.5 -14t-72.5 14t-61.5 38
l-92 -92zM350 170q49 0 90 24.5t65.5 65.5t24.5 90t-24.5 90t-65.5 65.5t-90 24.5t-90 -24.5t-65.5 -65.5t-24.5 -90t24.5 -90t65.5 -65.5t90 -24.5z" />
    <glyph glyph-name="dollar" unicode="$" 
d="M360 -15q-76 4 -134.5 35t-94 83.5t-43.5 120.5h19q10 -66 45 -115.5t93 -76.5t134 -27q109 0 169.5 43.5t60.5 122.5q0 58 -33 92t-83 49.5t-127 28.5h-0.5h-0.5q-81 13 -133 29t-88.5 52t-36.5 100q0 57 29.5 100t83.5 67.5t124 25.5v115h20v-115q110 -3 179 -66
t80 -169h-20q-12 101 -78.5 158t-171.5 57q-67 0 -118 -21t-79.5 -60.5t-28.5 -91.5q0 -54 31 -85t77.5 -45.5t120.5 -27.5q2 -1 5 -1t5 -1t4 -1t4 -1q84 -15 134.5 -31.5t85.5 -54t35 -103.5q0 -58 -30 -100t-86 -64t-133 -22v-115h-20v115z" />
    <glyph glyph-name="Euro" unicode="&#x20ac;" 
d="M380 -15q-73 0 -133.5 37.5t-100 104t-51.5 153.5h-75v20h72l-1 25q-1 6 -1 12v13v13t1 13l1 24h-72v20h75q12 87 51.5 153.5t100 104t133.5 37.5q67 0 127.5 -33.5t100 -94t47.5 -137.5h-20q-8 71 -45 127t-92.5 87t-117.5 31q-68 0 -124 -34.5t-93 -97t-48 -143.5h304
v-20h-307l-1 -24q-1 -7 -1 -13v-13v-13t1 -13l1 -24h307v-20h-304q11 -81 48 -143.5t93 -97t124 -34.5q62 0 117.5 31t92.5 87t45 127h20q-8 -77 -47.5 -137.5t-100 -94t-127.5 -33.5z" />
    <glyph glyph-name="uni20B4" unicode="&#x20b4;" 
d="M336 -15q-73 0 -128.5 22t-86.5 63t-31 94q0 34 11 63.5t32 52.5h-81v20h103q33 21 77 34t118 31q35 7 70 16t61 19h-429v20h462q56 39 56 112q0 74 -58 118.5t-154 44.5q-100 0 -163.5 -51t-79.5 -144h-20q17 102 86 158.5t177 56.5q68 0 121 -23t82 -64.5t29 -95.5
q0 -69 -45 -112h105v-20h-124q-32 -16 -73.5 -28t-100.5 -25q-42 -10 -86 -22t-74 -25h458v-20h-488q-52 -44 -52 -116q0 -48 28 -84t79.5 -55.5t118.5 -19.5q106 0 174.5 53t85.5 148h20q-18 -104 -92 -162.5t-188 -58.5z" />
    <glyph glyph-name="uni20BD" unicode="&#x20bd;" 
d="M180 200h-120v20h120v80h-120v20h120v380h177q118 0 185.5 -53.5t67.5 -146.5t-67.5 -146.5t-185.5 -53.5h-157v-80h359v-20h-359v-200h-20v200zM357 320q110 0 171.5 48t61.5 132t-61.5 132t-171.5 48h-157v-360h157z" />
    <glyph glyph-name="sterling" unicode="&#xa3;" 
d="M119 -15q-47 0 -77 26t-30 67q0 26 12.5 46t34.5 31t50 11q30 0 61 -12.5t70 -35.5q1 4 1 8.5v8.5q0 33 -12 66.5t-39 89.5l-12 24t-11 25h-128v20h120q-14 34 -21.5 67t-7.5 68q0 65 28 115t79 78t118 28q66 0 118 -27t83.5 -76t35.5 -113h-20q-7 88 -66.5 142
t-151.5 54q-93 0 -148.5 -56t-55.5 -148q0 -24 4 -47.5t11 -47.5q3 -9 6.5 -18.5t7.5 -18.5h333v-20h-324q5 -12 11 -24l12 -24q25 -53 37.5 -87.5t12.5 -69.5v-8.5t-1 -8.5q0 -3 -0.5 -6t-0.5 -6q7 -4 14.5 -9t14.5 -9q63 -41 109 -62t93 -21q63 0 99 42t36 116q0 31 -7 63
h20q7 -32 7 -64q0 -54 -18.5 -94t-53.5 -61.5t-82 -21.5q-52 0 -101.5 23t-117.5 67q-5 2 -9.5 5t-8.5 6q-14 -45 -50.5 -73t-84.5 -28zM118 5q42 0 74.5 25.5t43.5 66.5q-2 1 -4 2.5t-4 2.5q-37 21 -65.5 32.5t-54.5 11.5q-34 0 -55 -19t-21 -49q0 -33 24 -53t62 -20z" />
    <glyph glyph-name="yen" unicode="&#xa5;" 
d="M340 180h-243v20h243v74l-19 26h-224v20h210l-275 380h25l294 -406v0l293 406h24l-275 -380h231v-20h-245l-19 -26v-74h264v-20h-264v-180h-20v180z" />
    <glyph glyph-name="plus" unicode="+" horiz-adv-x="560" 
d="M480 340h-190v-190h-20v190h-190v20h190v190h20v-190h190v-20z" />
    <glyph glyph-name="minus" unicode="&#x2212;" horiz-adv-x="560" 
d="M80 360h400v-20h-400v20z" />
    <glyph glyph-name="multiply" unicode="&#xd7;" horiz-adv-x="560" 
d="M117 202l148 148l-148 148l15 15l148 -148l148 148l15 -15l-148 -148l148 -148l-15 -15l-148 148l-148 -148z" />
    <glyph glyph-name="divide" unicode="&#xf7;" horiz-adv-x="560" 
d="M280 490q-13 0 -21.5 8.5t-8.5 21.5t8.5 21.5t21.5 8.5t21.5 -8.5t8.5 -21.5t-8.5 -21.5t-21.5 -8.5zM280 150q-13 0 -21.5 8.5t-8.5 21.5t8.5 21.5t21.5 8.5t21.5 -8.5t8.5 -21.5t-8.5 -21.5t-21.5 -8.5zM80 360h400v-20h-400v20z" />
    <glyph glyph-name="equal" unicode="=" horiz-adv-x="560" 
d="M80 270h400v-20h-400v20zM80 450h400v-20h-400v20z" />
    <glyph glyph-name="notequal" unicode="&#x2260;" horiz-adv-x="560" 
d="M331 430l-80 -160h229v-20h-239l-50 -100h-22l50 100h-139v20h149l80 160h-229v20h239l50 100h22l-50 -100h139v-20h-149z" />
    <glyph glyph-name="greater" unicode="&#x3e;" horiz-adv-x="560" 
d="M80 173l375 177l-375 177v23l400 -190v-20l-400 -190v23z" />
    <glyph glyph-name="less" unicode="&#x3c;" horiz-adv-x="560" 
d="M480 527l-375 -177l375 -177v-23l-400 190v20l400 190v-23z" />
    <glyph glyph-name="greaterequal" unicode="&#x2265;" horiz-adv-x="560" 
d="M80 223l375 177l-375 177v23l400 -190v-20l-400 -190v23zM80 130h400v-20h-400v20z" />
    <glyph glyph-name="lessequal" unicode="&#x2264;" horiz-adv-x="560" 
d="M480 577l-375 -177l375 -177v-23l-400 190v20l400 190v-23zM80 130h400v-20h-400v20z" />
    <glyph glyph-name="plusminus" unicode="&#xb1;" horiz-adv-x="560" 
d="M80 410h400v-20h-400v20zM290 600v-400h-20v400h20zM80 130h400v-20h-400v20z" />
    <glyph glyph-name="approxequal" unicode="&#x2248;" horiz-adv-x="560" 
d="M80 219q0 32 27 55.5t64 23.5q25 0 49 -7t59 -21q1 -1 2.5 -1t2.5 -1l3 -1q32 -13 55 -20t47 -7q28 0 49.5 18t21.5 41h20q0 -32 -27 -55.5t-64 -23.5q-25 0 -49 7t-59 21q-1 1 -2.5 1t-2.5 1q-1 0 -1.5 0.5t-1.5 0.5q-32 13 -55 20t-47 7q-28 0 -49.5 -18t-21.5 -41h-20
zM80 399q0 32 27 55.5t64 23.5q25 0 49 -7t59 -21q1 -1 2.5 -1t2.5 -1l3 -1q32 -13 55 -20t47 -7q28 0 49.5 18t21.5 41h20q0 -32 -27 -55.5t-64 -23.5q-25 0 -49 7t-59 21q-1 1 -2.5 1t-2.5 1q-1 0 -1.5 0.5t-1.5 0.5q-32 13 -55 20t-47 7q-28 0 -49.5 -18t-21.5 -41h-20z
" />
    <glyph glyph-name="asciitilde" unicode="~" horiz-adv-x="560" 
d="M80 309q0 32 27 55.5t64 23.5q25 0 49 -7t59 -21q1 -1 2.5 -1t2.5 -1l3 -1q32 -13 55 -20t47 -7q28 0 49.5 18t21.5 41h20q0 -32 -27 -55.5t-64 -23.5q-25 0 -49 7t-59 21q-1 1 -2.5 1t-2.5 1q-1 0 -1.5 0.5t-1.5 0.5q-32 13 -55 20t-47 7q-28 0 -49.5 -18t-21.5 -41h-20
z" />
    <glyph glyph-name="logicalnot" unicode="&#xac;" horiz-adv-x="560" 
d="M460 360h20v-210h-20v210zM80 360h400v-20h-400v20z" />
    <glyph glyph-name="asciicircum" unicode="^" horiz-adv-x="560" 
d="M270 700h20l167 -290h-23l-154 267l-154 -267h-23z" />
    <glyph glyph-name="percent" unicode="%" horiz-adv-x="740" 
d="M200 385q-44 0 -81 21t-58 58t-21 81t21 81t58 58t81 21t81 -21t58 -58t21 -81t-21 -81t-58 -58t-81 -21zM200 405q39 0 71 18.5t50.5 50.5t18.5 71t-18.5 71t-50.5 50.5t-71 18.5t-71 -18.5t-50.5 -50.5t-18.5 -71t18.5 -71t50.5 -50.5t71 -18.5zM558 700h22l-398 -700
h-22zM540 -5q-44 0 -81 21t-58 58t-21 81t21 81t58 58t81 21t81 -21t58 -58t21 -81t-21 -81t-58 -58t-81 -21zM540 15q39 0 71 18.5t50.5 50.5t18.5 71t-18.5 71t-50.5 50.5t-71 18.5t-71 -18.5t-50.5 -50.5t-18.5 -71t18.5 -71t50.5 -50.5t71 -18.5z" />
    <glyph glyph-name="perthousand" unicode="&#x2030;" horiz-adv-x="1120" 
d="M200 385q-44 0 -81 21t-58 58t-21 81t21 81t58 58t81 21t81 -21t58 -58t21 -81t-21 -81t-58 -58t-81 -21zM200 405q39 0 71 18.5t50.5 50.5t18.5 71t-18.5 71t-50.5 50.5t-71 18.5t-71 -18.5t-50.5 -50.5t-18.5 -71t18.5 -71t50.5 -50.5t71 -18.5zM558 700h22l-398 -700
h-22zM540 -5q-44 0 -81 21t-58 58t-21 81t21 81t58 58t81 21t81 -21t58 -58t21 -81t-21 -81t-58 -58t-81 -21zM540 15q39 0 71 18.5t50.5 50.5t18.5 71t-18.5 71t-50.5 50.5t-71 18.5t-71 -18.5t-50.5 -50.5t-18.5 -71t18.5 -71t50.5 -50.5t71 -18.5zM920 -5q-44 0 -81 21
t-58 58t-21 81t21 81t58 58t81 21t81 -21t58 -58t21 -81t-21 -81t-58 -58t-81 -21zM920 15q39 0 71 18.5t50.5 50.5t18.5 71t-18.5 71t-50.5 50.5t-71 18.5t-71 -18.5t-50.5 -50.5t-18.5 -71t18.5 -71t50.5 -50.5t71 -18.5z" />
    <glyph glyph-name="arrowup" unicode="&#x2191;" 
d="M340 644h-4l-158 -303l-18 9l183 350h14l183 -350l-18 -9l-158 303h-4v-644h-20v644z" />
    <glyph glyph-name="uni2197" unicode="&#x2197;" 
d="M95 111l456 455l-3 3l-326 -103l-6 19l377 118l9 -9l-118 -377l-19 6l103 326l-3 3l-455 -456z" />
    <glyph glyph-name="arrowright" unicode="&#x2192;" 
d="M341 178l303 158v4h-644v20h644v4l-303 158l9 18l350 -183v-14l-350 -183z" />
    <glyph glyph-name="uni2198" unicode="&#x2198;" 
d="M216 216l6 19l326 -103l3 3l-456 455l15 15l455 -456l3 3l-103 326l19 6l118 -377l-9 -9z" />
    <glyph glyph-name="arrowdown" unicode="&#x2193;" 
d="M160 350l18 9l158 -303h4v644h20v-644h4l158 303l18 -9l-183 -350h-14z" />
    <glyph glyph-name="uni2199" unicode="&#x2199;" 
d="M98 107l118 377l19 -6l-103 -326l3 -3l455 456l15 -15l-456 -455l3 -3l326 103l6 -19l-377 -118z" />
    <glyph glyph-name="arrowleft" unicode="&#x2190;" 
d="M0 344v14l350 183l9 -18l-303 -158v-4h644v-20h-644v-4l303 -158l-9 -18z" />
    <glyph glyph-name="uni2196" unicode="&#x2196;" 
d="M135 552l-3 -3l103 -326l-19 -6l-118 377l9 9l377 -118l-6 -19l-326 103l-3 -3l456 -455l-15 -15z" />
    <glyph glyph-name="arrowboth" unicode="&#x2194;" horiz-adv-x="920" 
d="M0 343v14l350 183l9 -18l-303 -158v-4h808v4l-303 158l9 18l350 -183v-14l-350 -183l-9 18l303 158v4h-808v-4l303 -158l-9 -18z" />
    <glyph glyph-name="arrowupdn" unicode="&#x2195;" 
d="M160 240l18 9l158 -303h4v808h-4l-158 -303l-18 9l183 350h14l183 -350l-18 -9l-158 303h-4v-808h4l158 303l18 -9l-183 -350h-14z" />
    <glyph glyph-name="uni21B0" unicode="&#x21b0;" horiz-adv-x="730" 
d="M680 340h-624v-4l303 -158l-9 -18l-350 183v14l350 183l9 -18l-303 -158v-4h644v-360h-20v340z" />
    <glyph glyph-name="uni21B1" unicode="&#x21b1;" horiz-adv-x="730" 
d="M30 360h644v4l-303 158l9 18l350 -183v-14l-350 -183l-9 18l303 158v4h-624v-340h-20v360z" />
    <glyph glyph-name="uni21B2" unicode="&#x21b2;" horiz-adv-x="730" 
d="M0 343v14l350 183l9 -18l-303 -158v-4h624v340h20v-360h-644v-4l303 -158l-9 -18z" />
    <glyph glyph-name="uni21B3" unicode="&#x21b3;" horiz-adv-x="730" 
d="M371 178l303 158v4h-644v360h20v-340h624v4l-303 158l9 18l350 -183v-14l-350 -183z" />
    <glyph glyph-name="uni2605" unicode="&#x2605;" horiz-adv-x="1064" 
d="M508 211l-194 -173l-171 51l48 172h297l-368 113v173l160 41l220 -263l-126 353l158 133l158 -133l-126 -353l220 263l160 -41v-173l-368 -113h297l48 -172l-171 -51l-194 173l22 -250h-92z" />
    <glyph glyph-name="at" unicode="@" horiz-adv-x="820" 
d="M410 -167q-101 0 -185 48t-132 132t-48 185t48 185t132 132t185 48t185 -48t132 -132t48 -185q0 -112 -56 -198h-159v118q-21 -58 -76 -93t-125 -35q-58 0 -93.5 28t-35.5 74q0 60 53 89.5t178 37.5q55 4 77 14t22 32q0 34 -18.5 64t-51.5 47.5t-75 17.5
q-62 0 -103.5 -34.5t-51.5 -96.5h-20q7 47 30.5 81t60.5 52t84 18q75 0 120 -44t45 -117v-233h128q47 80 47 178q0 96 -45.5 175t-124.5 124.5t-175 45.5t-175 -45.5t-124.5 -124.5t-45.5 -175t45.5 -175t124.5 -124.5t175 -45.5q70 0 133 25t111 72l14 -13
q-50 -50 -117 -77t-141 -27zM362 10q55 0 100 23.5t71.5 64t26.5 90.5v36q-18 -11 -45 -17t-72 -8q-99 -6 -146 -31.5t-47 -72.5q0 -40 29.5 -62.5t82.5 -22.5z" />
    <glyph glyph-name="ampersand" unicode="&#x26;" horiz-adv-x="690" 
d="M283 -15q-73 0 -128 27t-85 76t-30 113q0 61 30 107t85 71.5t128 25.5h8l-218 267v28h467v-20h-448l441 -541q60 89 72 221h20q-14 -143 -79 -236l101 -124h-26l-87 107q-45 -59 -109.5 -90.5t-141.5 -31.5zM283 5q74 0 134.5 30t103.5 87l-214 263h-24
q-102 0 -162.5 -50t-60.5 -134q0 -89 60.5 -142.5t162.5 -53.5z" />
    <glyph glyph-name="paragraph" unicode="&#xb6;" horiz-adv-x="470" 
d="M290 300h-9q-62 0 -112.5 26.5t-79.5 72t-29 101.5t29 101.5t79.5 72t112.5 26.5h29v-900h-20v500z" />
    <glyph glyph-name="section" unicode="&#xa7;" 
d="M370 -100q-57 0 -107.5 19.5t-84.5 60t-42 100.5h20q9 -54 40 -89.5t76 -52t97 -16.5q38 0 78.5 11.5t69 39t28.5 70.5q0 41 -22 63.5t-54.5 33t-92.5 21.5q-6 1 -11.5 2t-11.5 2h-2t-2 1q-72 12 -115.5 24.5t-73 41.5t-29.5 79q0 56 41 89t106 44q-60 15 -93.5 42
t-33.5 80q0 51 28.5 84.5t72.5 49t94 15.5q84 0 143.5 -45t69.5 -130h-20q-11 77 -65.5 115t-131.5 38q-66 0 -118.5 -30.5t-52.5 -96.5q0 -38 24 -60t59 -32t96 -21v0l12 -2l12 -2q71 -13 113.5 -25.5t71 -40.5t28.5 -77q0 -57 -43.5 -90t-107.5 -45q62 -15 95.5 -43.5
t33.5 -84.5q0 -51 -31 -83t-75.5 -46t-88.5 -14zM372 184q43 2 87.5 14.5t76 39.5t31.5 68q0 40 -19.5 61t-57.5 32.5t-122 27.5q-7 2 -14.5 3.5t-15.5 2.5q-74 -5 -130.5 -34.5t-56.5 -87.5q0 -33 18 -55.5t52 -37t85 -24.5q15 -3 31.5 -5.5t34.5 -4.5z" />
    <glyph glyph-name="copyright" unicode="&#xa9;" horiz-adv-x="820" 
d="M410 -15q-101 0 -185 48t-132 132t-48 185t48 185t132 132t185 48t185 -48t132 -132t48 -185t-48 -185t-132 -132t-185 -48zM410 5q96 0 175 45.5t124.5 124.5t45.5 175t-45.5 175t-124.5 124.5t-175 45.5t-175 -45.5t-124.5 -124.5t-45.5 -175t45.5 -175t124.5 -124.5
t175 -45.5zM413 142q-58 0 -105 27.5t-73.5 75t-26.5 105.5t26.5 105.5t73.5 75t105 27.5q52 0 92.5 -18.5t66.5 -53t35 -81.5h-20q-13 63 -58.5 98t-115.5 35q-52 0 -94.5 -24.5t-66.5 -67.5t-24 -96t24 -96t66.5 -67.5t94.5 -24.5q70 0 115.5 35t58.5 98h20
q-9 -47 -35 -81.5t-66.5 -53t-92.5 -18.5z" />
    <glyph glyph-name="registered" unicode="&#xae;" horiz-adv-x="440" 
d="M230 355q-50 0 -91.5 23.5t-65 65t-23.5 91.5t23.5 91.5t65 65t91.5 23.5t91.5 -23.5t65 -65t23.5 -91.5t-23.5 -91.5t-65 -65t-91.5 -23.5zM230 373q45 0 82 21.5t58.5 58.5t21.5 82t-21.5 82t-58.5 58.5t-82 21.5t-82 -21.5t-58.5 -58.5t-21.5 -82t21.5 -82t58.5 -58.5
t82 -21.5zM161 642h60q36 0 56.5 -16t20.5 -44q0 -23 -13 -38.5t-36 -21.5l73 -84h-26l-70 81h-47v-81h-18v204zM221 537q28 0 43 12t15 33q0 19 -15 30t-43 11h-42v-86h42z" />
    <glyph glyph-name="trademark" unicode="&#x2122;" horiz-adv-x="800" 
d="M377 700h26l141 -276l140 276h26v-300h-18v274l-140 -274h-17l-140 274v-274h-18v300zM149 682h-133v18h285v-18h-134v-282h-18v282z" />
    <glyph glyph-name="degree" unicode="&#xb0;" horiz-adv-x="310" 
d="M155 475q-32 0 -60 16t-44 44t-16 60t16 60t44 44t60 16t60 -16t44 -44t16 -60t-16 -60t-44 -44t-60 -16zM155 495q41 0 70.5 29.5t29.5 70.5t-29.5 70.5t-70.5 29.5t-70.5 -29.5t-29.5 -70.5t29.5 -70.5t70.5 -29.5z" />
    <glyph glyph-name="bar" unicode="|" horiz-adv-x="340" 
d="M160 800h20v-900h-20v900z" />
    <glyph glyph-name="brokenbar" unicode="&#xa6;" horiz-adv-x="340" 
d="M160 800h20v-380h-20v380zM160 280h20v-380h-20v380z" />
    <glyph glyph-name="dagger" unicode="&#x2020;" horiz-adv-x="302" 
d="M141 585h-135v20h135v105h20v-105h135v-20h-135v-165h-20v165z" />
    <glyph glyph-name="daggerdbl" unicode="&#x2021;" horiz-adv-x="302" 
d="M141 510h-135v20h135v70h-135v20h135v90h20v-90h135v-20h-135v-70h135v-20h-135v-90h-20v90z" />
    <glyph glyph-name="uni2116" unicode="&#x2116;" horiz-adv-x="1200" 
d="M1008 380q-44 0 -81 21t-58 58t-21 81t21 81t58 58t81 21t81 -21t58 -58t21 -81t-21 -81t-58 -58t-81 -21zM1008 400q39 0 71 18.5t50.5 50.5t18.5 71t-18.5 71t-50.5 50.5t-71 18.5t-71 -18.5t-50.5 -50.5t-18.5 -71t18.5 -71t50.5 -50.5t71 -18.5zM140 700h24l516 -672
v672h20v-700h-23l-517 672v-672h-20v700z" />
    <glyph glyph-name="at.case" horiz-adv-x="820" 
d="M410 -15q-101 0 -185 48t-132 132t-48 185t48 185t132 132t185 48t185 -48t132 -132t48 -185q0 -112 -56 -198h-159v118q-21 -58 -76 -93t-125 -35q-58 0 -93.5 28t-35.5 74q0 60 53 89.5t178 37.5q55 4 77 14t22 32q0 34 -18.5 64t-51.5 47.5t-75 17.5
q-62 0 -103.5 -34.5t-51.5 -96.5h-20q7 47 30.5 81t60.5 52t84 18q75 0 120 -44t45 -117v-233h128q47 80 47 178q0 96 -45.5 175t-124.5 124.5t-175 45.5t-175 -45.5t-124.5 -124.5t-45.5 -175t45.5 -175t124.5 -124.5t175 -45.5q70 0 133 25t111 72l14 -13
q-50 -50 -117 -77t-141 -27zM362 162q55 0 100 23.5t71.5 64t26.5 90.5v36q-18 -11 -45 -17t-72 -8q-99 -6 -146 -31.5t-47 -72.5q0 -40 29.5 -62.5t82.5 -22.5z" />
    <glyph glyph-name="bar.case" horiz-adv-x="340" 
d="M160 700h20v-700h-20v700z" />
    <glyph glyph-name="brokenbar.case" horiz-adv-x="340" 
d="M160 700h20v-280h-20v280zM160 280h20v-280h-20v280z" />
    <glyph glyph-name="ampersand.ss02" horiz-adv-x="618" 
d="M314 -10q-71 0 -130 32.5t-93 89.5t-34 126q0 65 31 120t85 88.5t121 37.5v206h-223v20h466v-20h-223v-205q71 0 130 -32.5t92.5 -89t33.5 -125.5v-2.5v-2.5v-2.5v-2.5h-493q2 -61 34 -111t85 -78.5t118 -28.5q77 0 135.5 34.5t79.5 91.5h21q-14 -44 -48.5 -77t-83 -51
t-104.5 -18zM550 248q-2 61 -34 110.5t-85 78t-117 28.5t-117.5 -28.5t-85.5 -78t-34 -110.5v0h473z" />
    <glyph glyph-name="uni02BC" unicode="&#x2bc;" horiz-adv-x="147" 
d="M40 547v0q20 29 32.5 59t13.5 57h-2.5h-2.5q-10 0 -17 7t-7 17q0 7 3.5 12.5t9 9t12.5 3.5q11 0 18 -8t7 -21q0 -31 -15 -73t-32 -63h-20z" />
    <glyph glyph-name="uni0308" unicode="&#x308;" horiz-adv-x="0" 
d="M-375 745h27l-9 -160h-9zM-251 745h27l-9 -160h-9z" />
    <glyph glyph-name="uni0307" unicode="&#x307;" horiz-adv-x="0" 
d="M-315 745h30l-10 -160h-10z" />
    <glyph glyph-name="gravecomb" unicode="&#x300;" horiz-adv-x="0" 
d="M-321 585l-67 160h22l66 -160h-21z" />
    <glyph glyph-name="acutecomb" unicode="&#x301;" horiz-adv-x="0" 
d="M-234 745h22l-67 -160h-21z" />
    <glyph glyph-name="uni030B" unicode="&#x30b;" horiz-adv-x="0" 
d="M-322.592 745h19.7998l-60.2979 -160h-18.8994zM-201.592 745h19.7998l-60.2979 -160h-18.8994z" />
    <glyph glyph-name="uni030C.alt" horiz-adv-x="0" 
d="M-230 700h20l-2 -160h-18v160z" />
    <glyph glyph-name="uni0302" unicode="&#x302;" horiz-adv-x="0" 
d="M-157 585l-143 140l-144 -140h-28l164 160h16l164 -160h-29z" />
    <glyph glyph-name="uni030C" unicode="&#x30c;" horiz-adv-x="0" 
d="M-443 745l143 -140l144 140h28l-164 -160h-16l-164 160h29z" />
    <glyph glyph-name="uni0306" unicode="&#x306;" horiz-adv-x="0" 
d="M-300 585q-51 0 -89.5 19t-59.5 53t-21 80v8h20v-8q0 -61 40 -96.5t110 -35.5t110 35.5t40 96.5v8h20v-8q0 -46 -21 -80t-59.5 -53t-89.5 -19z" />
    <glyph glyph-name="uni030A" unicode="&#x30a;" horiz-adv-x="0" 
d="M-300 585q-33 0 -60.5 16t-43.5 43.5t-16 60.5t16 60.5t43.5 43.5t60.5 16q32 0 60 -16t44 -44t16 -60t-16 -60t-44 -44t-60 -16zM-300 605q27 0 50 13.5t36.5 36.5t13.5 50t-13.5 50t-36.5 36.5t-50 13.5q-28 0 -50.5 -13.5t-36 -36t-13.5 -50.5t13.5 -50.5t36 -36
t50.5 -13.5z" />
    <glyph glyph-name="tildecomb" unicode="&#x303;" horiz-adv-x="0" 
d="M-485 634q0 29 25.5 50.5t59.5 21.5q26 0 48.5 -7t54.5 -20q34 -13 54 -19t43 -6q26 0 45.5 16t19.5 36h20q0 -29 -25.5 -50.5t-59.5 -21.5q-26 0 -48.5 7t-54.5 20q-34 13 -54 19t-43 6q-26 0 -45.5 -16t-19.5 -36h-20z" />
    <glyph glyph-name="uni0304" unicode="&#x304;" horiz-adv-x="0" 
d="M-140 680v-20h-320v20h320z" />
    <glyph glyph-name="uni0312" unicode="&#x312;" horiz-adv-x="0" 
d="M-258 745v0q-20 -29 -32.5 -57.5t-13.5 -54.5h2.5h2.5q10 0 17 -6.5t7 -17.5q0 -10 -7.5 -17.5t-17.5 -7.5q-11 0 -18 8t-7 21q0 30 15 70.5t32 61.5h20z" />
    <glyph glyph-name="uni0326" unicode="&#x326;" horiz-adv-x="0" 
d="M-342 -245v0q20 29 32.5 57.5t13.5 54.5h-2.5h-2.5q-11 0 -17.5 6.5t-6.5 17.5q0 10 7 17.5t18 7.5t18 -8t7 -21q0 -30 -15 -70.5t-32 -61.5h-20z" />
    <glyph glyph-name="uni0327" unicode="&#x327;" horiz-adv-x="0" 
d="M-356 -245h-22l67 160h21z" />
    <glyph glyph-name="uni0328" unicode="&#x328;" horiz-adv-x="0" 
d="M-365 -245h-22l67 160h21z" />
    <glyph glyph-name="uni0335" unicode="&#x335;" horiz-adv-x="0" 
d="M-135 610v-20h-330v20h330z" />
    <glyph glyph-name="uni0308.cv01" horiz-adv-x="0" 
d="M-375 745h27l-9 -160h-9zM-251 745h27l-9 -160h-9z" />
    <glyph glyph-name="uni0307.cv01" horiz-adv-x="0" 
d="M-315 745h30l-10 -160h-10z" />
    <glyph glyph-name="brevecombcy" horiz-adv-x="0" 
d="M-300 585q-51 0 -89.5 19t-59.5 53t-21 80v8h20v-8q0 -61 40 -96.5t110 -35.5t110 35.5t40 96.5v8h20v-8q0 -46 -21 -80t-59.5 -53t-89.5 -19z" />
    </font>
</defs>
</svg>
