<svg width="56" height="54" viewBox="0 0 56 54" fill="none" xmlns="http://www.w3.org/2000/svg">
<path d="M43.0266 30.585L27.9999 45L12.9732 30.585C12.796 30.4548 12.6497 30.2894 12.5445 30.1C12.4393 29.9106 12.3775 29.7016 12.3633 29.4871C12.3491 29.2727 12.3828 29.0578 12.4623 28.857C12.5417 28.6562 12.6649 28.4743 12.8236 28.3234C12.9823 28.1726 13.1728 28.0563 13.3821 27.9826C13.5914 27.9089 13.8147 27.8794 14.0369 27.8962C14.259 27.9129 14.4749 27.9755 14.6698 28.0797C14.8647 28.1839 15.0341 28.3272 15.1666 28.5L26.4444 39.285V10.59C26.4444 10.1922 26.6082 9.81065 26.9 9.52934C27.1917 9.24804 27.5874 9.09 27.9999 9.09C28.4125 9.09 28.8081 9.24804 29.0999 9.52934C29.3916 9.81065 29.5555 10.1922 29.5555 10.59V39.285L40.8332 28.5C41.1262 28.2195 41.5226 28.0628 41.9354 28.0642C42.3482 28.0656 42.7435 28.225 43.0344 28.5075C43.3252 28.79 43.4878 29.1723 43.4863 29.5703C43.4849 29.9683 43.3195 30.3495 43.0266 30.63V30.585Z" fill="white"/>
</svg>
